<svg xmlns="http://www.w3.org/2000/svg" viewBox="0 0 30 30"><path d="M15 21c-.3 0-.5-.2-.5-.5V8c0-1.7 1.3-3 3-3h.5c.3 0 .5.2.5.5s-.2.5-.5.5h-.5c-1.1 0-2 .9-2 2v12.5c0 .3-.2.5-.5.5z"/><path d="M15 18H8c-.3 0-.5-.2-.5-.5s.2-.5.5-.5h7c.3 0 .5.2.5.5s-.2.5-.5.5zM15 10H8c-.3 0-.5-.2-.5-.5S7.7 9 8 9h7c.3 0 .5.2.5.5s-.2.5-.5.5zM15 14H8c-.3 0-.5-.2-.5-.5s.2-.5.5-.5h7c.3 0 .5.2.5.5s-.2.5-.5.5zM7 25c-2 0-3.5-1.1-3.5-2.5 0-.3.2-.5.5-.5s.5.2.5.5c0 .8 1.1 1.5 2.5 1.5s2.5-.7 2.5-1.5c0-.3.2-.5.5-.5s.5.2.5.5C10.5 23.9 9 25 7 25z"/><path d="M13 25c-2 0-3.5-1.1-3.5-2.5 0-.3.2-.5.5-.5s.5.2.5.5c0 .8 1.1 1.5 2.5 1.5s2.5-.7 2.5-1.5c0-.3.2-.5.5-.5s.5.2.5.5c0 1.4-1.5 2.5-3.5 2.5z"/><path d="M19 25c-2 0-3.5-1.1-3.5-2.5 0-.3.2-.5.5-.5s.5.2.5.5c0 .8 1.1 1.5 2.5 1.5s2.5-.7 2.5-1.5c0-.3.2-.5.5-.5s.5.2.5.5c0 1.4-1.5 2.5-3.5 2.5zM18 20c-2 0-3.5-1.1-3.5-2.5 0-.3.2-.5.5-.5s.5.2.5.5c0 .8 1.1 1.5 2.5 1.5s2.5-.7 2.5-1.5c0-.3.2-.5.5-.5s.5.2.5.5c0 1.4-1.5 2.5-3.5 2.5z"/><path d="M24 20c-2 0-3.5-1.1-3.5-2.5 0-.3.2-.5.5-.5s.5.2.5.5c0 .8 1.1 1.5 2.5 1.5s2.5-.7 2.5-1.5c0-.3.2-.5.5-.5s.5.2.5.5c0 1.4-1.5 2.5-3.5 2.5zM18 15c-2 0-3.5-1.1-3.5-2.5 0-.3.2-.5.5-.5s.5.2.5.5c0 .8 1.1 1.5 2.5 1.5s2.5-.7 2.5-1.5c0-.3.2-.5.5-.5s.5.2.5.5c0 1.4-1.5 2.5-3.5 2.5z"/><path d="M24 15c-2 0-3.5-1.1-3.5-2.5 0-.3.2-.5.5-.5s.5.2.5.5c0 .8 1.1 1.5 2.5 1.5s2.5-.7 2.5-1.5c0-.3.2-.5.5-.5s.5.2.5.5c0 1.4-1.5 2.5-3.5 2.5zM8 21c-.3 0-.5-.2-.5-.5V8c0-1.7 1.3-3 3-3h.5c.3 0 .5.2.5.5s-.2.5-.5.5h-.5c-1.1 0-2 .9-2 2v12.5c0 .3-.2.5-.5.5z"/><path d="M6 20c-2 0-3.5-1.1-3.5-2.5 0-.3.2-.5.5-.5s.5.2.5.5c0 .8 1.1 1.5 2.5 1.5.6 0 1.3-.2 1.7-.4.2-.1.5-.1.7.2.1.2.1.5-.2.7-.6.3-1.4.5-2.2.5zM6 15c-2 0-3.5-1.1-3.5-2.5 0-.3.2-.5.5-.5s.5.2.5.5c0 .8 1.1 1.5 2.5 1.5.6 0 1.3-.2 1.7-.4.2-.1.5-.1.7.2.1.2.1.5-.2.7-.6.3-1.4.5-2.2.5z"/></svg>