<svg xmlns="http://www.w3.org/2000/svg" viewBox="0 0 30 30"><path d="M27 30H3c-1.7 0-3-1.3-3-3v-1.5c0-.3.2-.5.5-.5h29c.3 0 .5.2.5.5V27c0 1.7-1.3 3-3 3zM1 26v1c0 1.1.9 2 2 2h24c1.1 0 2-.9 2-2v-1H1z"/><path d="M26.5 26c-.3 0-.5-.2-.5-.5V4.1c.1-.8-.1-1.6-.6-2.1-1.1-1.2-3.1-1.2-4.3-.1l-2.2 2.4c-.2.2-.5.2-.7 0-.2-.2-.2-.5 0-.7l2.2-2.5C21.1.4 22.1 0 23.2 0c1.1 0 2.2.5 2.9 1.3.7.8 1 1.8.9 2.9v21.4c0 .2-.2.4-.5.4z"/><path d="M19.5 10c-.1 0-.3-.1-.4-.1l-7-7c-.1-.2-.1-.4-.1-.6s.3-.3.5-.3h4c.1 0 .3.1.4.1l3 3c0 .1.1.3.1.4v4c0 .2-.1.4-.3.5h-.2zm-5.8-7L19 8.3V5.7L16.3 3h-2.6zM9.5 8c-.1 0-.3 0-.4-.1-.1-.2-.1-.6 0-.8l2-2c.2-.2.5-.2.7 0s.2.5 0 .7l-2 2c0 .2-.2.2-.3.2zM12 10.5c-.1 0-.3 0-.4-.1-.2-.2-.2-.5 0-.7l2-2c.2-.2.5-.2.7 0s.2.5 0 .7l-2 2c0 .1-.2.1-.3.1zM14.5 13c-.1 0-.3 0-.4-.1-.2-.2-.2-.5 0-.7l2-2c.2-.2.5-.2.7 0s.2.5 0 .7l-2 2c0 .1-.2.1-.3.1z"/></svg>