<svg xmlns="http://www.w3.org/2000/svg" viewBox="0 0 30 30"><path d="M19 7h-8c-.3 0-.5-.2-.5-.5V3.7c0-1 .8-1.8 1.8-1.8h5.5c1 0 1.8.8 1.8 1.8v2.8c-.1.3-.3.5-.6.5zm-7.5-1h7V3.7c0-.4-.3-.8-.8-.8h-5.5c-.4 0-.8.3-.8.8V6z"/><path d="M29 28H1c-.3 0-.5-.2-.5-.5v-21c0-.3.2-.5.5-.5h28c.3 0 .5.2.5.5v21c0 .3-.2.5-.5.5zM1.5 27h27V7h-27v20z"/><path d="M14.5 24c-3.9 0-7-3.1-7-7s3.1-7 7-7 7 3.1 7 7-3.2 7-7 7zm0-13c-3.3 0-6 2.7-6 6s2.7 6 6 6 6-2.7 6-6-2.7-6-6-6z"/><path d="M16 22h-3c-.3 0-.5-.2-.5-.5V19H10c-.3 0-.5-.2-.5-.5v-3c0-.3.2-.5.5-.5h2.5v-2.5c0-.3.2-.5.5-.5h3c.3 0 .5.2.5.5V15H19c.3 0 .5.2.5.5v3c0 .3-.2.5-.5.5h-2.5v2.5c0 .3-.2.5-.5.5zm-2.5-1h2v-2.5c0-.3.2-.5.5-.5h2.5v-2H16c-.3 0-.5-.2-.5-.5V13h-2v2.5c0 .3-.2.5-.5.5h-2.5v2H13c.3 0 .5.2.5.5V21z"/></svg>