<svg xmlns="http://www.w3.org/2000/svg" viewBox="0 0 30 30"><path d="M27.5 17.5h-25C1.1 17.5 0 16.4 0 15V5c0-1.4 1.1-2.5 2.5-2.5h25C28.9 2.5 30 3.6 30 5v10c0 1.4-1.1 2.5-2.5 2.5zm-25-14C1.7 3.5 1 4.2 1 5v10c0 .8.7 1.5 1.5 1.5h25c.8 0 1.5-.7 1.5-1.5V5c0-.8-.7-1.5-1.5-1.5h-25z"/><path d="M29 11.5H.5c-.3 0-.5-.2-.5-.5s.2-.5.5-.5H29c.3 0 .5.2.5.5s-.2.5-.5.5zM26.5 14.5h-1c-.3 0-.5-.2-.5-.5s.2-.5.5-.5h1c.3 0 .5.2.5.5s-.2.5-.5.5zM22.5 14.5h-1c-.3 0-.5-.2-.5-.5s.2-.5.5-.5h1c.3 0 .5.2.5.5s-.2.5-.5.5zM4.5 27.5c-.1 0-.3 0-.4-.1-.2-.2-.2-.5 0-.7.9-.9.5-1.9-.1-3.6-.5-1.5-1.2-3.2.1-4.5.2-.2.5-.2.7 0s.2.5 0 .7c-.8.8-.5 1.8.1 3.4.6 1.5 1.2 3.3-.1 4.6 0 .2-.2.2-.3.2zM9.4 27.5c-.1 0-.3 0-.4-.1-.2-.2-.2-.5 0-.7.8-.8.5-1.9-.1-3.5-.5-1.5-1.2-3.2.1-4.5.2-.2.5-.2.7 0s.2.5 0 .7c-.8.8-.5 1.8.1 3.4.6 1.5 1.2 3.3-.1 4.6-.1.1-.2.1-.3.1zM14.2 27.5c-.1 0-.3 0-.4-.1-.2-.2-.2-.5 0-.7.8-.8.5-1.9-.1-3.5-.5-1.5-1.2-3.2.1-4.5.2-.2.5-.2.7 0s.2.5 0 .7c-.8.8-.5 1.8.1 3.4.6 1.5 1.2 3.3-.1 4.6 0 .1-.1.1-.3.1zM22.5 26.5c-.3 0-.5-.2-.5-.5v-7c0-.3.2-.5.5-.5s.5.2.5.5v7c0 .3-.2.5-.5.5z"/><path d="M19.5 24.8c-.2 0-.3-.1-.4-.3-.1-.2-.1-.5.2-.7l6.1-3.5c.2-.1.5-.1.7.2.1.2.1.5-.2.7l-6.1 3.5c-.2 0-.2.1-.3.1z"/><path d="M25.4 25c-.1 0-.2 0-.3-.1l-5.7-4c-.2-.2-.3-.5-.1-.7.2-.2.5-.3.7-.1l5.7 4c.2.2.3.5.1.7-.1.1-.3.2-.4.2zM18.5 14.5h-15c-.3 0-.5-.2-.5-.5s.2-.5.5-.5h15c.3 0 .5.2.5.5s-.2.5-.5.5z"/></svg>