<svg xmlns="http://www.w3.org/2000/svg" viewBox="0 0 30 30"><path d="M19 30H3C1.6 30 .5 28.9.5 27.5v-25C.5 1.1 1.6 0 3 0h16c1.4 0 2.5 1.1 2.5 2.5v25c0 1.4-1.1 2.5-2.5 2.5zM3 1c-.8 0-1.5.7-1.5 1.5v25c0 .8.7 1.5 1.5 1.5h16c.8 0 1.5-.7 1.5-1.5v-25c0-.8-.7-1.5-1.5-1.5H3zM29 18h-3c-.3 0-.5-.2-.5-.5s.2-.5.5-.5h2.5V6H26c-.3 0-.5-.2-.5-.5s.2-.5.5-.5h3c.3 0 .5.2.5.5v12c0 .3-.2.5-.5.5z"/><path d="M19 28H3c-.3 0-.5-.2-.5-.5v-25c0-.3.2-.5.5-.5h16c.3 0 .5.2.5.5v25c0 .3-.2.5-.5.5zM3.5 27h15V3h-15v24z"/><path d="M11 25H6c-.3 0-.5-.2-.5-.5v-5.7c0-.9 0-1.8.4-2.7.4-.7.6-1.6.6-2.4v-1.2c0-.3.2-.5.5-.5h3c.3 0 .5.2.5.5v1.2c0 .8.2 1.7.6 2.4.4.9.4 1.8.4 2.7v5.7c0 .3-.2.5-.5.5zm-4.5-1h4v-5.2c0-.8 0-1.6-.3-2.2-.4-.9-.7-1.9-.7-2.9V13h-2v.7c0 1-.2 2-.7 2.9-.3.7-.3 1.4-.3 2.2V24zM18.5 11h-15c-.3 0-.5-.2-.5-.5s.2-.5.5-.5h15c.3 0 .5.2.5.5s-.2.5-.5.5z"/><path d="M16 25h-5c-.3 0-.5-.2-.5-.5v-5.7c0-.9 0-1.8.4-2.7.4-.8.6-1.6.6-2.4v-1.2c0-.3.2-.5.5-.5h3c.3 0 .5.2.5.5v1.2c0 .8.2 1.7.6 2.4.4.9.4 1.8.4 2.7v5.7c0 .3-.2.5-.5.5zm-4.5-1h4v-5.2c0-.8 0-1.6-.3-2.2-.4-.9-.7-1.9-.7-2.9V13h-2v.7c0 1-.2 2-.7 2.9-.3.7-.3 1.4-.3 2.2V24zM24.5 30c-1.1 0-2-.9-2-2V2c0-1.1.9-2 2-2s2 .9 2 2v26c0 1.1-.9 2-2 2zm0-29c-.6 0-1 .4-1 1v26c0 .6.4 1 1 1s1-.4 1-1V2c0-.6-.4-1-1-1z"/></svg>