<svg xmlns="http://www.w3.org/2000/svg" viewBox="0 0 30 30"><path d="M27.5 27.1h-25C1.1 27.1 0 26 0 24.6v-15c0-1.4 1.1-2.5 2.5-2.5h25c1.4 0 2.5 1.1 2.5 2.5v15c0 1.4-1.1 2.5-2.5 2.5zm-25-19c-.8 0-1.5.7-1.5 1.5v15c0 .8.7 1.5 1.5 1.5h25c.8 0 1.5-.7 1.5-1.5v-15c0-.8-.7-1.5-1.5-1.5h-25z"/><path d="M17.5 25.1h-12c-1.9 0-3.5-1.6-3.5-3.5v-9c0-1.9 1.6-3.5 3.5-3.5h12c1.9 0 3.5 1.6 3.5 3.5v9c0 2-1.6 3.5-3.5 3.5zm-12-15c-1.4 0-2.5 1.1-2.5 2.5v9c0 1.4 1.1 2.5 2.5 2.5h12c1.4 0 2.5-1.1 2.5-2.5v-9c0-1.4-1.1-2.5-2.5-2.5h-12zM25.5 13.1h-3c-.3 0-.5-.2-.5-.5s.2-.5.5-.5h3c.3 0 .5.2.5.5s-.2.5-.5.5zM25.5 15.1h-3c-.3 0-.5-.2-.5-.5s.2-.5.5-.5h3c.3 0 .5.2.5.5s-.2.5-.5.5zM25.5 17.1h-3c-.3 0-.5-.2-.5-.5s.2-.5.5-.5h3c.3 0 .5.2.5.5s-.2.5-.5.5zM25.5 25.1h-3c-.3 0-.5-.2-.5-.5v-5c0-.3.2-.5.5-.5h3c.3 0 .5.2.5.5v5c0 .3-.2.5-.5.5zm-2.5-1h2v-4h-2v4zM4.3 29.9c-.3 0-.5-.2-.5-.5v-2.5c0-.3.2-.5.5-.5s.5.2.5.5v2.5c0 .3-.3.5-.5.5zM25.5 29.9c-.3 0-.5-.2-.5-.5v-2.5c0-.3.2-.5.5-.5s.5.2.5.5v2.5c0 .3-.2.5-.5.5zM13.5 8.1c-.1 0-.3 0-.4-.1l-7-7C6 .8 6 .5 6.1.3s.5-.2.7 0l6.6 6.6L20 .3c.2-.2.5-.2.7 0s.2.5 0 .7l-7 7c.1.1-.1.1-.2.1z"/></svg>