<svg xmlns="http://www.w3.org/2000/svg" viewBox="0 0 30 30"><path d="M7 23.001a1 1 0 1 0 0 2 1 1 0 0 0 0-2zm10.048-1h-6.096c-1.077 0-1.952.876-1.952 2.048 0 1.077.875 1.952 1.952 1.952h6.096c1.077 0 1.952-.875 1.952-2.048a1.953 1.953 0 0 0-1.952-1.952zm0 3h-6.096c-.525 0-.952-.427-.952-1.048 0-.525.427-.952.952-.952h6.096c.525 0 .952.427.952 1.048a.953.953 0 0 1-.952.952zM27.969.327a.5.5 0 0 0-.643-.295L14.085 4.936 7.804.104a.5.5 0 0 0-.609.793L12.529 5h-2.363c-4.503 0-8.167 3.664-8.167 8.167v7.667c0 3.161 1.809 5.903 4.443 7.26l-.416 1.249a.5.5 0 1 0 .948.316l.388-1.164a8.106 8.106 0 0 0 2.804.506h7.667c.987 0 1.928-.185 2.805-.507l.388 1.165a.5.5 0 1 0 .948-.316l-.417-1.25C24.191 26.736 26 23.994 26 20.834v-7.667C26 8.664 22.336 5 17.833 5h-1.04L27.674.97a.5.5 0 0 0 .295-.643zM17.834 6.001a7.175 7.175 0 0 1 7.167 7.167v7.667a7.175 7.175 0 0 1-7.167 7.167h-7.667C6.215 28.002 3 24.786 3 20.835v-7.667a7.175 7.175 0 0 1 7.167-7.167h7.667zm3.166 17a1 1 0 1 0 0 2 1 1 0 0 0 0-2zM4.999 13.329v2.343a5.336 5.336 0 0 0 5.329 5.329h7.343A5.336 5.336 0 0 0 23 15.672v-2.343A5.336 5.336 0 0 0 17.671 8h-7.343a5.336 5.336 0 0 0-5.329 5.329zm5.33-4.328h7.343a4.334 4.334 0 0 1 4.329 4.329v2.343a4.334 4.334 0 0 1-4.329 4.329h-7.343A4.334 4.334 0 0 1 6 15.673V13.33a4.334 4.334 0 0 1 4.329-4.329z"/></svg>