<svg xmlns="http://www.w3.org/2000/svg" viewBox="0 0 30 30"><path d="M26.953 22.469c-3.063 0-7.93-2.691-12.34-7.094C8.857 9.619 6.031 3.081 8.313.799c2.106-2.105 7.837.097 13.332 5.124a.5.5 0 0 1-.676.738C15.627 1.772 10.478.048 9.021 1.506c-1.619 1.62.73 7.593 6.3 13.162 5.572 5.563 11.544 7.917 13.164 6.31 1.467-1.467-.251-6.622-5.146-11.958a.5.5 0 1 1 .736-.676c5.034 5.487 7.233 11.224 5.115 13.342-.534.531-1.301.783-2.237.783z"/><path d="M20.038 24.956c-8.271 0-15-6.729-15-15 0-3.344.986-6.237 3.016-8.845a.496.496 0 0 1 .701-.088c.219.17.258.483.088.701C6.93 4.185 6.038 6.8 6.038 9.956c0 7.72 6.28 14 14 14 3.105 0 5.814-.929 8.281-2.84a.5.5 0 1 1 .613.791c-2.649 2.052-5.558 3.049-8.894 3.049z"/><path d="M18.146 18.021a.499.499 0 0 1-.423-.766L26.16 3.84l-13.422 8.432a.5.5 0 0 1-.531-.847l15.277-9.598a.5.5 0 1 1 .688.69l-9.604 15.271a.495.495 0 0 1-.422.233zM13.1 27H6.8a.499.499 0 0 1-.467-.681l2.59-6.7a.5.5 0 0 1 .933.361L7.529 26h4.838l-1.743-4.458a.498.498 0 0 1 .284-.647.497.497 0 0 1 .647.284l2.01 5.14A.501.501 0 0 1 13.1 27z"/><path d="M19.5 30H.5a.5.5 0 0 1-.5-.5v-3a.5.5 0 0 1 .5-.5h19a.5.5 0 0 1 .5.5v3a.5.5 0 0 1-.5.5zM1 29h18v-2H1v2zM28.5 3c-.827 0-1.5-.673-1.5-1.5S27.673 0 28.5 0 30 .673 30 1.5 29.327 3 28.5 3zm0-2c-.275 0-.5.225-.5.5s.225.5.5.5.5-.225.5-.5-.225-.5-.5-.5z"/></svg>