<svg xmlns="http://www.w3.org/2000/svg" viewBox="0 0 30 30"><path d="M25.1 14c-.4 0-.9-.2-1.2-.5-.9-.8-1.9-1.5-3.1-2.1-.5-.2-.8-.9-.8-1.6V6.9c-1.8-.6-3.5-.9-5-.9s-3.1.3-5 .9l.1 2.9c0 .6-.2 1.3-.8 1.6-1 .5-2.5 1.2-3.4 2.1-.6.6-1.7.6-2.4 0l-3-3.1c-.3-.3-.5-.7-.5-1.2S.2 8.3.5 8c4-3.8 9.3-6 14.5-6 5.1 0 10.4 2.2 14.5 6.1.3.4.5.8.5 1.2s-.2.9-.5 1.2l-3.2 3c-.3.3-.8.5-1.2.5zM15 5c1.7 0 3.6.3 5.7 1 .2.1.3.3.3.5v3.3c0 .4.1.7.3.7 1.2.6 2.3 1.4 3.3 2.3.3.3.7.3 1 0l3.2-3c.1-.1.2-.3.2-.4s-.1-.4-.2-.5C24.9 5.1 19.8 3 15 3 10.1 3 5 5.1 1.2 8.7c-.1.1-.2.3-.2.5s.1.4.2.5l3 3.1c.2.2.7.2 1 0 1-1 2.5-1.7 3.6-2.3.2-.1.3-.4.3-.7L9 6.5c0-.2.1-.4.3-.5 2.2-.7 4-1 5.7-1z"/><path d="M26.5 28h-24c-.1 0-.3-.1-.4-.2s-.1-.2-.1-.4l.5-4.5c0-1 .2-2 .7-3l1.8-3c.1-1.6 1.4-2.9 3-2.9h.6c.3 0 .5.2.5.5s-.2.5-.5.5H8c-1.1 0-2 .9-2 2 0 .1 0 .2-.1.3l-1.8 3.2c-.4.8-.6 1.7-.6 2.5l-.4 4H26v-4c0-.9-.2-1.8-.6-2.6l-1.7-3.2c0-.1-.1-.2-.1-.2 0-1.1-.9-2-2-2H21c-.3 0-.5-.2-.5-.5s.2-.5.5-.5h.6c1.6 0 2.9 1.3 3 2.9l1.7 3.1c.5.9.7 2 .7 3v4.5c0 .3-.2.5-.5.5z"/><path d="M15 19c-1.1 0-2-.9-2-2s.9-2 2-2 2 .9 2 2-.9 2-2 2zm0-3c-.6 0-1 .4-1 1s.4 1 1 1 1-.4 1-1-.4-1-1-1z"/><path d="M15 24c-3.9 0-7-3.1-7-7s3.1-7 7-7 7 3.1 7 7c0 2.1-.9 4.1-2.6 5.4-.1.1-.2.1-.2.1-.6.1-1.2 0-1.7-.1.1.1.2.2.3.2.1.1.2.3.2.5s-.1.3-.3.4c-1 .3-1.8.5-2.7.5zm0-13c-3.3 0-6 2.7-6 6s2.7 6 6 6c.5 0 1-.1 1.4-.2-.3-.4-.4-.8-.4-1.3 0-.2.1-.3.2-.4.2-.1.3-.1.5 0 .7.4 1.4.6 2.1.5 1.3-1.1 2.1-2.8 2.1-4.6.1-3.3-2.6-6-5.9-6z"/><path d="M21.5 25c-.6-.1-5.5-.7-5.5-3.5 0-.2.1-.3.3-.4s.3-.1.5 0c1.4.8 2.4.5 3.4.2.5-.1.9-.3 1.3-.3.3 0 .5.2.5.5v3c0 .1-.1.3-.2.4-.1.1-.2.1-.3.1zm-4.1-2.6c.8.8 2.5 1.3 3.6 1.5v-1.8c-.2 0-.3.1-.5.2-.8.2-1.8.5-3.1.1z"/></svg>