<svg xmlns="http://www.w3.org/2000/svg" viewBox="0 0 30 30"><path d="M6.396 13.723c-.81 0-1.684-.452-2.199-1.757-.634-1.606-.482-3.735.75-4.222 1.231-.489 2.797.964 3.432 2.571.296.75.335 1.453.111 2.034-.213.554-.645.973-1.247 1.21a2.31 2.31 0 0 1-.847.164zm-.938-5.075a.394.394 0 0 0-.145.025c-.496.196-.679 1.678-.187 2.925.379.959 1 1.324 1.749 1.031.233-.092.542-.278.681-.64.132-.343.094-.795-.108-1.308-.449-1.136-1.442-2.033-1.99-2.033z"/><path d="M14.498 25.014A.51.51 0 0 1 14 24.5c-.113-.263-1.397-.75-2.045-.75l-11.4 1.247A.5.5 0 0 1 0 24.5V5.75a.5.5 0 0 1 .446-.497L11.9 4.003h.006c.544 0 1.865.273 2.593.857.727-.587 2.044-.86 2.546-.86l11.509 1.253A.5.5 0 0 1 29 5.75V24.5a.502.502 0 0 1-.554.497l-11.455-1.25c-.589.003-1.853.481-1.991.773a.49.49 0 0 1-.007.067.49.49 0 0 1-.495.427zm2.547-2.264L28 23.942V6.198L16.991 4.997c-.589.003-1.853.481-1.991.773a.49.49 0 0 1-.007.067.487.487 0 0 1-.495.427A.51.51 0 0 1 14 5.75c-.113-.263-1.397-.75-2.045-.75L1 6.198v17.744l10.9-1.189h.006c.544 0 1.865.273 2.593.857.727-.587 2.044-.86 2.546-.86z"/><path d="M14.5 25.182a.5.5 0 0 1-.5-.5V5.591a.5.5 0 0 1 1 0v19.091a.5.5 0 0 1-.5.5zM25.955 21.364a.515.515 0 0 1-.122-.015c-.278-.069-.71-.15-1.234-.237a.5.5 0 1 1 .164-.986c.558.093 1.017.18 1.313.254a.5.5 0 0 1-.121.984zM22.137 20.739a.415.415 0 0 1-.069-.005c-2.454-.337-5.082-.647-5.082-.647l.117-.993s2.638.311 5.101.65a.5.5 0 0 1-.067.995zM25.955 17.545a.515.515 0 0 1-.122-.015c-.278-.069-.709-.15-1.234-.237a.5.5 0 0 1-.411-.575.493.493 0 0 1 .575-.411c.558.093 1.016.18 1.312.254a.5.5 0 0 1-.12.984zM22.136 16.921a.415.415 0 0 1-.069-.005c-2.453-.337-5.081-.646-5.081-.646l.117-.993s2.637.31 5.1.649a.5.5 0 0 1-.067.995zM25.955 13.727a.515.515 0 0 1-.122-.015c-.278-.069-.71-.15-1.234-.237a.5.5 0 1 1 .164-.986c.559.093 1.017.18 1.313.254a.5.5 0 0 1-.121.984zM22.135 13.103a.415.415 0 0 1-.069-.005 302.957 302.957 0 0 0-5.079-.646.5.5 0 0 1 .117-.993s2.636.31 5.099.649a.5.5 0 0 1-.068.995zM25.955 9.909a.515.515 0 0 1-.122-.015c-.278-.069-.709-.15-1.234-.237a.5.5 0 0 1-.411-.575.494.494 0 0 1 .575-.411c.558.093 1.017.18 1.313.254a.5.5 0 0 1-.121.984zM22.135 9.285a.415.415 0 0 1-.069-.005 295.47 295.47 0 0 0-5.079-.647.5.5 0 0 1 .117-.993s2.636.31 5.099.65a.5.5 0 0 1-.068.995zM10.045 20.727a.5.5 0 0 1-.461-.307l-2.986-7.133a.5.5 0 0 1 .923-.385l2.986 7.133a.5.5 0 0 1-.462.692z"/></svg>