<svg xmlns="http://www.w3.org/2000/svg" viewBox="0 0 30 30"><path d="M20.5 18h-10c-.3 0-.5-.2-.5-.5s.2-.5.5-.5h10c.3 0 .5.2.5.5s-.2.5-.5.5zM20.5 22h-10c-.3 0-.5-.2-.5-.5s.2-.5.5-.5h10c.3 0 .5.2.5.5s-.2.5-.5.5zM20.5 26h-10c-.3 0-.5-.2-.5-.5s.2-.5.5-.5h10c.3 0 .5.2.5.5s-.2.5-.5.5z"/><g><path d="M22.5 30h-15c-.3 0-.5-.2-.5-.5v-11c0-3.6 2.3-6.6 5.7-7.7l5-1.4c1.7-.5 2.3-1 2.3-2C20 5.6 18.4 4 16.5 4h-2C12.6 4 11 5.6 11 7.5V8c0 1.1-.9 2-2 2s-2-.9-2-2V6.5C7 2.9 9.9 0 13.5 0h3C20.1 0 23 2.9 23 6.5v23c0 .3-.2.5-.5.5zM8 29h14V6.5c0-3-2.5-5.5-5.5-5.5h-3C10.5 1 8 3.5 8 6.5V8c0 .6.4 1 1 1s1-.4 1-1v-.5C10 5 12 3 14.5 3h2C19 3 21 5 21 7.5c0 2-2 2.6-3 2.9l-5 1.4c-3 .9-5 3.6-5 6.7V29z"/></g></svg>