<svg xmlns="http://www.w3.org/2000/svg" viewBox="0 0 30 30"><path d="M20 26H6c-.3 0-.5-.2-.5-.5V8.3C5.5 5.9 7.4 4 9.8 4h12.8c.2 0 .4.2.4.5s-.2.5-.5.5c-1.1 0-2 .9-2 2v18.5c0 .3-.2.5-.5.5zM6.5 25h13V7c0-.8.3-1.5.8-2H9.8C8 5 6.5 6.5 6.5 8.3V25z"/><path d="M25 7.5c-.3 0-.5-.2-.5-.5 0-1.1-.9-2-2-2-.3 0-.5-.2-.5-.5s.2-.5.5-.5c1.7 0 3 1.3 3 3 0 .3-.2.5-.5.5zM20 23H6c-.3 0-.5-.2-.5-.5s.2-.5.5-.5h14c.3 0 .5.2.5.5s-.2.5-.5.5zM20 20H6c-.3 0-.5-.2-.5-.5s.2-.5.5-.5h14c.3 0 .5.2.5.5s-.2.5-.5.5z"/><path d="M27 7h-6.5c-.3 0-.5-.2-.5-.5s.2-.5.5-.5H27c.3 0 .5.2.5.5s-.2.5-.5.5z"/><path d="M25 16h-5c-.3 0-.5-.2-.5-.5s.2-.5.5-.5h4.5V7c0-.3.2-.5.5-.5s.5.2.5.5v8.5c0 .3-.2.5-.5.5z"/><path d="M25 12h-5c-.3 0-.5-.2-.5-.5s.2-.5.5-.5h5c.3 0 .5.2.5.5s-.2.5-.5.5zM28 8c-.8 0-1.5-.7-1.5-1.5S27.2 5 28 5s1.5.7 1.5 1.5S28.8 8 28 8zm0-2c-.3 0-.5.2-.5.5s.2.5.5.5.5-.2.5-.5-.2-.5-.5-.5zM6 7H3c-.3 0-.5-.2-.5-.5S2.7 6 3 6h3c.3 0 .5.2.5.5S6.3 7 6 7z"/><path d="M2 8C1.2 8 .5 7.3.5 6.5S1.2 5 2 5s1.5.7 1.5 1.5S2.8 8 2 8zm0-2c-.3 0-.5.2-.5.5s.2.5.5.5.5-.2.5-.5S2.3 6 2 6z"/></svg>