<svg xmlns="http://www.w3.org/2000/svg" viewBox="3 -3 30 30"><path d="M6 19H5c-.827 0-1.5-.673-1.5-1.5v-11C3.5 5.673 4.173 5 5 5h1c.827 0 1.5.673 1.5 1.5v11c0 .827-.673 1.5-1.5 1.5zM5 6a.5.5 0 0 0-.5.5v11a.5.5 0 0 0 .5.5h1a.5.5 0 0 0 .5-.5v-11A.5.5 0 0 0 6 6H5z"/><path d="M10 23H8c-.827 0-1.5-.673-1.5-1.5v-19C6.5 1.673 7.173 1 8 1h2c.827 0 1.5.673 1.5 1.5v19c0 .827-.673 1.5-1.5 1.5zM8 2a.5.5 0 0 0-.5.5v19a.5.5 0 0 0 .5.5h2a.5.5 0 0 0 .5-.5v-19A.5.5 0 0 0 10 2H8zM31 19h-1c-.827 0-1.5-.673-1.5-1.5v-11c0-.827.673-1.5 1.5-1.5h1c.827 0 1.5.673 1.5 1.5v11c0 .827-.673 1.5-1.5 1.5zM30 6a.5.5 0 0 0-.5.5v11a.5.5 0 0 0 .5.5h1a.5.5 0 0 0 .5-.5v-11A.5.5 0 0 0 31 6h-1z"/><path d="M28 23h-2c-.827 0-1.5-.673-1.5-1.5v-19c0-.827.673-1.5 1.5-1.5h2c.827 0 1.5.673 1.5 1.5v19c0 .827-.673 1.5-1.5 1.5zM26 2a.5.5 0 0 0-.5.5v19c0 .275.225.5.5.5h2c.275 0 .5-.225.5-.5v-19A.5.5 0 0 0 28 2h-2z"/><path d="M25 14H11a.5.5 0 0 1-.5-.5v-2a.5.5 0 0 1 .5-.5h14a.5.5 0 0 1 .5.5v2a.5.5 0 0 1-.5.5zm-13.5-1h13v-1h-13v1z"/></svg>