<svg xmlns="http://www.w3.org/2000/svg" viewBox="0 0 30 30"><path d="M11.5 23c-.1 0-.3 0-.4-.1-.2-.2-.2-.5 0-.7l11-11c.2-.2.5-.2.7 0s.2.5 0 .7l-11 11c0 .1-.2.1-.3.1z"/><path d="M14.9 24.1c-4.2 0-8.5-2.3-11.4-5.2-4.4-4.5-4.7-11.9-.6-16 4.1-4.1 11.5-3.8 16 .6 3.6 3.6 7 11.9 4.1 16.8-.1.2-.5.3-.7.2-.2-.1-.3-.4-.2-.7 2.7-4.4-.6-12.2-3.9-15.5-4-4-10.8-4.3-14.5-.6C0 7.4.3 14.2 4.3 18.2c3.8 3.8 9.9 6.5 15.1 3.9.2-.1.5 0 .7.2.1.2 0 .5-.2.7-1.7.7-3.4 1.1-5 1.1z"/><path d="M26.5 30c-.1 0-.3-.1-.4-.2l-8-9c-.2-.2-.2-.5 0-.7l2-2c.2-.2.5-.2.7 0l9 8c.2.2.2.4.1.6-.9 1.7-1.5 2.4-3.2 3.2 0 .1-.1.1-.2.1zm-7.3-9.5l7.4 8.4c1.2-.6 1.6-1.1 2.3-2.3l-8.4-7.4-1.3 1.3zM4.5 30C2 30 0 28 0 25.5S2 21 4.5 21 9 23 9 25.5 7 30 4.5 30zm0-8C2.6 22 1 23.6 1 25.5S2.6 29 4.5 29 8 27.4 8 25.5 6.4 22 4.5 22z"/></svg>