<svg xmlns="http://www.w3.org/2000/svg" viewBox="0 0 30 30"><path d="M12 29c-.2 0-.4-.1-.5-.3-1.5-3.6-1.6-10.1-.5-12.3.2-.5.5-.8.9-.9 3.4-1 8.8-5.8 8.8-5.9.1-.1.3-.2.5-.1s5.8 1.8 8.3 5.7c.1.2.1.5-.2.7-.2.1-.5.1-.7-.2-2-3.2-6.3-4.8-7.5-5.2-1.1.9-5.7 4.9-9 5.9-.8.4-1.5 7.5.3 11.8.1.3 0 .5-.3.7 0 .1 0 .1-.1.1z"/><path d="M11 21.5c-.3 0-.5-.2-.5-.5s.2-.5.5-.5c2.8 0 13.3-6.3 13.5-8.5 0-.3.3-.5.5-.4.3 0 .5.3.4.5-.2 3-11.5 9.4-14.4 9.4zM11.5 25.5c-.3 0-.5-.2-.5-.5s.2-.5.5-.5c1 0 12.7-2.4 16-10.2.1-.3.4-.4.7-.3.3.1.4.4.3.7-3.6 8.3-15.8 10.8-17 10.8zM21 10.5c-.3 0-.5-.2-.5-.5 0-2.7-3.9-8.2-3.9-8.2-.2-.2-.1-.5.1-.7.2-.2.5-.1.7.1.2.2 4.1 5.8 4.1 8.8 0 .3-.2.5-.5.5z"/><path d="M27.5 9.5h-.2c-1.4-.5-5.4-2-6.8-2-.3 0-.5-.2-.5-.5s.2-.5.5-.5c1.9 0 7 2 7.2 2 .3.1.4.4.3.6-.1.3-.3.4-.5.4zM12 16.5h-.2C8.3 15.2 3.1 9.2 3 7.3c0-.3.2-.5.5-.5.2-.1.5.1.5.4.1 1.3 4.8 7.1 8.2 8.3.3.1.4.4.3.6-.1.3-.3.4-.5.4z"/><path d="M1.5 19c-.3 0-.5-.3-.5-.5.2-1.9 1.6-5.9 3.6-8.7.2-.2.5-.3.7-.1.2.2.3.5.1.7C3.6 13 2.2 16.7 2 18.5c0 .3-.2.5-.5.5zM6 26c-.3 0-.5-.3-.5-.5.1-1.8.8-11 2.1-12.3.2-.2.5-.2.7 0s.2.5 0 .7c-.8.8-1.6 7.3-1.9 11.7.1.2-.1.4-.4.4zM18.5 12.1c-.3 0-.5-.2-.5-.5 0-1.3-5.1-8.5-6.4-9.8-.2-.2-.2-.5 0-.7s.5-.2.7 0c1.1 1.1 6.6 8.7 6.6 10.5.1.3-.1.5-.4.5zM15.4 14c-.1 0-.3-.1-.4-.2-.1-.1-7.5-8.1-8.7-9.4-.2-.1-.2-.4 0-.6s.5-.2.7 0c1.2 1.2 8.5 9.1 8.8 9.4.2.2.2.5 0 .7-.2.1-.3.1-.4.1z"/><path d="M15 29.5C7 29.5.5 23 .5 15S7 .5 15 .5 29.5 7 29.5 15 23 29.5 15 29.5zm0-28C7.6 1.5 1.5 7.6 1.5 15S7.6 28.5 15 28.5 28.5 22.4 28.5 15 22.4 1.5 15 1.5z"/></svg>