<svg xmlns="http://www.w3.org/2000/svg" viewBox="0 0 30 30"><path d="M29.5 21H.5c-.3 0-.5-.2-.5-.5s.2-.5.5-.5h29c.3 0 .5.2.5.5s-.2.5-.5.5zM12.5 23h-5c-.3 0-.5-.2-.5-.5s.2-.5.5-.5h5c.3 0 .5.2.5.5s-.2.5-.5.5zM22.5 24h-5c-.3 0-.5-.2-.5-.5s.2-.5.5-.5h5c.3 0 .5.2.5.5s-.2.5-.5.5zM15.5 26h-4c-.3 0-.5-.2-.5-.5s.2-.5.5-.5h4c.3 0 .5.2.5.5s-.2.5-.5.5zM4.5 23c-.3 0-.5-.2-.5-.5s.2-.5.5-.5.5.2.5.5-.2.5-.5.5zM14.5 24c-.3 0-.5-.2-.5-.5s.2-.5.5-.5.5.2.5.5-.2.5-.5.5zM18.5 26c-.3 0-.5-.2-.5-.5s.2-.5.5-.5.5.2.5.5-.2.5-.5.5zM8.5 26c-.3 0-.5-.2-.5-.5s.2-.5.5-.5.5.2.5.5-.2.5-.5.5zM11.5 28c-.3 0-.5-.2-.5-.5s.2-.5.5-.5.5.2.5.5-.2.5-.5.5zM14.5 28c-.3 0-.5-.2-.5-.5s.2-.5.5-.5.5.2.5.5-.2.5-.5.5zM17.5 28c-.3 0-.5-.2-.5-.5s.2-.5.5-.5.5.2.5.5-.2.5-.5.5zM26.5 7c-.3 0-.5-.2-.5-.5 0-.1-.5-.5-1.9-.5H24c-.3 0-.5-.2-.5-.5s.2-.5.5-.5h.1c1.3 0 2 .3 2.4.6.4-.3 1.2-.6 2.5-.6.3 0 .5.2.5.5s-.2.5-.5.5c-1.5 0-2 .4-2 .6 0 .2-.2.4-.5.4zM13.5 5c-.3 0-.5-.2-.5-.5v-2c0-.3.2-.5.5-.5s.5.2.5.5v2c0 .3-.2.5-.5.5zM9.5 6.1c-.2 0-.3-.1-.4-.3l-1-1.7c-.2-.2-.1-.6.2-.7.2-.1.5-.1.7.2l1 1.7c.1.3 0 .6-.2.7-.1.1-.2.1-.3.1zM6.6 9c-.1 0-.2 0-.3-.1l-1.7-1c-.2-.1-.3-.4-.2-.6s.4-.3.7-.2l1.7 1c.3.1.3.4.2.7-.1.1-.3.2-.4.2zM22.2 18c-.1 0-.2 0-.3-.1l-1.7-1c-.2-.1-.3-.4-.2-.7s.4-.3.7-.2l1.7 1c.2.1.3.4.2.7-.1.2-.3.3-.4.3zM5.5 13h-2c-.3 0-.5-.2-.5-.5s.2-.5.5-.5h2c.3 0 .5.2.5.5s-.2.5-.5.5zM23.5 13h-2c-.3 0-.5-.2-.5-.5s.2-.5.5-.5h2c.3 0 .5.2.5.5s-.2.5-.5.5zM4.8 18c-.2 0-.3-.1-.4-.3-.1-.2-.1-.5.2-.7l1.7-1c.3-.1.6 0 .7.3.1.2.1.5-.2.7l-1.7 1h-.3zM20.4 9c-.2 0-.3-.1-.4-.3-.1-.2-.1-.5.2-.7l1.7-1c.2-.1.5-.1.7.2.1.2.1.5-.2.7l-1.7 1c-.1.1-.2.1-.3.1zM17.5 6.1c-.1 0-.2 0-.3-.1-.2-.1-.3-.4-.2-.7l1-1.7c.1-.2.4-.3.7-.2.2.1.3.4.2.7l-1 1.7c-.1.2-.2.3-.4.3zM13.5 18c-3 0-5.5-2.5-5.5-5.5S10.5 7 13.5 7 19 9.5 19 12.5 16.5 18 13.5 18zm0-10C11 8 9 10 9 12.5s2 4.5 4.5 4.5 4.5-2 4.5-4.5S16 8 13.5 8z"/></svg>