<svg xmlns="http://www.w3.org/2000/svg" viewBox="0 0 30 30"><path d="M26.3 27c-.3 0-.5-.2-.5-.5v-5c0-.3.2-.5.5-.5s.5.2.5.5v5c0 .2-.2.5-.5.5zM24.3 27c-.3 0-.5-.2-.5-.5v-1.8c0-.4-.3-.8-.8-.8h-2.5c-.4 0-.8.3-.8.8v1.8c0 .3-.2.5-.5.5s-.5-.2-.5-.5v-1.8c0-1 .8-1.8 1.8-1.8H23c1 0 1.8.8 1.8 1.8v1.8c0 .2-.2.5-.5.5z"/><path d="M24.3 26h-5c-.3 0-.5-.2-.5-.5s.2-.5.5-.5h5c.3 0 .5.2.5.5s-.2.5-.5.5zM13.8 24c-1.7 0-3-1.3-3-3s1.3-3 3-3 3 1.3 3 3-1.4 3-3 3zm0-5c-1.1 0-2 .9-2 2s.9 2 2 2 2-.9 2-2-.9-2-2-2zM19.1 16.2c-.1 0-.3 0-.4-.1-2.7-2.7-7.2-2.7-9.9 0-.2.2-.5.2-.7 0-.2-.2-.2-.5 0-.7 3.1-3.1 8.2-3.1 11.3 0 .2.2.2.5 0 .7-.1 0-.2.1-.3.1z"/><path d="M23.3 13c-.1 0-.3 0-.4-.1-5.1-5.1-13.3-5.1-18.4 0-.2.2-.5.2-.7 0s-.2-.5 0-.7c5.5-5.5 14.3-5.5 19.8 0 .2.2.2.5 0 .7 0 0-.1.1-.3.1z"/><path d="M26.9 9.4c-.1 0-.3 0-.4-.1-7-7-18.4-7-25.5 0-.2.2-.5.2-.7 0s-.2-.5 0-.7c7.4-7.4 19.5-7.4 26.9 0 .2.2.2.5 0 .7-.1.1-.2.1-.3.1z"/><g><path d="M26.3 22c-1.9 0-3.5-1.6-3.5-3.5s1.6-3.5 3.5-3.5 3.5 1.6 3.5 3.5-1.6 3.5-3.5 3.5zm0-6c-1.4 0-2.5 1.1-2.5 2.5s1.1 2.5 2.5 2.5 2.5-1.1 2.5-2.5-1.1-2.5-2.5-2.5z"/></g></svg>