<svg xmlns="http://www.w3.org/2000/svg" viewBox="0 0 30 30"><path d="M.5 30H.4c-.3-.1-.4-.3-.4-.6l.7-3c.3-1.4 1.4-2.6 2.7-3l5.9-1.9c1.4-.6 2-2.9 2.1-3.7-.9-.9-1.8-2.2-1.8-3.4 0-.5-.2-.7-.3-.8-.2 0-.3-.1-.3-.3 0-.1-.6-1.7-.6-2.7v-.1c.1-.3.3-.7.6-.9V6c0-2.5 2.1-6 5.9-6 3.6 0 4.6 1.9 4.7 2.8.6.3 1.4 1 1.4 3.2v3.6c.3.2.5.5.5.9 0 1.1-.6 2.7-.6 2.7-.1.2-.2.3-.3.3-.1 0-.2.2-.2.8 0 1.1-.4 1.7-.7 2l-.1.1c-.2.2-.5.3-.7.2-.2-.1-.3-.5-.2-.7 0-.1.1-.1.1-.2.2-.3.5-.6.5-1.4 0-.9.4-1.4.7-1.6.2-.5.5-1.5.5-2.2v-.1c-.3 0-.5-.2-.5-.5V6c0-1.9-.6-2.2-.9-2.4-.1-.1-.4-.2-.4-.5v-.2c-.1-.5-.8-1.9-3.8-1.9S10 3.9 10 6v4c0 .3-.2.5-.5.5 0 0-.1.1-.1.2 0 .6.3 1.6.5 2.1.3.2.7.7.7 1.6 0 .9.8 2.1 1.6 2.8.1.1.2.2.2.4 0 .8-.7 4-2.7 4.9l-5.9 1.9c-1 .4-1.8 1.2-2 2.3l-.7 3c-.2.1-.4.3-.6.3zM24.5 30h-.2c-.9-.4-5.3-2.6-5.3-4.5v-7c0-.2.1-.4.3-.5l5-2h.4l5 2c.2.1.3.3.3.5v7c0 1.9-4.4 4-5.3 4.5h-.2zM20 18.8v6.7c0 .9 2.6 2.5 4.5 3.4 2.2-1.1 4.5-2.6 4.5-3.4v-6.7L24.5 17 20 18.8z"/><path d="M24.5 23h-2c-.3 0-.5-.2-.5-.5V20c0-.2.1-.4.3-.4l2-1c.2-.1.3-.1.5 0 .1.1.2.3.2.4v3.5c0 .3-.2.5-.5.5zM23 22h1v-2.2l-1 .5V22z"/><path d="M24.5 26.5c-.1 0-.2 0-.3-.1-.1-.1-.2-.2-.2-.4v-3.5c0-.3.2-.5.5-.5h2c.3 0 .5.2.5.5v2c0 .1-.1.3-.2.4l-.2.2c-.4.4-.9.9-1.9 1.4h-.2zM25 23v2.1c.4-.3.7-.5.9-.8l.1-.1V23h-1z"/></svg>