<svg xmlns="http://www.w3.org/2000/svg" viewBox="0 0 30 30"><path d="M21.5 12h-14a.5.5 0 0 1 0-1h14a.5.5 0 0 1 0 1z"/><path d="M11.955 22a.5.5 0 0 1-.254-.931L14 19.714V11.5a.5.5 0 0 1 1 0V20a.502.502 0 0 1-.246.431l-2.545 1.5a.498.498 0 0 1-.254.069z"/><path d="M17.045 22a.495.495 0 0 1-.253-.069l-2.545-1.5a.5.5 0 1 1 .508-.862l2.545 1.5a.5.5 0 0 1-.255.931zM28.5 22a.5.5 0 0 1-.484-.377L26.838 17H21.91l-.919 4.598a.5.5 0 1 1-.98-.195l1-5A.498.498 0 0 1 21.5 16h5.727c.229 0 .428.155.484.377l1.273 5A.499.499 0 0 1 28.5 22z"/><path d="M27.228 17.272a.5.5 0 0 1-.495-.576l1.273-8.272a.5.5 0 1 1 .988.152l-1.273 8.272a.5.5 0 0 1-.493.424zM.5 22a.499.499 0 0 1-.485-.623l1.273-5A.5.5 0 0 1 1.773 16H7.5a.5.5 0 0 1 .49.402l1 5a.5.5 0 1 1-.98.195L7.09 17H2.162L.985 21.623A.5.5 0 0 1 .5 22z"/><path d="M1.772 17.272a.5.5 0 0 1-.494-.424L.006 8.576a.5.5 0 1 1 .988-.152l1.273 8.272a.5.5 0 0 1-.495.576zM8 20H1a.5.5 0 0 1 0-1h7a.5.5 0 0 1 0 1zM28 20h-7a.5.5 0 0 1 0-1h7a.5.5 0 0 1 0 1z"/></svg>