<svg xmlns="http://www.w3.org/2000/svg" viewBox="0 0 28 30"><path d="M24.5 26H24V15c1.7 0 3-1.3 3-3v-.2l-3-6.5V3c0-1.7-1.3-3-3-3H7C5.3 0 4 1.3 4 3v2.3l-3 6.5v.2c0 1.7 1.3 3 3 3v11h-.5C1.8 26 0 27.8 0 29.5c0 .3.2.5.5.5h27c.3 0 .5-.2.5-.5 0-1.7-1.8-3.5-3.5-3.5zM23.2 6l2.8 6.1c-.1 1.1-.9 1.9-2 1.9s-2-.9-2-2.1L21.1 6h2.1zm-2.7 10h-6c-.3 0-.5.2-.5.5V26H5V14.8c.6-.2 1.2-.6 1.5-1.1C7 14.5 7.9 15 9 15s2-.5 2.5-1.3c.5.8 1.4 1.3 2.5 1.3s2-.5 2.5-1.3c.5.8 1.4 1.3 2.5 1.3s2-.5 2.5-1.3c.4.5.9.9 1.5 1.1V26h-2v-9.5c0-.3-.2-.5-.5-.5zm-.5 1v9h-5v-9h5zM7 12.1L7.9 6H11v6c0 1.1-.9 2-2 2s-2-.9-2-1.9zm5-.1V6h4v6c0 1.1-.9 2-2 2s-2-.9-2-2zm5 0V6h3.1l.9 6c0 1.1-.9 2-2 2s-2-.9-2-2zM5 3c0-1.1.9-2 2-2h14c1.1 0 2 .9 2 2v2H5V3zm-3 9.1L4.8 6h2.1L6 12c0 1.1-.9 2-2 2s-1.9-.8-2-1.9zM1.1 29c.3-1 1.5-2 2.4-2h21c.9 0 2.1 1 2.4 2H1.1zm11.4-13h-5c-.3 0-.5.2-.5.5v5c0 .3.2.5.5.5h5c.3 0 .5-.2.5-.5v-5c0-.3-.2-.5-.5-.5zm-.5 5H8v-4h4v4z" fill-rule="evenodd" clip-rule="evenodd"/></svg>