<svg version="1.1" id="Layer_1" xmlns="http://www.w3.org/2000/svg" x="0" y="0" viewBox="0 0 30 30" xml:space="preserve"><style>.st0{fill:none;stroke:#000;stroke-linecap:round;stroke-linejoin:round;stroke-miterlimit:10}</style><path d="M22.5 28.5l-7-.5c-.3 0-.5-.3-.5-.5 0-.3.3-.5.5-.5l6.5.5V27c0-.3.2-.5.5-.5s.5.2.5.5v1c0 .1-.1.3-.2.4-.1.1-.2.1-.3.1zM7.2 27l-6.8-.5c-.1 0-.3-.1-.4-.2v-.4l3-20c0-.3.3-.4.5-.4l11 1c.3 0 .5.3.5.5s-.3.5-.5.5L4 6.5l-2.9 19 6.1.5c.3 0 .5.3.5.5 0 .3-.2.5-.5.5zM17.5 10.5c-.1 0-.3 0-.4-.1-.2-.2-.2-.5 0-.7L20.8 6c.2-.2.5-.2.7 0s.2.5 0 .7l-3.6 3.6c-.1.2-.3.2-.4.2z"/><path d="M7.5 28.5c-.3 0-.5-.2-.5-.4l-2-20c0-.3.2-.5.4-.5l15.7-1.8c.2 0 .3 0 .4.2.4.4.9.6 1.4.6.7 0 1.3-.4 1.7-1 .1-.1.2-.2.4-.2l2.4-.4c.1 0 .3 0 .4.1.1.1.2.2.2.4L30 26c0 .1 0 .3-.1.4s-.2.2-.3.2L7.5 28.5zM6 8.4l1.9 19 21-1.9-1.8-19.4-1.6.2C24.9 7 24 7.5 23 7.5c-.7 0-1.4-.3-2-.8L6 8.4z"/><g><path d="M23 7.5c-1.7 0-3-1.3-3-3s1.3-3 3-3 3 1.3 3 3-1.3 3-3 3zm0-5c-1.1 0-2 .9-2 2s.9 2 2 2 2-.9 2-2-.9-2-2-2z"/></g></svg>