<svg xmlns="http://www.w3.org/2000/svg" viewBox="0 0 30 30"><path d="M7 26.5c-.3 0-.5-.2-.5-.5 0-3.4-1.3-5.1-2.6-6.8-1.2-1.6-2.4-3.3-2.4-6.2 0-.3.2-.5.5-.5h23c1.9 0 4.5 0 4.5 2.5 0 4-8.3 10.6-8.7 10.9-.2.2-.5.1-.7-.1-.2-.2-.1-.5.1-.7 2.3-1.8 8.3-7.2 8.3-10.1 0-1.2-.8-1.5-3.5-1.5H2.5c.1 2.3 1.2 3.7 2.2 5.1C6 20.3 7.5 22.3 7.5 26c0 .3-.2.5-.5.5z"/><path d="M20 26.5c-.3 0-.5-.2-.5-.5 0-3.7 1.5-5.7 2.8-7.4 1.2-1.5 2.2-3 2.2-5.6 0-.3.2-.5.5-.5s.5.2.5.5c0 2.9-1.2 4.6-2.4 6.2-1.3 1.7-2.6 3.4-2.6 6.8 0 .3-.2.5-.5.5zM8 9.5c-.1 0-.3 0-.4-.1-.2-.2-.2-.5 0-.7 1.3-1.3.9-2.3.4-3.5-.5-1.3-1.1-2.8.6-4.6.2-.2.5-.2.7 0s.2.5 0 .7C8.1 2.6 8.5 3.6 9 4.8c.5 1.3 1.1 2.8-.6 4.5-.1.2-.3.2-.4.2zM13 9.5c-.1 0-.3 0-.4-.1-.2-.2-.2-.5 0-.7 1.3-1.3.9-2.2.4-3.5-.5-1.3-1.1-2.8.6-4.5.2-.2.5-.2.7 0s.2.5 0 .7c-1.3 1.3-.9 2.2-.4 3.5.5 1.3 1.1 2.8-.6 4.5 0 .1-.2.1-.3.1zM18 9.5c-.1 0-.3 0-.4-.1-.2-.2-.2-.5 0-.7 1.3-1.3.9-2.2.4-3.5-.5-1.3-1.1-2.8.6-4.5.2-.2.5-.2.7 0s.2.5 0 .7c-1.3 1.3-.9 2.2-.4 3.5.5 1.3 1.1 2.8-.6 4.5 0 .1-.2.1-.3.1z"/><path d="M25.3 29.5H3.7C1.9 29.5.5 27.9.5 26c0-.3.2-.5.5-.5h27c.3 0 .5.2.5.5 0 1.9-1.4 3.5-3.2 3.5zm-23.8-3c.2 1.1 1.1 2 2.2 2h21.6c1.1 0 2-.9 2.2-2h-26z"/></svg>