<svg xmlns="http://www.w3.org/2000/svg" viewBox="0 0 30 30"><path d="M8 6c-.2 0-.3-.1-.4-.2-.2-.3-.1-.6.1-.7.6-.4.5-.8-.1-1.9-.5-.9-1.3-2.2.1-3.1.3-.2.6-.1.7.1.2.2.1.5-.1.7-.6.4-.5.7.1 1.8.6.9 1.4 2.2-.1 3.2-.1.1-.2.1-.3.1zM13 6c-.2 0-.3-.1-.4-.2-.2-.2-.1-.5.1-.7.6-.4.5-.8-.1-1.9-.5-.9-1.3-2.2.1-3.1.3-.2.6-.1.7.1.2.2.1.5-.1.7-.6.4-.5.7.2 1.8.5.9 1.3 2.2-.2 3.2-.1.1-.2.1-.3.1zM18 6c-.2 0-.3-.1-.4-.2-.2-.2-.1-.5.1-.7.6-.4.5-.8-.1-1.9-.5-.9-1.3-2.2.1-3.1.2-.2.5-.1.7.1.2.2.1.5-.1.7-.6.4-.5.7.2 1.8.5.9 1.3 2.2-.2 3.2-.1.1-.2.1-.3.1zM18 30H7.8c-2.3 0-4.3-1.9-4.3-4.3V7.5c0-.3.2-.5.5-.5h18c.3 0 .5.2.5.5v18c0 2.4-2.1 4.5-4.5 4.5zM4.5 8v17.8C4.5 27.5 6 29 7.8 29H18c1.8 0 3.5-1.7 3.5-3.5V8h-17z"/><path d="M23.5 21H22c-.3 0-.5-.2-.5-.5s.2-.5.5-.5h1.5c.6 0 2-.1 2-1.5V14c0-.6-.1-2-1.5-2h-2c-.3 0-.5-.2-.5-.5s.2-.5.5-.5h2c1.5 0 2.5 1.2 2.5 3v4.5c0 1.5-1.2 2.5-3 2.5zM9 15c-.3 0-.5-.2-.5-.5v-7c0-.3.2-.5.5-.5s.5.2.5.5v7c0 .3-.2.5-.5.5z"/><path d="M11 20H7c-.3 0-.5-.2-.5-.5v-4c0-.1.1-.3.1-.4l1-1c.1 0 .3-.1.4-.1h2c.1 0 .3.1.4.1l1 1c.1.1.1.2.1.4v4c0 .3-.2.5-.5.5zm-3.5-1h3v-3.3l-.7-.7H8.2l-.7.7V19z"/></svg>