<svg xmlns="http://www.w3.org/2000/svg" viewBox="0 0 30 30"><path d="M14.496 16a.501.501 0 0 1-.367-.161l-11.996-13a.5.5 0 1 1 .734-.678l11.629 12.602L26.133 2.161a.5.5 0 0 1 .734.679l-12.004 13a.499.499 0 0 1-.367.16z"/><path d="M14.5 5C13.221 5 2 4.93 2 2.5S13.221 0 14.5 0 27 .07 27 2.5 15.779 5 14.5 5zM3.032 2.5C3.551 3.04 7.333 4 14.5 4s10.949-.96 11.468-1.5C25.449 1.96 21.667 1 14.5 1S3.551 1.96 3.032 2.5zm22.98.056h.01-.01zM14.5 26a.5.5 0 0 1-.5-.5v-10a.5.5 0 0 1 1 0v10a.5.5 0 0 1-.5.5z"/><path d="M14.5 30c-1.169 0-7-.088-7-1.833 0-.203.123-.386.311-.462l6.5-2.667a.498.498 0 0 1 .379 0l6.5 2.667a.5.5 0 0 1 .311.462C21.5 29.912 15.669 30 14.5 30zm-5.625-1.652c.773.269 2.679.652 5.625.652 2.868 0 4.75-.363 5.572-.674L14.5 26.041l-5.625 2.307zM14.5 11c-2.229 0-6-.421-6-2s3.771-2 6-2 6 .421 6 2-3.771 2-6 2zm0-3c-3.021 0-4.863.665-5.003 1.021.14.314 1.982.979 5.003.979 2.963 0 4.791-.639 4.993-1-.202-.361-2.03-1-4.993-1zm5.003 1.021h.01-.01z"/></svg>