<svg xmlns="http://www.w3.org/2000/svg" viewBox="0 0 30 30"><path d="M9 9c-.1 0-.2 0-.3-.1-.2-.1-.3-.4-.1-.7.9-1.3.5-2.2-.1-3.4C8 3.5 7.3 2.1 8.6.2c.1-.2.4-.3.7-.1.2.2.3.5.1.7-.9 1.4-.5 2.4 0 3.6.5 1.2 1.2 2.6 0 4.4-.1.1-.2.2-.4.2zM14 9c-.1 0-.2 0-.3-.1-.2-.2-.3-.5-.1-.7.9-1.3.5-2.3-.1-3.4-.6-1.3-1.2-2.7.1-4.6.1-.2.4-.3.7-.1.2.2.3.5.1.7-.9 1.4-.5 2.4 0 3.6.5 1.2 1.2 2.6 0 4.4-.1.1-.2.2-.4.2zM19 9c-.1 0-.2 0-.3-.1-.2-.2-.3-.5-.1-.7.9-1.3.5-2.3-.1-3.4-.6-1.3-1.2-2.7.1-4.6.2-.2.5-.3.7-.1.2.2.3.5.1.7-.9 1.4-.5 2.4 0 3.6.5 1.2 1.2 2.6 0 4.4-.1.1-.2.2-.4.2zM26.5 27h-23c-1.7 0-3-1.3-3-3V13c0-1.7 1.3-3 3-3h23c1.7 0 3 1.3 3 3v11c0 1.7-1.3 3-3 3zm-23-16c-1.1 0-2 .9-2 2v11c0 1.1.9 2 2 2h23c1.1 0 2-.9 2-2V13c0-1.1-.9-2-2-2h-23z"/><path d="M5 25c-.3 0-.5-.2-.5-.5v-12c0-.3.2-.5.5-.5s.5.2.5.5v12c0 .3-.2.5-.5.5zM9 25c-.3 0-.5-.2-.5-.5v-12c0-.3.2-.5.5-.5s.5.2.5.5v12c0 .3-.2.5-.5.5zM13 25c-.3 0-.5-.2-.5-.5v-12c0-.3.2-.5.5-.5s.5.2.5.5v12c0 .3-.2.5-.5.5zM17 25c-.3 0-.5-.2-.5-.5v-12c0-.3.2-.5.5-.5s.5.2.5.5v12c0 .3-.2.5-.5.5zM21 25c-.3 0-.5-.2-.5-.5v-12c0-.3.2-.5.5-.5s.5.2.5.5v12c0 .3-.2.5-.5.5zM25 25c-.3 0-.5-.2-.5-.5v-12c0-.3.2-.5.5-.5s.5.2.5.5v12c0 .3-.2.5-.5.5zM6 30c-.3 0-.5-.2-.5-.5V27c0-.3.2-.5.5-.5s.5.2.5.5v2.5c0 .3-.2.5-.5.5zM23 30c-.3 0-.5-.2-.5-.5V27c0-.3.2-.5.5-.5s.5.2.5.5v2.5c0 .3-.2.5-.5.5z"/></svg>