<svg xmlns="http://www.w3.org/2000/svg" viewBox="0 0 30 30"><path d="M14.665 11.872a.504.504 0 0 0 .67 0C15.371 11.839 19 8.421 19 6.601c0-1.433-1.166-2.6-2.6-2.6-.497 0-.982.146-1.4.417a2.573 2.573 0 0 0-1.4-.417 2.602 2.602 0 0 0-2.6 2.6c0 1.82 3.629 5.238 3.665 5.271zM13.6 5c.388 0 .767.148 1.065.417a.502.502 0 0 0 .67 0A1.588 1.588 0 0 1 16.4 5c.882 0 1.6.718 1.6 1.6 0 .943-1.988 3.202-3 4.208-1.012-1.005-3-3.265-3-4.208 0-.882.718-1.6 1.6-1.6zM26 17c0-1.103-.897-2-2-2h-2.454C22.547 13.1 25 7.945 25 3c0-1.654-1.36-3-3.033-3H8.033C6.36 0 5 1.346 5 3c0 4.945 2.453 10.1 3.454 12H6c-1.103 0-2 .897-2 2s.897 2 2 2h3.138l-3.571 6.253A2.982 2.982 0 0 0 5 27c0 1.654 1.346 3 3 3a2.991 2.991 0 0 0 2.874-2.178.463.463 0 0 0 .021-.056L13.378 19h3.243l2.483 8.766a.922.922 0 0 0 .02.056A2.994 2.994 0 0 0 22 30c1.654 0 3-1.346 2.999-3 0-.625-.195-1.229-.539-1.704L20.861 19H24c1.103 0 2-.897 2-2zM6 3c0-1.103.912-2 2.033-2h13.934C23.088 1 24 1.897 24 3c0 5.159-2.916 10.769-3.593 12H9.593C8.916 13.769 6 8.159 6 3zm3.95 24.431a.846.846 0 0 0-.024.071A1.994 1.994 0 0 1 8 29c-1.103 0-2-.897-2-2 0-.416.131-.818.406-1.208L10.29 19h2.049L9.95 27.431zm13.67-1.593c.249.346.38.747.38 1.163 0 1.103-.897 2-2 2a1.994 1.994 0 0 1-1.926-1.498.413.413 0 0 0-.024-.07L17.661 19h2.049l3.91 6.838zM6 18a1.001 1.001 0 0 1 0-2h18a1.001 1.001 0 0 1 0 2H6z"/></svg>