<svg xmlns="http://www.w3.org/2000/svg" viewBox="0 0 30 30"><path d="M7.013 27.999c-.266 0-.535-.059-.784-.183L.975 25.209a1.745 1.745 0 0 1-.587-2.662l4.778-5.382a.483.483 0 0 1 .172-.125l11.18-4.932 4.847-9.15a1.762 1.762 0 0 1 2.354-.773l5.306 2.633c.422.209.736.569.885 1.015a1.73 1.73 0 0 1-.097 1.336l-.005.009-4.928 9.302a.502.502 0 0 1-.24.224l-11.239 4.957-5.028 5.7a1.75 1.75 0 0 1-1.36.638zM5.841 17.911l-4.69 5.282a.747.747 0 0 0 .269 1.12l5.254 2.607a.772.772 0 0 0 .936-.203l5.115-5.799a.492.492 0 0 1 .173-.127l11.18-4.931 4.844-9.146a.75.75 0 0 0-.34-1.001L23.275 3.08a.766.766 0 0 0-1.021.336l-4.933 9.313a.502.502 0 0 1-.24.224l-11.24 4.958zM29.367 6.943h.01-.01z"/><path d="M14.359 25.499a.496.496 0 0 1-.222-.052l-3.178-1.577a.5.5 0 1 1 .444-.896l2.098 1.041-.876-2.608a.5.5 0 1 1 .948-.318l1.26 3.751a.5.5 0 0 1-.474.659zM25.699 20.498a.496.496 0 0 1-.222-.052l-4.595-2.28a.5.5 0 1 1 .444-.896l3.515 1.744-.876-2.608a.5.5 0 1 1 .948-.318l1.26 3.751a.5.5 0 0 1-.474.659z"/></svg>