<svg xmlns="http://www.w3.org/2000/svg" viewBox="0 0 30 30"><path d="M29.495 6.714a4.113 4.113 0 0 0-3.69-2.214H13.209c-1.544 0-3.02.654-4.075 1.825l-7.8 10.126a6.009 6.009 0 0 0-1.108 2.252A4.426 4.426 0 0 0 .013 20v1.329c0 .079.022.152.055.218.274 2.221 2.151 3.953 4.445 3.953h12.5a.48.48 0 0 0 .24-.07 5.442 5.442 0 0 0 3.653-2.268l8.362-12.133a4.182 4.182 0 0 0 .227-4.315zm-1.053 3.752l-8.359 12.128a4.444 4.444 0 0 1-3.656 1.906H4.513c-1.93 0-3.5-1.57-3.5-3.5v-.804c0-.422.072-.837.178-1.243.447-1.416 1.759-2.453 3.322-2.453h11c1.379 0 2.5 1.122 2.5 2.5s-1.121 2.5-2.5 2.5h-10.5a1.001 1.001 0 0 1 0-2h10.5a.5.5 0 0 0 0-1h-10.5c-1.103 0-2 .897-2 2s.897 2 2 2h10.5c1.93 0 3.5-1.57 3.5-3.5s-1.57-3.5-3.5-3.5h-11c-.479 0-.931.095-1.365.234l6.753-8.769A4.462 4.462 0 0 1 13.209 5.5h12.596c1.198 0 2.248.629 2.807 1.683a3.146 3.146 0 0 1-.17 3.283z"/></svg>