<svg xmlns="http://www.w3.org/2000/svg" viewBox="0 0 30 30"><path d="M11.6 11c-.1 0-.2 0-.3-.1-.2-.1-.2-.3-.2-.5l.6-3.5-2.3-2.3c-.1-.1-.2-.3-.1-.5s.2-.3.4-.3l3.5-.6L14.3.3c.2-.4.8-.4.9 0l1.1 2.9 3.5.6c.2 0 .3.2.4.3.1.2 0 .4-.1.5l-2.4 2.3.7 3.5c0 .2 0 .4-.2.5-.2.1-.4.1-.5 0l-2.9-1.7-2.9 1.7c-.1.1-.2.1-.3.1zm-.8-6.4l1.8 1.8c.1.1.2.3.1.4l-.4 2.7 2.2-1.3c.2-.1.4-.1.5 0l2.2 1.3-.5-2.7c0-.2 0-.3.1-.5l1.9-1.8-2.8-.5c-.2 0-.3-.1-.4-.3l-.8-2-.8 2c-.1.2-.2.3-.4.3l-2.7.6zM27.3 11c-.1 0-.2 0-.3-.1l-2.2-1.7-2.2 1.7c-.2.1-.4.1-.6 0-.2-.1-.3-.3-.2-.5l.6-2.9-1.7-1.7c-.1-.1-.2-.4-.1-.5 0-.2.2-.3.4-.3h2.2l1.1-2.2c.2-.3.7-.3.9 0L26.3 5h2.2c.2 0 .4.1.5.3.1.2 0 .4-.1.5l-1.7 1.7.6 2.9c0 .2 0 .4-.2.5-.2.1-.3.1-.3.1zm-2.5-2.9c.1 0 .2 0 .3.1l1.5 1.1-.4-1.8c0-.2 0-.3.1-.5l1-1H26c-.2 0-.4-.1-.4-.3l-.8-1.6-.8 1.6c-.1.2-.3.3-.5.3h-1.3l1 1c.1.1.2.3.1.5L23 9.3l1.5-1.1c0-.1.1-.1.3-.1zM7.3 11c-.2 0-.3 0-.3-.1L4.8 9.2l-2.2 1.7c-.2.1-.4.1-.6 0-.2-.1-.3-.3-.2-.5l.6-2.9L.6 5.8c-.1-.1-.1-.3-.1-.5.1-.2.3-.3.5-.3h2.2l1.1-2.2c.2-.3.7-.3.9 0L6.3 5h2.2c.2 0 .4.1.5.3 0 .2 0 .4-.1.5L7.2 7.5l.6 2.9c0 .2 0 .4-.2.5-.2.1-.3.1-.3.1zM4.8 8.1c.1 0 .2 0 .3.1l1.5 1.1-.5-1.8c0-.2 0-.3.1-.5l1-1H6c-.2 0-.4-.1-.4-.3l-.8-1.6-.9 1.6c0 .2-.2.3-.4.3H2.2l1 1c.1.1.2.3.1.5L3 9.3l1.5-1.1c0-.1.1-.1.3-.1zM29 30h-3c-.3 0-.5-.2-.5-.5V26h-21v3.5c0 .3-.2.5-.5.5H1c-.3 0-.5-.2-.5-.5V14c0-1.1.9-2 2-2s2 .9 2 2v8h21v-5c0-1.1.9-2 2-2s2 .9 2 2v12.5c0 .3-.2.5-.5.5zm-2.5-1h2V17c0-.6-.4-1-1-1s-1 .4-1 1v5.5c0 .3-.2.5-.5.5H4c-.3 0-.5-.2-.5-.5V14c0-.6-.4-1-1-1s-1 .4-1 1v15h2v-3.5c0-.3.2-.5.5-.5h22c.3 0 .5.2.5.5V29z"/><path d="M8.5 21H6c-.3 0-.5-.2-.5-.5s.2-.5.5-.5h2.5c1.1 0 2-.9 2-2v-1.5c0-.3.2-.5.5-.5s.5.2.5.5V18c0 1.6-1.3 3-3 3z"/><g><path d="M24 21H13c-.3 0-.5-.2-.5-.5v-4c0-.3.2-.5.5-.5h8.5c1.7 0 3 1.3 3 3v1.5c0 .3-.2.5-.5.5zm-10.5-1h10v-1c0-1.1-.9-2-2-2h-8v3z"/></g><g><path d="M7.5 19c-1.1 0-2-.9-2-2s.9-2 2-2 2 .9 2 2-.9 2-2 2zm0-3c-.6 0-1 .4-1 1s.4 1 1 1 1-.4 1-1-.4-1-1-1z"/></g></svg>