<svg xmlns="http://www.w3.org/2000/svg" viewBox="0 0 30 30"><path d="M17.805 30h-5.044C11.79 30 11 29.21 11 28.239V11.033c0-1.098.703-2.159 1.79-2.703l.591-.233c.317-.16.619-.472.619-.662V.5a.5.5 0 0 1 .5-.5h2a.5.5 0 0 1 .5.5v6.935c0 .231.236.524.551.681l.517.196C19.052 8.8 20 9.818 20 11.033v17.206C20 29.298 18.679 30 17.805 30zM15 1v6.435c0 .716-.653 1.296-1.213 1.575l-.591.233c-.699.352-1.196 1.079-1.196 1.79v17.206c0 .42.341.761.761.761h5.044c.513 0 1.195-.434 1.195-.761V11.033c0-.784-.692-1.487-1.335-1.808l-.517-.196C16.595 8.755 16 8.19 16 7.435V1h-1z"/><path d="M16.5 4h-2a.5.5 0 0 1 0-1h2a.5.5 0 0 1 0 1zM19.5 22h-8a.5.5 0 0 1-.5-.5v-5.239a.5.5 0 0 1 .375-.484c.103-.026 2.53-.646 4.125-.646 1.61 0 4.023.62 4.125.646a.5.5 0 0 1 .375.484V21.5a.5.5 0 0 1-.5.5zM12 21h7v-4.346c-.73-.171-2.372-.523-3.5-.523-1.119 0-2.767.353-3.5.524V21zM5.5 25C3.061 25 1 23.023 1 20.684V19.5a.5.5 0 0 1 .5-.5h8a.5.5 0 0 1 .5.5v1.184C10 23.023 7.939 25 5.5 25zM2 20v.684C2 22.451 3.636 24 5.5 24S9 22.451 9 20.684V20H2z"/><path d="M5.5 30a.5.5 0 0 1-.5-.5v-5a.5.5 0 0 1 1 0v5a.5.5 0 0 1-.5.5z"/><path d="M7.5 30h-4a.5.5 0 0 1 0-1h4a.5.5 0 0 1 0 1zM25.5 25c-2.439 0-4.5-1.977-4.5-4.316V19.5a.5.5 0 0 1 .5-.5h8a.5.5 0 0 1 .5.5v1.184C30 23.023 27.939 25 25.5 25zM22 20v.684C22 22.451 23.636 24 25.5 24s3.5-1.549 3.5-3.316V20h-7z"/><path d="M25.5 30a.5.5 0 0 1-.5-.5v-5a.5.5 0 0 1 1 0v5a.5.5 0 0 1-.5.5z"/><path d="M27.5 30h-4a.5.5 0 0 1 0-1h4a.5.5 0 0 1 0 1z"/></svg>