<svg xmlns="http://www.w3.org/2000/svg" viewBox="0 0 30 30"><path d="M28.018 2.01c-2.638-2.633-6.933-2.633-9.572 0L1.982 18.437A6.705 6.705 0 0 0 0 23.213c0 1.805.704 3.501 1.983 4.777a6.753 6.753 0 0 0 4.786 1.975 6.755 6.755 0 0 0 4.785-1.975l16.463-16.427A6.706 6.706 0 0 0 30 6.787a6.71 6.71 0 0 0-1.982-4.777zM2.69 19.145L19.152 2.718a5.743 5.743 0 0 1 2.967-1.576L4.146 19.115a.486.486 0 0 0-.121.222c-1.196.623-2.29 1.753-2.945 3.052a5.692 5.692 0 0 1 1.61-3.244zm24.62-8.29L10.847 27.282a5.785 5.785 0 0 1-8.158 0 5.764 5.764 0 0 1-1.133-1.642c-.002-.01.001-.02-.002-.031-.584-2.176 1.53-5.036 3.594-5.664.841-.257 1.805-.129 2.583.339.684.413 1.139 1.044 1.28 1.776.123.637-.051 1.335-.476 1.915-.413.563-.992.925-1.591.995-.655.085-1.69-.633-1.96-1.633a.5.5 0 0 0-.965.26c.417 1.554 1.941 2.498 3.04 2.367.874-.101 1.706-.61 2.281-1.396.589-.804.827-1.786.652-2.695-.195-1.015-.815-1.882-1.747-2.444a4.307 4.307 0 0 0-2.403-.596L23.354 1.322a.491.491 0 0 0 .129-.264c1.393.06 2.769.601 3.828 1.66A5.716 5.716 0 0 1 29 6.787a5.704 5.704 0 0 1-1.69 4.068z"/></svg>