<svg xmlns="http://www.w3.org/2000/svg" viewBox="0 0 30 30"><path d="M28 1.5c-.929 0-1.705.64-1.929 1.5h-1.397C23.976 1.416 22.222.5 20.5.5H8.065C6.584.5 5.355 1.581 5.099 3h-1.17c-.224-.86-1-1.5-1.929-1.5-1.103 0-2 .897-2 2s.897 2 2 2c.929 0 1.705-.64 1.929-1.5H5v12a.5.5 0 0 0 .5.5H10V29a.5.5 0 0 0 .5.5h14a.5.5 0 0 0 .5-.5V4.5c0-.176-.036-.334-.058-.5h1.129c.224.86 1 1.5 1.929 1.5 1.103 0 2-.897 2-2s-.897-2-2-2zm-26 3a1.001 1.001 0 0 1 0-2 1.001 1.001 0 0 1 0 2zm6.065-3c.934 0 1.667.619 1.872 1.5H6.126c.238-.862 1.013-1.5 1.939-1.5zM10 15.5H6v-2h4v2zm0-3H6V4h4v8.5zm14 16H11v-3h13v3zm0-4H11v-3.691l1.276.638c.119.06.257.07.382.027l2.804-.934 1.814.907a.505.505 0 0 0 .381.026l2.804-.934 1.814.907a.488.488 0 0 0 .345.038l1.38-.345V24.5zm0-4.391l-1.442.36-1.835-.917a.497.497 0 0 0-.382-.027l-2.804.934-1.814-.907a.497.497 0 0 0-.382-.027l-2.804.934L11 19.69V3.5c0-.775-.273-1.473-.729-2H20.5c1.721 0 3.5 1.122 3.5 3v15.609zM28 4.5a1.001 1.001 0 0 1 0-2 1.001 1.001 0 0 1 0 2z"/></svg>