<svg xmlns="http://www.w3.org/2000/svg" viewBox="0 0 30 30"><path d="M23.5 23.5h-20c-.3 0-.5-.2-.5-.5v-3c0-.3.2-.5.5-.5s.5.2.5.5v2.5h19v-17h-2.5c-.3 0-.5-.2-.5-.5s.2-.5.5-.5h3c.3 0 .5.2.5.5v18c0 .3-.2.5-.5.5z"/><path d="M26.5 26.5h-20c-.3 0-.5-.2-.5-.5v-3c0-.3.2-.5.5-.5s.5.2.5.5v2.5h19v-17h-2.5c-.3 0-.5-.2-.5-.5s.2-.5.5-.5h3c.3 0 .5.2.5.5v18c0 .3-.2.5-.5.5z"/><path d="M29.5 29.5h-20c-.3 0-.5-.2-.5-.5v-3c0-.3.2-.5.5-.5s.5.2.5.5v2.5h19v-15h-2.5c-.3 0-.5-.2-.5-.5s.2-.5.5-.5h3c.3 0 .5.2.5.5v16c0 .3-.2.5-.5.5z"/><path d="M20.4 20.5c-.2 0-.4-.1-.5-.3L14.4 7.1l-4 7.1c-.1.1-.2.2-.3.2-.1 0-.3 0-.4-.1l-3.1-2.6-5.7 8.5c-.2.2-.5.3-.7.1-.2 0-.3-.3-.1-.6l6-9c.1-.1.2-.2.3-.2.1 0 .3 0 .4.1l3 2.6L14 5.7c.1-.2.3-.3.5-.3s.4.1.4.3l5.9 14c.1.3 0 .5-.3.7 0 .1 0 .1-.1.1z"/><path d="M20.5 20.5H.5c-.3 0-.5-.2-.5-.5V1C0 .7.2.5.5.5h20c.3 0 .5.2.5.5v19c0 .3-.2.5-.5.5zM1 19.5h19v-18H1v18z"/><path d="M6.5 8.5C5.1 8.5 4 7.4 4 6s1.1-2.5 2.5-2.5S9 4.6 9 6 7.9 8.5 6.5 8.5zm0-4C5.7 4.5 5 5.2 5 6s.7 1.5 1.5 1.5S8 6.8 8 6s-.7-1.5-1.5-1.5z"/></svg>