<svg xmlns="http://www.w3.org/2000/svg" viewBox="0 0 30 30"><path d="M8.5 20H1.7c-.3 0-.5-.2-.5-.5s.3-.5.5-.5h6.2c-.3-1-1.5-2-2.4-2H2c-.3 0-.5-.2-.5-.5s.2-.5.5-.5h3.5C7.2 16 9 17.8 9 19.5c0 .3-.2.5-.5.5zM18.5 21h-7c-.2 0-.4-.2-.5-.4l-1-4c0-.1 0-.3.1-.4.1-.1.2-.2.4-.2h9c.2 0 .3.1.4.2.1.1.1.3.1.4l-1 4c-.1.2-.3.4-.5.4zm-6.6-1h6.2l.8-3h-7.7l.7 3zM3.5 13.5h-.1C1.8 13.1 0 12.4 0 11.4c0-.8.3-1.4.8-1.8C1.7 8.8 3 9 3.1 9c.2 0 .3.1.4.3l1.2 2.5c.1.2.1.4 0 .5l-.7 1c-.2.1-.3.2-.5.2zM2.6 10c-.3 0-.8.1-1.2.3-.3.2-.4.6-.4 1.1.1.2 1.2.7 2.3 1l.4-.5-1-2-.1.1z"/><path d="M26.7 25c-.1 0-.3 0-.4-.1-.2-.2-.2-.5 0-.7.8-.8 1.6-3 1.6-5.1 0-2.2-.8-5.1-2.3-6.6-.1-.1-.1-.1-.1-.2-.9-2.9-3.7-6.2-4.7-6.7C19.7 5 9.9 5 8.7 5.6 7.7 6 5.8 9.2 5 12.1c0 .1-.1.2-.1.2C3.3 13.9 2 16.9 2 19c0 1.3 0 4.3.9 5.1.2.2.2.5 0 .7s-.5.2-.7 0c-1-.9-1.1-3-1.1-5.9 0-2.4 1.3-5.5 3.1-7.3.8-2.8 2.6-6.3 4.1-7 1.4-.7 11.6-.7 12.9 0 1.4.7 4.3 4.2 5.2 7.2 1.8 1.8 2.6 5 2.6 7.3s-.8 4.8-1.9 5.9h-.4z"/><path d="M15 26c-3.6 0-8.5-.5-8.6-.5-.2 0-.4-.3-.4-.5s.3-.5.5-.4c0 0 4.9.5 8.4.5s7.9-.4 8-.4c.2 0 .5.2.5.5s-.2.5-.5.5c.1-.1-4.3.3-7.9.3zM15 13.5c-2.7 0-10.5-1-10.8-1-.3 0-.5-.3-.4-.6 0-.3.3-.5.6-.4.1 0 8.1 1 10.7 1s10.4-1 10.4-1c.3 0 .5.2.6.4 0 .3-.2.5-.4.6-.5 0-8 1-10.7 1zM28.5 20h-7c-.3 0-.5-.2-.5-.5 0-1.7 1.8-3.5 3.5-3.5H28c.3 0 .5.2.5.5s-.2.5-.5.5h-3.5c-.9 0-2.1 1-2.4 2h6.4c.3 0 .5.2.5.5s-.2.5-.5.5z"/><path d="M26.7 13.1c-.1 0-.2 0-.2-.1l-1.3-.6-.3-.3c0-.1 0-.3.1-.4l1.5-2.5c.1-.1.3-.2.4-.2.1 0 1.4-.2 2.3.6.5.4.8 1.1.8 1.9 0 1.1-2 1.5-3.3 1.6.1 0 .1 0 0 0zm-.5-1.3l.6.3c1-.1 2-.4 2.2-.7 0-.5-.1-.8-.4-1.1-.4-.3-1-.4-1.3-.4l-1.1 1.9zM19.5 5c-.2 0-.4-.1-.4-.3L17.7 2h-5.4l-1.4 2.7c-.1.2-.4.3-.7.2-.2-.1-.3-.4-.1-.6l1.5-3c0-.2.2-.3.4-.3h6c.2 0 .4.1.4.3l1.5 3c.1.2 0 .5-.2.7h-.2z"/><g><path d="M6.5 25.5L2.4 25c-.2 0-.4-.3-.4-.6 0-.2.3-.4.6-.4l4 .5c.3 0 .5.3.4.6 0 .2-.3.4-.5.4z"/></g><g><path d="M23 25.6c-.2 0-.5-.2-.5-.4 0-.3.1-.5.4-.6l3.8-.6c.3 0 .5.1.6.4s-.1.5-.4.6l-3.9.6c.1 0 0 0 0 0z"/></g><g><path d="M5 29H4c-1.1 0-2-.9-2-2v-2.5c0-.3.2-.5.5-.5s.5.2.5.5V27c0 .6.4 1 1 1h1c.6 0 1-.4 1-1v-2c0-.3.2-.5.5-.5s.5.2.5.5v2c0 1.1-.9 2-2 2z"/></g><g><path d="M25.5 29h-1c-1.1 0-2-.9-2-2v-1.5c0-.3.2-.5.5-.5s.5.2.5.5V27c0 .6.4 1 1 1h1c.6 0 1-.4 1-1v-2.5c0-.3.2-.5.5-.5s.5.2.5.5V27c0 1.1-.9 2-2 2z"/></g></svg>