<svg xmlns="http://www.w3.org/2000/svg" viewBox="0 0 30 30"><path d="M10.4 30c-1.7 0-3-1.3-3-3s1.3-3 3-3 3 1.3 3 3-1.4 3-3 3zm0-5c-1.1 0-2 .9-2 2s.9 2 2 2 2-.9 2-2-.9-2-2-2zM23.4 30c-1.7 0-3-1.3-3-3s1.3-3 3-3 3 1.3 3 3-1.4 3-3 3zm0-5c-1.1 0-2 .9-2 2s.9 2 2 2 2-.9 2-2-.9-2-2-2zM25.4 23H11c-2 0-3.8-1.5-4.2-3.5L3.7 4H.5C.2 4 0 3.8 0 3.5S.2 3 .5 3h3.6c.2 0 .4.2.5.4l3.1 15.9C8.1 20.9 9.4 22 11 22h14.4c.3 0 .5.2.5.5s-.2.5-.5.5z"/><path d="M7.4 20c-.2 0-.4-.2-.5-.4l-2.5-12c0-.1 0-.3.1-.4.1-.2.2-.2.4-.2h10.7c.3 0 .5.2.5.5s-.3.5-.5.5H5.5l2.3 10.9L26 16.6l1-3.3c.1-.3.4-.4.6-.3.3.1.4.4.3.6l-1.1 3.6c-.1.2-.2.3-.4.3L7.4 20c.1 0 0 0 0 0z"/><g><path d="M26.5 13c-.1 0-.2 0-.3-.1L23 10.6l-3.2 2.3c-.2.1-.4.1-.6 0-.2-.1-.3-.3-.2-.5l.8-3.8-3.7-2.7c-.1-.1-.1-.4-.1-.6.1-.2.3-.3.5-.3h4.6L22.5.4c.1-.4.8-.4 1 0L24.9 5h4.6c.2 0 .4.1.5.4s0 .4-.2.6l-3.9 2.7 1.1 3.8c.1.2 0 .4-.2.6-.1-.2-.2-.1-.3-.1zM18 6l2.7 2c.2.1.2.3.2.5l-.6 2.8 2.4-1.7c.2-.1.4-.1.6 0l2.3 1.7-.8-2.7c-.1-.2 0-.4.2-.6l2.9-2h-3.4c-.2 0-.4-.1-.5-.4l-1-3.4-1 3.4c-.1.2-.3.4-.5.4H18z"/></g></svg>