<svg xmlns="http://www.w3.org/2000/svg" viewBox="0 0 24 24"><path d="M11 7.001c.814 0 1.622.064 2.401.192a.5.5 0 1 0 .16-.988A15.919 15.919 0 0 0 11 6.001c-4.276 0-7.5 1.505-7.5 3.5 0 1.268 1.096 2.292 3.095 2.904l.924 3.234a.501.501 0 0 0 .897.14l1.331-1.996.763 3.816a.5.5 0 0 0 .982 0l.924-4.622c3.603-.261 6.085-1.665 6.085-3.476 0-.577-.286-1.143-.827-1.638a.5.5 0 0 0-.675.739c.332.304.501.607.501.9 0 1.097-2.066 2.333-5.524 2.5a.5.5 0 0 0-.466.401L11 14.952l-.51-2.549a.5.5 0 0 0-.906-.18l-1.4 2.101-.703-2.46a.5.5 0 0 0-.348-.345C5.484 11.064 4.5 10.31 4.5 9.501c0-1.183 2.669-2.5 6.5-2.5zm7.847-.585a.502.502 0 0 0-.705.058.502.502 0 0 0 .058.705c1.526 1.295 2.3 3.086 2.3 5.322 0 5.495-4.528 10.5-9.5 10.5s-9.5-5.005-9.5-10.5c0-4.696 3.551-7.5 9.5-7.5 1.347 0 2.604.152 3.738.451a.5.5 0 1 0 .255-.967c-1.217-.321-2.56-.484-3.993-.484-6.477 0-10.5 3.257-10.5 8.5C.5 18.627 5.407 24 11 24s10.5-5.374 10.499-11.5c0-2.542-.892-4.589-2.652-6.084zM9 18.501a1 1 0 1 0-2 0 1 1 0 0 0 2 0zm-2.5 2.5a1 1 0 1 0 2 0 1 1 0 0 0-2 0zM23.417 3.224l-2-3a.5.5 0 0 0-.395-.222.484.484 0 0 0-.412.187l-8 10a.501.501 0 0 0 .39.812.5.5 0 0 0 .391-.188l7.573-9.466 1.621 2.431a.5.5 0 0 0 .832-.554zM10 21.501a1 1 0 1 0 0-2 1 1 0 0 0 0 2z"/></svg>