<svg xmlns="http://www.w3.org/2000/svg" viewBox="0 0 30 30"><path d="M17.661 30h-6.583c-.875 0-1.643-.702-1.749-1.599l-2.39-17.835A.501.501 0 0 1 7.435 10h13.869a.498.498 0 0 1 .495.567L19.408 28.41c-.103.888-.871 1.59-1.747 1.59zM8.006 11l2.315 17.276c.048.403.387.724.757.724h6.583c.371 0 .709-.321.756-.716L20.733 11H8.006z"/><path d="M22 15a4.84 4.84 0 0 1-1.205-.146.501.501 0 0 1 .249-.969A4.004 4.004 0 0 0 26 10c0-2.206-1.794-4-4-4a4.004 4.004 0 0 0-3.974 4.438.5.5 0 1 1-.992.124A4.477 4.477 0 0 1 17 10c0-2.757 2.243-5 5-5s5 2.243 5 5-2.243 5-5 5zM12.478 26.217a.5.5 0 0 1-.499-.472l-.631-11.348a.499.499 0 0 1 .471-.527c.283-.038.512.196.527.471l.631 11.348a.499.499 0 0 1-.471.527l-.028.001zM16.261 26.217l-.028-.001a.5.5 0 0 1-.471-.527l.63-11.348c.015-.276.239-.511.527-.471a.5.5 0 0 1 .471.527l-.63 11.348a.5.5 0 0 1-.499.472zM12.45 11a.5.5 0 0 1-.474-.341l-3.07-9.18a.743.743 0 0 0-.549-.462.728.728 0 0 0-.69.204l-3.78 4.597a.5.5 0 0 1-.773-.636l3.81-4.63c.45-.459 1.055-.639 1.643-.513a1.754 1.754 0 0 1 1.282 1.107l3.076 9.196a.5.5 0 0 1-.475.658z"/><path d="M23.196 9.196a.5.5 0 0 1-.354-.853l.63-.63a.5.5 0 0 1 .707.707l-.63.63a.498.498 0 0 1-.353.146zM20.674 9.196a.502.502 0 0 1-.354-.146l-.63-.63a.5.5 0 0 1 .707-.707l.63.63a.5.5 0 0 1-.353.853zM23.826 12.348a.502.502 0 0 1-.354-.146l-.63-.63a.5.5 0 0 1 .707-.707l.63.63a.5.5 0 0 1-.353.853z"/></svg>