<svg xmlns="http://www.w3.org/2000/svg" viewBox="0 0 30 30"><path d="M10.5 30c-1.8 0-3-1.2-3-3l1-14.2c-2.1-.8-3.3-2.8-3-4.9L7 .4c.1-.2.3-.4.5-.4.3 0 .5.2.5.5l.6 6.1c.1.2.3.4.6.4s.5-.2.5-.5l.3-6c0-.3.2-.5.5-.5.2 0 .5.2.5.4l.7 6.1c.1.3.3.5.6.5s.5-.2.5-.5l.7-6.1c.1-.2.3-.4.5-.4.3 0 .5.2.5.4l1 7.5c.3 2.1-.9 4.1-3 4.9l1 14.1c0 2-1.1 3.1-3 3.1zM7.4 3.9l-.9 4.2c-.3 2 1.1 3.4 2.7 3.9.2.1.4.3.3.5L8.5 27c0 1.4 1 2 2 2 1.3 0 2-.7 2-2l-1-14.5c0-.2.1-.4.3-.5 1.5-.5 3-1.9 2.7-3.9L14 4.5l-.3 2.2c0 .7-.6 1.3-1.4 1.3s-1.4-.6-1.5-1.4l-.1-.5v.5c-.1.8-.8 1.4-1.5 1.4s-1.5-.6-1.6-1.4l-.2-2.7zM21.5 30c-.9 0-1.7-.4-2.3-1-.5-.6-.8-1.4-.7-2.2l1-10.4c0-.1.1-.2.1-.3l.7-.7c-.6-.8-1.8-3-1.8-7.5 0-6 5.3-8 5.3-8 .2.1.4.1.5.2.1.1.2.2.2.4V27c0 1.6-1.4 3-3 3zm-1-13.3l-1 10.2c-.1.5.1 1 .5 1.4.4.4.9.7 1.5.7 1 0 2-1 2-2V1.3c-1.3.7-4 2.6-4 6.7 0 5.4 1.8 7.1 1.8 7.1.1.1.2.2.2.4s0 .3-.1.4l-.9.8z"/></svg>