<svg xmlns="http://www.w3.org/2000/svg" viewBox="0 0 30 30"><path d="M28 27H6c-.1 0-.3-.1-.4-.2-.1-.1-.1-.2-.1-.4l1-13c0-.2.2-.4.5-.4h20c.3 0 .5.2.5.5l1 13c0 .1 0 .3-.1.4-.1 0-.3.1-.4.1zM6.5 26h20.9l-.9-12h-19l-1 12z"/><path d="M8.5 27s-.1 0 0 0c-.4-.1-.5-.3-.5-.6l1.5-9c0-.3.3-.5.6-.4.3 0 .5.3.4.6l-1.5 9c0 .2-.3.4-.5.4zM12.5 27c-.3 0-.5-.3-.5-.5l.5-9c0-.3.3-.5.5-.5.3 0 .5.3.5.5l-.5 9c0 .3-.2.5-.5.5zM17 27c-.3 0-.5-.2-.5-.5v-9c0-.3.2-.5.5-.5s.5.2.5.5v9c0 .3-.2.5-.5.5zM24.5 14h-15c-.2 0-.4-.1-.4-.3l-1.5-3c-.1-.2-.1-.3 0-.5.1-.1.2-.2.4-.2h18c.2 0 .3.1.4.2.1.1.1.3 0 .5l-1.5 3c0 .2-.2.3-.4.3zM9.8 13h14.4l1-2H8.8l1 2zM6.5 17H5c-.3 0-.5-.2-.5-.5V13c0-1.1-1.4-2-2.5-2-.3 0-.5-.2-.5-.5s.2-.5.5-.5c1.6 0 3.5 1.3 3.5 3v3h1c.3 0 .5.2.5.5s-.2.5-.5.5z"/><path d="M25 11H9c-.3 0-.5-.2-.5-.5C8.5 5.8 12.3 2 17 2s8.5 3.8 8.5 8.5c0 .3-.2.5-.5.5zM9.5 10h15C24.2 6.1 21 3 17 3s-7.2 3.1-7.5 7z"/><path d="M19 3c-.3 0-.5-.2-.5-.5 0-.8-.7-1.5-1.5-1.5s-1.5.7-1.5 1.5c0 .3-.2.5-.5.5s-.5-.2-.5-.5C14.5 1.1 15.6 0 17 0s2.5 1.1 2.5 2.5c0 .3-.2.5-.5.5zM25.5 27c-.2 0-.5-.2-.5-.4l-1.5-9c0-.3.1-.5.4-.6.3-.1.5.1.6.4l1.5 9c0 .3-.1.5-.5.6.1 0 0 0 0 0zM21.5 27c-.3 0-.5-.2-.5-.5l-.5-9c0-.3.2-.5.5-.5s.5.2.5.5l.5 9c0 .2-.2.5-.5.5zM8.5 30c-1.1 0-2-.9-2-2s.9-2 2-2 2 .9 2 2-.9 2-2 2zm0-3c-.6 0-1 .4-1 1s.4 1 1 1 1-.4 1-1-.4-1-1-1z"/><path d="M25.5 30c-1.1 0-2-.9-2-2s.9-2 2-2 2 .9 2 2-.9 2-2 2zm0-3c-.6 0-1 .4-1 1s.4 1 1 1 1-.4 1-1-.4-1-1-1z"/></svg>