<svg xmlns="http://www.w3.org/2000/svg" viewBox="0 0 30 30"><path d="M27.5 20.5c-.1 0-.2 0-.3-.1L25 18.7l-2.2 1.7c-.2.1-.4.1-.6 0-.2-.1-.3-.3-.2-.5l.6-2.9-1.7-1.7c-.1-.1-.2-.4-.1-.5s.3-.3.5-.3h2.2l1.1-2.2c.2-.3.7-.3.9 0l1.1 2.2h2.2c.2 0 .4.1.5.3s0 .4-.1.5L27.4 17l.6 2.9c0 .2 0 .4-.2.5-.1.1-.2.1-.3.1zM25 17.6c.1 0 .2 0 .3.1l1.5 1.1-.4-1.8c0-.2 0-.3.1-.5l1-1h-1.3c-.2 0-.4-.1-.4-.3l-.8-1.6-.8 1.6c-.1.2-.3.3-.4.3h-1.3l1 1c.1.1.2.3.1.5l-.4 1.8 1.5-1.1c.1-.1.2-.1.3-.1zM7.5 20.5c-.1 0-.2 0-.3-.1L5 18.7l-2.2 1.7c-.2.1-.4.1-.6 0-.1-.1-.2-.3-.2-.5l.6-2.9-1.7-1.7c-.1-.1-.2-.4-.1-.5s.3-.3.5-.3h2.2l1.1-2.2c.2-.3.7-.3.9 0l1.1 2.2h2.2c.2 0 .4.1.5.3s0 .4-.1.5L7.4 17l.6 2.9c0 .2 0 .4-.2.5-.1.1-.2.1-.3.1zM5 17.6c.1 0 .2 0 .3.1l1.5 1.1-.4-1.8c0-.2 0-.3.1-.5l1-1H6.3c-.2 0-.4-.1-.4-.3L5 13.6l-.8 1.6c-.1.2-.3.3-.4.3H2.5l1 1c.1.1.2.3.1.5l-.4 1.8 1.5-1.1c.1-.1.2-.1.3-.1zM11.3 9.2c-.1 0-.2 0-.3-.1L8.8 7.5 6.6 9.1c-.2.2-.4.2-.6.1-.2-.1-.3-.4-.2-.6l.6-2.9-1.8-1.6c-.1-.2-.1-.4-.1-.6s.3-.3.5-.3h2.2L8.3 1c.2-.3.7-.3.9 0l1.1 2.2h2.2c.2 0 .4.1.5.3s0 .4-.1.5l-1.7 1.7.6 2.9c0 .2 0 .4-.2.5-.2.1-.3.1-.3.1zM8.8 6.4c.1 0 .2 0 .3.1l1.5 1.1-.4-1.8c0-.2 0-.3.1-.5l1-1H10c-.2-.1-.4-.2-.4-.3l-.8-1.6L7.9 4c0 .1-.2.2-.4.2H6.2l1 1c.1.1.2.3.1.5L7 7.6l1.5-1.1c0-.1.1-.1.3-.1zM23.8 9.2c-.1 0-.2 0-.3-.1l-2.2-1.7-2.2 1.7c-.2.1-.4.1-.6 0-.2-.1-.3-.3-.2-.5l.6-2.9L17.2 4c-.2-.1-.2-.3-.2-.5s.3-.3.5-.3h2.2L20.8 1c.2-.3.7-.3.9 0l1.1 2.2H25c.2 0 .4.1.5.3s0 .4-.1.5l-1.7 1.7.6 2.9c0 .2 0 .4-.2.5-.2.1-.3.1-.3.1zm-2.5-2.8c.1 0 .2 0 .3.1L23 7.6l-.4-1.8c0-.2 0-.3.1-.5l1-1h-1.3c-.2 0-.4-.1-.4-.3l-.8-1.6-.8 1.6c-.1.2-.3.3-.4.3h-1.3l1 1c.1.1.2.3.1.5l-.4 1.8L21 6.5c0-.1.1-.1.3-.1zM17.5 29.2c-.1 0-.2 0-.3-.1L15 27.5l-2.2 1.7c-.2.1-.4.1-.6 0-.2-.1-.3-.3-.2-.5l.6-2.9-1.7-1.7c-.1-.1-.2-.4-.1-.5s.3-.3.5-.3h2.2l1.1-2.2c.2-.3.7-.3.9 0l1.1 2.2h2.2c.2 0 .4.1.5.3s0 .4-.1.5l-1.7 1.7.6 2.9c0 .2 0 .4-.2.5h-.4zM15 26.4c.1 0 .2 0 .3.1l1.5 1.1-.4-1.8c0-.2 0-.3.1-.5l1-1h-1.3c-.2 0-.4-.1-.4-.3l-.8-1.6-.8 1.6c-.1.2-.3.3-.4.3h-1.3l1 1c.1.1.2.3.1.5l-.4 1.8 1.5-1.1c.1-.1.2-.1.3-.1zM12.3 19.5c-.3 0-.5-.2-.5-.5v-8c0-.3.2-.5.5-.5s.5.2.5.5v8c0 .3-.3.5-.5.5zM17.3 19.5c-.3 0-.5-.2-.5-.5v-8c0-.3.2-.5.5-.5s.5.2.5.5v8c0 .3-.3.5-.5.5z"/><path d="M17.3 15.5h-4.8c-.3 0-.5-.2-.5-.5s.2-.5.5-.5h4.8c.3 0 .5.2.5.5s-.3.5-.5.5z"/></svg>