<svg xmlns="http://www.w3.org/2000/svg" viewBox="-236 286 30 30"><path d="M-211.3 292.2c.2-.6.5-1 .9-1.2h.3c1.4 0 2.5-1.1 2.5-2.5s-1.1-2.5-2.5-2.5c-.8 0-1.5.4-2 1h-18c-.5-.6-1.2-1-2-1-1.4 0-2.5 1.1-2.5 2.5s1.1 2.5 2.5 2.5h.5c.2 0 .5.1.7.5.9 2.1-1.2 8.3-3.5 10.6-.1.1-.1.2-.1.4 0 5.3 4.1 10.2 9 11.3v1.7c0 .3.2.5.5.5h8c.3 0 .5-.2.5-.5v-1.7c4.9-1.1 9-6 9-11.3 0-.1-.1-.3-.1-.4-2.3-2.3-4.2-7.5-3.7-9.9zm1.3-5.2c.8 0 1.5.7 1.5 1.5s-.7 1.5-1.5 1.5-1.5-.7-1.5-1.5.7-1.5 1.5-1.5zm-3.5 1c-.5.6-.8 1.4-1 2-1.3 3.4-1.8 9.8 2 13.2-.1 2.4-1.8 4.6-4 5.4V288h3zm-4 20.9c-.3.1-.7.1-1 .1h-2v-21h3v20.9zm-4-20.9v21h-2c-.3 0-.7 0-1-.1V288h3zm-4 0v20.6c-2.2-.8-3.9-3-4-5.4 3.8-3.5 3.3-9.8 2-13.2-.2-.5-.5-1.3-1-2h3zm-8 .5c0-.8.7-1.5 1.5-1.5s1.5.7 1.5 1.5-.7 1.5-1.5 1.5-1.5-.7-1.5-1.5zm16 25.5v1h-7v-1h7zm-1-1h-5c-5.1 0-9.9-5-10-10.3 2.6-2.8 4.6-9.1 3.6-11.6-.1-.3-.3-.5-.5-.7.6-.5.9-1.1.9-1.9v-.2c.3.3.7 1 1.1 2 1.2 3.2 1.7 9.1-1.9 12.3 0 0 0 .1-.1.1l-.1.1v.2c0 3.7 3.3 7 7 7h5c3.7 0 7-3.3 7-7v-.1-.1-.1s0-.1-.1-.1c-3.6-3.1-3.1-9.1-1.9-12.3.4-1 .8-1.7 1.1-2v.2c0 .8.4 1.6 1 2-.3.3-.6.7-.8 1.4-.7 3 1.4 8.3 3.7 10.8-.1 5.3-4.9 10.3-10 10.3z"/></svg>