<svg xmlns="http://www.w3.org/2000/svg" viewBox="0 0 30 30"><path d="M4.5 27h-4c-.3 0-.5-.2-.5-.5v-11c0-.1.1-.3.1-.4.1 0 .3-.1.4-.1 1 0 5.8.1 6.8 1.1.1.1.2.3.2.4-.3 3.3-2.4 9.9-2.5 10.2-.1.2-.3.3-.5.3zM1 26h3.1c.4-1.4 2-6.5 2.3-9.3-.8-.4-3.4-.6-5.4-.7v10z"/><path d="M16.7 30c-.8 0-1.5-.2-2.5-.6L4.8 26c-.3-.1-.4-.4-.3-.6.1-.3.4-.4.6-.3l9.4 3.4c2.3.9 2.6.9 7.8-1.2l6.5-3.4c-.8-.9-2.2-1.2-3.4-.9l-4.8 1.2c-.3.1-.5-.1-.6-.4-.1-.3.1-.5.4-.6l4.8-1.2c1.7-.4 3.9.1 4.8 1.8.1.2 0 .5-.2.7l-7 3.7C19.5 29.4 18 30 16.7 30z"/><path d="M17.9 24.7c-.3 0-.6 0-.8-.1l-5.4-1.1c-.3-.1-.4-.3-.4-.6.1-.3.3-.4.6-.4l5.4 1.1c.5.1 1 .1 1.4 0l1.3-.3c-.1-1.3-.6-1.9-2.1-2.3l-11-2.5c-.3-.1-.4-.3-.4-.6.1-.3.3-.4.6-.4l11 2.5c2 .5 2.9 1.6 2.9 3.4v.2c0 .2-.2.4-.4.5l-1.7.4c-.3.1-.6.2-1 .2zM29.5 15h-24c-.3 0-.5-.2-.5-.5s.2-.5.5-.5h24c.3 0 .5.2.5.5s-.2.5-.5.5zM19.5 3.6c-.3 0-.5-.2-.5-.5v-.7c0-.7-.7-1.4-1.5-1.4S16 1.6 16 2.4V3c0 .3-.2.5-.5.5S15 3.3 15 3v-.6C15 1.1 16.1 0 17.5 0 18.8 0 20 1.1 20 2.4V3c0 .3-.2.6-.5.6z"/><path d="M25.5 17h-16c-.1 0-.2 0-.3-.1l-3-2c-.2-.2-.3-.5-.1-.7.2-.2.5-.3.7-.1L9.7 16h15.7l2.4-1.9c.2-.2.5-.1.7.1.2.2.1.5-.1.7l-2.5 2c-.2.1-.3.1-.4.1z"/><g><path d="M28.5 14.5c-.3 0-.5-.2-.5-.5 0-5.8-4.7-10.5-10.5-10.5S7 8.2 7 14c0 .3-.2.5-.5.5S6 14.3 6 14C6 7.7 11.2 2.5 17.5 2.5S29 7.7 29 14c0 .3-.2.5-.5.5z"/></g><g><path d="M8.9 12h-.1c-.3-.1-.4-.4-.3-.6 1.2-4 4.9-6.8 9.1-6.8.2-.1.4.1.4.4s-.2.5-.5.5c-3.8 0-7.1 2.5-8.2 6.1 0 .2-.2.4-.4.4z"/></g></svg>