<svg xmlns="http://www.w3.org/2000/svg" viewBox="0 0 30 30"><path d="M14.556 15.5H13a.5.5 0 0 0-.5.5v6a.5.5 0 0 0 1 0v-2.5h1.056c1.108 0 1.944-.86 1.944-2s-.836-2-1.944-2zm0 3H13.5v-2h1.056c.556 0 .944.411.944 1s-.388 1-.944 1zM27 12.5h-4.007l-4.516-4.725C18.359 5.951 16.853 4.5 15 4.5c-1.853 0-3.359 1.452-3.477 3.276L7.008 12.5H3A2.503 2.503 0 0 0 .5 15v8c0 1.378 1.122 2.5 2.5 2.5h24c1.378 0 2.5-1.122 2.5-2.5v-8c0-1.378-1.122-2.5-2.5-2.5zm-12-7c1.378 0 2.5 1.122 2.5 2.5s-1.122 2.5-2.5 2.5-2.5-1.122-2.5-2.5 1.122-2.5 2.5-2.5zm-3.319 3.558c.451 1.411 1.76 2.442 3.319 2.442s2.868-1.032 3.319-2.443l3.29 3.443H8.391l3.29-3.442zM28.5 23c0 .827-.673 1.5-1.5 1.5H3c-.827 0-1.5-.673-1.5-1.5v-8c0-.827.673-1.5 1.5-1.5h24c.827 0 1.5.673 1.5 1.5v8zm-8.026-7.158c-.135-.408-.812-.408-.948 0l-2 6a.5.5 0 1 0 .948.316l.553-1.66.01.002h1.936l.553 1.658a.5.5 0 1 0 .948-.316l-2-6zM19.36 19.5l.64-1.919.64 1.919h-1.28zm-11.86-3c.551 0 1 .449 1 1a.5.5 0 0 0 1 0c0-1.103-.897-2-2-2s-2 .897-2 2 .897 2 2 2c.551 0 1 .449 1 1 0 .551-.449 1-1 1-.551 0-1-.449-1-1a.5.5 0 0 0-1 0c0 1.103.897 2 2 2s2-.897 2-2-.897-2-2-2c-.551 0-1-.449-1-1 0-.551.449-1 1-1z"/></svg>