<svg xmlns="http://www.w3.org/2000/svg" viewBox="0 0 30 30"><path d="M19.868 4.998a.5.5 0 0 0-.5-.5c-2.05 0-3.324 1.03-3.665 1.345a.5.5 0 1 0 .679.734c.274-.253 1.299-1.079 2.986-1.079a.5.5 0 0 0 .5-.5zm6.834 16.262a4.05 4.05 0 0 0 1.22-.808c.715-.711 1.077-1.704 1.077-2.951 0-2.279-1.353-3.401-3.236-3.956.44-.159.809-.372 1.092-.659.417-.422.623-.977.612-1.646-.016-.974-1.087-1.846-2.76-2.44.381-.115.709-.277.957-.521.356-.348.536-.821.536-1.404C26.2 4.574 23.278 2 19.367 2s-6.833 2.574-6.833 4.875c0 .562.179 1.022.532 1.368.274.268.655.432 1.087.552-1.069.363-1.903.832-2.392 1.362A3.86 3.86 0 0 0 9 9c-1.917 0-3.494 1.383-3.766 3.173-1.73-.671-3.756-.039-4.717 1.572a3.6 3.6 0 0 0-.393 2.799c.211.787.679 1.46 1.322 1.956a3.667 3.667 0 0 0-1.322 1.957 3.6 3.6 0 0 0 .393 2.799c.707 1.185 1.994 1.849 3.314 1.849a3.88 3.88 0 0 0 1.405-.264C5.515 26.624 7.089 28 9 28a3.842 3.842 0 0 0 2.917-1.343c1.834.842 4.8 1.343 8.084 1.343 4.378 0 8.185-.885 9.473-2.202.359-.367.535-.766.526-1.186-.047-2.083-1.347-2.974-3.298-3.352zM28 17.499c0 .985-.256 1.719-.783 2.243-.958.953-2.789 1.192-4.911 1.247l-.945.004L20 21l-.068.003L19 21c-.353 0-.699-.011-1.04-.03-.021-.172-.039-.344-.084-.514-.017-.062-.048-.118-.068-.179-.007-.022-.017-.042-.024-.063a3.626 3.626 0 0 0-.261-.594c-.016-.028-.035-.053-.051-.081a3.608 3.608 0 0 0-.349-.5c-.041-.049-.089-.091-.133-.138a3.675 3.675 0 0 0-.371-.356c-.016-.013-.029-.031-.046-.044.025-.019.045-.043.069-.063.061-.05.115-.104.172-.157a3.864 3.864 0 0 0 .47-.523c.089-.122.168-.249.241-.381.037-.067.078-.132.111-.201.092-.194.171-.394.229-.605l.011-.029c.004-.015.004-.03.007-.045.052-.203.084-.408.1-.613.006-.079.002-.157.003-.236a3.389 3.389 0 0 0-.017-.428c-.009-.087-.024-.172-.039-.258a3.702 3.702 0 0 0-.098-.4c-.025-.083-.05-.166-.081-.248-.014-.036-.021-.074-.036-.109.59-.112 1.205-.205 1.784-.205h.012c5.631 0 8.489.544 8.489 3.499zm-11.572-.252a2.78 2.78 0 0 1-.834.707c-.067.038-.163.064-.247.095-1.18.42-3.797.246-5.401.065.871-1.126 2.428-3.294 2.792-4.815.003-.011.008-.023.01-.034l.013-.007c.131-.073.268-.126.405-.176.003-.001.007 0 .01-.002a2.934 2.934 0 0 1 .831-.173l.049-.001a2.94 2.94 0 0 1 1.114.173c.044.016.089.029.132.047a3.218 3.218 0 0 1 .652.38c.07.054.134.116.198.177.053.05.109.096.158.15.078.087.144.186.211.284.003.004.002.01.005.014l.096.125c.368.617.47 1.337.285 2.027a2.637 2.637 0 0 1-.479.964zm-2.664-9.718c-.099-.098-.231-.271-.231-.654C13.533 5.12 16.135 3 19.366 3c3.231 0 5.833 2.12 5.833 3.875 0 .411-.134.59-.235.689-.538.528-2.077.495-3.86.458a83.55 83.55 0 0 0-1.466-.02l-.138-.003c-.061 0-.121.003-.182.003-.487.002-.968.01-1.429.019-1.824.036-3.547.073-4.125-.492zm5.462 1.48c.33-.001.643.001.968.004 3.778.14 6.259 1.396 6.273 2.244.007.402-.096.697-.324.927-.818.829-3.152.824-5.858.816H19.5c-.331 0-.662.004-.99.008-.549.008-1.089.015-1.606 0a3.662 3.662 0 0 0-.379-.326c-.061-.046-.126-.083-.189-.125a3.77 3.77 0 0 0-.624-.338 4.03 4.03 0 0 0-.782-.237c-.118-.023-.236-.046-.356-.058-.123-.013-.246-.014-.37-.016-.079 0-.157.001-.236.006a4.155 4.155 0 0 0-.4.036l-.053.011a3.947 3.947 0 0 0-.475.103 3.047 3.047 0 0 1-.33-.212 3.541 3.541 0 0 0-.157-.48c-.038-.094-.082-.182-.127-.272-.021-.041-.036-.084-.058-.125.542-.839 3.237-1.912 6.858-1.966zM6.178 12.714C6.178 11.219 7.444 10 9 10a2.837 2.837 0 0 1 2.624 1.733c.006.014.008.029.014.043.057.146.103.296.132.449l.001.001c.03.159.051.321.051.488 0 .072-.023.163-.038.247-.026.15-.072.314-.135.49-.011.03-.019.057-.031.088a6.576 6.576 0 0 1-.271.607c-.011.021-.018.04-.029.062-.571 1.125-1.509 2.439-2.188 3.321-.567-1.285-1.74-3.711-2.927-4.782l-.025-.026v-.007zM1.09 16.285a2.607 2.607 0 0 1 .285-2.028c.522-.875 1.472-1.364 2.45-1.364.481 0 .968.118 1.413.367.069.039.143.108.215.166.126.102.255.224.386.373l.028.031c.758.876 1.568 2.424 2.126 3.62l.063.137.137.304c-1.435-.167-4.18-.394-5.723.064l-.045.01-.021-.011a2.708 2.708 0 0 1-1.314-1.669zm4.163 7.447l-.014.008c-1.352.757-3.085.309-3.864-.996a2.612 2.612 0 0 1-.285-2.028 2.71 2.71 0 0 1 1.316-1.67c.067-.037.162-.064.245-.094.16-.058.341-.107.55-.144l.019-.004c1.174-.203 2.996-.105 4.355.029l.048.005c.155.015.29.031.431.047-.872 1.127-2.431 3.298-2.793 4.819-.001.009-.006.019-.008.028zm6.569.554c0 .105-.02.204-.032.306 0 .003-.003.005-.003.008a2.791 2.791 0 0 1-.144.609l-.004.014a2.463 2.463 0 0 1-.262.514A2.847 2.847 0 0 1 9 27c-1.556 0-2.822-1.217-2.822-2.714 0-.073.023-.165.038-.25.027-.149.072-.312.134-.487.011-.03.019-.059.032-.09a6.82 6.82 0 0 1 .27-.606c.011-.021.018-.04.029-.062.571-1.125 1.508-2.439 2.188-3.321.565 1.282 1.735 3.7 2.919 4.775l.033.034v.007zm.308-1.118c-.762-.882-1.578-2.443-2.135-3.641l-.023-.05c-.061-.132-.112-.248-.166-.369.809.094 2.032.209 3.228.209.13 0 .255-.008.384-.01l.095-.003c.218-.006.429-.017.638-.033.084-.006.163-.016.244-.024.165-.017.328-.034.481-.059.112-.018.212-.043.316-.065.12-.026.243-.049.352-.082l.026-.006.026.011c.203.114.384.255.548.41.029.027.055.057.083.086.145.15.275.312.38.49l.021.033c.236.41.364.88.357 1.368 0 .006.003.011.003.017-.002.093.001.187-.011.279a2.65 2.65 0 0 1-.105.452c-.007.023-.009.047-.017.069-.059.17-.135.334-.229.492l-.001.001c-.087.146-.19.277-.299.401-.033.038-.069.073-.105.109a2.713 2.713 0 0 1-.266.237c-.04.031-.08.064-.121.093a2.851 2.851 0 0 1-.387.229c-.03.015-.061.026-.092.04a2.772 2.772 0 0 1-.377.135c-.066.019-.133.032-.2.046a2.69 2.69 0 0 1-.269.043 2.517 2.517 0 0 1-.23.019c-.091.003-.182-.002-.274-.007-.071-.004-.142-.003-.214-.013a2.893 2.893 0 0 1-1.029-.338c-.071-.04-.146-.11-.22-.169a3.246 3.246 0 0 1-.377-.364l-.035-.036zm16.629 1.931C27.835 26.042 24.53 27 20.001 27c-3.011 0-5.823-.446-7.528-1.179l.004-.012a3.63 3.63 0 0 0 .161-.445c.009-.029.022-.055.03-.084.42.061.811-.001 1.165-.191.038.003.076 0 .114.002.074.004.148.014.222.014.039 0 .077-.006.116-.007a3.88 3.88 0 0 0 .487-.044 3.704 3.704 0 0 0 .473-.103c.107-.03.213-.063.316-.102.049-.018.096-.04.145-.06.107-.046.213-.093.316-.148.045-.024.088-.052.132-.078.1-.059.2-.118.294-.186.046-.033.088-.07.132-.105.088-.069.176-.138.258-.215.047-.045.089-.096.134-.143.073-.076.148-.15.214-.233.041-.051.075-.108.113-.162.062-.086.128-.169.183-.262.116-.194.206-.397.283-.605.023-.061.039-.123.059-.185.026-.082.058-.162.078-.247.729-.112 1.453-.209 2.022-.216h.06l.945.003c.425 0 .842-.005 1.253-.014 4.439-.007 6.761.22 6.816 2.643.006.14-.076.296-.239.463z"/></svg>