<svg xmlns="http://www.w3.org/2000/svg" viewBox="0 0 30 30"><path d="M10.191 5.398c1.368 1.367 1.399 2.144 1.434 3.044.037.922.078 1.968 1.566 3.456a.502.502 0 0 0 .707 0 .5.5 0 0 0 0-.707c-1.211-1.211-1.24-1.942-1.273-2.788-.039-.969-.082-2.067-1.745-3.73l-5-4.5a.5.5 0 0 0-.67.743l4.981 4.482zm-2 3.5a.502.502 0 0 0 .707 0 .5.5 0 0 0 0-.707l-6-6a.5.5 0 0 0-.707.707l6 6zm.212 3.726c.846.034 1.576.063 2.788 1.274a.502.502 0 0 0 .706 0 .5.5 0 0 0 0-.707c-1.488-1.488-2.533-1.529-3.456-1.566-.899-.036-1.675-.066-3.025-1.415l-4.5-5a.5.5 0 1 0-.744.669l4.519 5.019c1.645 1.644 2.742 1.688 3.712 1.726zm12.499 3.27l.487-.493c2.166-2.188 6.196-6.26 7.617-9.665 1.651-3.957-.06-5.506-.133-5.57a.502.502 0 0 0-.682.024l-26.5 26.5a1.916 1.916 0 0 0 1.357 3.266c.489 0 .978-.186 1.351-.559l10.5-10.5c.741-.741 1.7-1.024 2.716-1.324 1.135-.336 2.308-.682 3.287-1.679zm-6.71 2.297l-10.5 10.5a.915.915 0 0 1-1.293-1.293L28.471 1.326c.266.585.525 1.838-.387 4.026-1.346 3.224-5.288 7.206-7.406 9.346l-.489.496c-.797.812-1.798 1.108-2.858 1.421-1.09.322-2.218.655-3.139 1.576zm15.206 8.499l-8.5-8.5a.5.5 0 0 0-.707.707l8.5 8.5a.914.914 0 0 1-1.293 1.293l-9.5-9.5a.5.5 0 0 0-.707.707l9.5 9.5a1.91 1.91 0 0 0 2.707-.006 1.911 1.911 0 0 0 0-2.701z"/></svg>