<svg xmlns="http://www.w3.org/2000/svg" viewBox="0 0 30 30"><path d="M23 30H7c-1.4 0-2.5-1.1-2.5-2.5v-11C4.5 15.1 5.6 14 7 14h16c1.4 0 2.5 1.1 2.5 2.5v11c0 1.4-1.1 2.5-2.5 2.5zM7 15c-.8 0-1.5.7-1.5 1.5v11c0 .8.7 1.5 1.5 1.5h16c.8 0 1.5-.7 1.5-1.5v-11c0-.8-.7-1.5-1.5-1.5H7z"/><path d="M23 15h-3c-.3 0-.5-.2-.5-.5v-6C19.5 6 17.5 4 15 4s-4.5 2-4.5 4.5v6c0 .3-.2.5-.5.5H7c-.3 0-.5-.2-.5-.5v-6C6.5 3.8 10.3 0 15 0s8.5 3.8 8.5 8.5v6c0 .3-.2.5-.5.5zm-2.5-1h2V8.5C22.5 4.4 19.1 1 15 1S7.5 4.4 7.5 8.5V14h2V8.5C9.5 5.5 12 3 15 3s5.5 2.5 5.5 5.5V14zM17 25h-4c-.2 0-.3-.1-.4-.2-.1-.1-.1-.3-.1-.5l1-2.8c-.7-.5-1.1-1.2-1.1-2 0-1.4 1.1-2.5 2.5-2.5s2.5 1.1 2.5 2.5c0 .8-.4 1.6-1.1 2l1 2.8c.1.2 0 .3-.1.5.1.1 0 .2-.2.2zm-3.3-1h2.6l-.9-2.5c-.1-.2 0-.5.3-.6.5-.2.9-.8.9-1.4 0-.8-.7-1.5-1.5-1.5s-1.5.7-1.5 1.5c0 .6.4 1.1.9 1.4.2.1.4.4.3.6L13.7 24z"/></svg>