<svg xmlns="http://www.w3.org/2000/svg" viewBox="0 0 30 30"><path d="M23.2 30H6.8C3 30 0 27.1 0 23.5c0-.3.2-.5.5-.5H16V7H.5C.2 7 0 6.8 0 6.5 0 2.9 3 0 6.8 0h16.4C26.9 0 30 3.1 30 6.8v16.4c0 3.7-3.1 6.8-6.8 6.8zM1 24c.3 2.9 2.7 5 5.8 5h16.4c3.2 0 5.8-2.6 5.8-5.8V6.8C29 3.6 26.4 1 23.2 1H6.8C3.7 1 1.3 3.1 1 6h15.5c.3 0 .5.2.5.5v17c0 .3-.2.5-.5.5H1z"/><path d="M14.5 24h-10c-.3 0-.5-.2-.5-.5v-11c0-.3.2-.5.5-.5h10c.3 0 .5.2.5.5v11c0 .3-.2.5-.5.5zM5 23h9V13H5v10zM14.5 11h-10c-.3 0-.5-.2-.5-.5v-4c0-.3.2-.5.5-.5h10c.3 0 .5.2.5.5v4c0 .3-.2.5-.5.5zM5 10h9V7H5v3z"/><path d="M11.5 13h-3c-.3 0-.5-.2-.5-.5v-2c0-.3.2-.5.5-.5h3c.3 0 .5.2.5.5v2c0 .3-.2.5-.5.5zM9 12h2v-1H9v1zM4.5 18h-2C1.1 18 0 16.9 0 15.5S1.1 13 2.5 13h2c.3 0 .5.2.5.5v4c0 .3-.2.5-.5.5zm-2-4c-.8 0-1.5.7-1.5 1.5S1.7 17 2.5 17H4v-3H2.5zM26.5 24h-7c-.3 0-.5-.2-.5-.5v-17c0-.3.2-.5.5-.5h7c.3 0 .5.2.5.5v17c0 .3-.2.5-.5.5zM20 23h6V7h-6v16z"/><path d="M24.5 21h-3c-.3 0-.5-.2-.5-.5s.2-.5.5-.5h3c.3 0 .5.2.5.5s-.2.5-.5.5zM24.5 18h-3c-.3 0-.5-.2-.5-.5s.2-.5.5-.5h3c.3 0 .5.2.5.5s-.2.5-.5.5zM24.5 15h-3c-.3 0-.5-.2-.5-.5s.2-.5.5-.5h3c.3 0 .5.2.5.5s-.2.5-.5.5zM24.5 12h-3c-.3 0-.5-.2-.5-.5s.2-.5.5-.5h3c.3 0 .5.2.5.5s-.2.5-.5.5zM12 20c-.9 0-1.3-.7-1.7-1.2-.3-.6-.5-.8-.8-.8-.3 0-.5.2-.8.8-.4.5-.8 1.2-1.7 1.2-.9 0-1.3-.7-1.7-1.2-.3-.6-.5-.8-.8-.8-.3 0-.5-.2-.5-.5s.2-.5.5-.5c.9 0 1.3.7 1.7 1.2.3.6.5.8.8.8.3 0 .5-.2.8-.8.3-.5.8-1.2 1.7-1.2.9 0 1.3.7 1.7 1.2.3.5.5.8.8.8s.5-.2.8-.8c.3-.5.8-1.2 1.7-1.2.3 0 .5.2.5.5s-.2.5-.5.5-.5.2-.8.8c-.4.5-.8 1.2-1.7 1.2z"/></svg>