<svg xmlns="http://www.w3.org/2000/svg" viewBox="0 0 30 30"><path d="M2 22H1a.5.5 0 0 1 0-1h1a.5.5 0 0 1 0 1z"/><path d="M25 25H5c-1.93 0-3.5-1.57-3.5-3.5A.5.5 0 0 1 2 21h26a.5.5 0 0 1 .5.5c0 1.93-1.57 3.5-3.5 3.5zM2.55 22c.232 1.14 1.243 2 2.45 2h20c1.207 0 2.218-.86 2.45-2H2.55z"/><path d="M25 25a.5.5 0 0 1 0-1c1.379 0 2.5-1.121 2.5-2.5a.5.5 0 0 1 1 0c0 1.93-1.57 3.5-3.5 3.5z"/><path d="M28 22c-.13 0-.26-.05-.351-.15a.346.346 0 0 1-.109-.16.404.404 0 0 1-.04-.189c0-.13.05-.26.149-.351a.503.503 0 0 1 .7 0c.101.09.151.22.151.35 0 .069-.01.13-.04.189a.366.366 0 0 1-.11.16A.466.466 0 0 1 28 22z"/><path d="M28 22H2a.5.5 0 0 1 0-1h26a.5.5 0 0 1 0 1z"/><path d="M2 22c-.07 0-.13-.01-.19-.04a.372.372 0 0 1-.16-.11.346.346 0 0 1-.109-.16.397.397 0 0 1-.041-.19c0-.13.05-.26.149-.351a.35.35 0 0 1 .16-.109c.181-.08.4-.03.54.109a.47.47 0 0 1 .151.351c0 .069-.01.13-.04.189a.366.366 0 0 1-.11.16c-.04.05-.1.09-.16.11A.397.397 0 0 1 2 22z"/><path d="M5 25c-1.93 0-3.5-1.57-3.5-3.5a.5.5 0 0 1 1 0C2.5 22.879 3.621 24 5 24a.5.5 0 0 1 0 1z"/><path d="M25 25H5a.5.5 0 0 1 0-1h20a.5.5 0 0 1 0 1zM29 22h-1a.5.5 0 0 1 0-1h1a.5.5 0 0 1 0 1z"/><path d="M27 22H3a.5.5 0 0 1-.5-.5c0-5.571 3.68-10.44 9-11.987V9.5C11.5 7.57 13.07 6 15 6s3.5 1.57 3.5 3.5v.013c5.32 1.547 9 6.416 9 11.987a.5.5 0 0 1-.5.5zM3.511 21H26.49a11.482 11.482 0 0 0-8.651-10.632.501.501 0 0 1-.373-.549l.012-.083c.009-.078.022-.156.022-.236C17.5 8.121 16.379 7 15 7s-2.5 1.121-2.5 2.5c0 .08.013.158.023.236.035.252-.114.569-.361.632A11.482 11.482 0 0 0 3.511 21z"/><path d="M24.798 20a.5.5 0 0 1-.489-.4c-.722-3.538-3.455-6.4-6.964-7.294a.498.498 0 0 1-.361-.607.494.494 0 0 1 .607-.361c3.878.986 6.9 4.151 7.698 8.063a.5.5 0 0 1-.491.599z"/><path d="M27 22a.5.5 0 0 1-.5-.5C26.5 15.159 21.341 10 15 10S3.5 15.159 3.5 21.5a.5.5 0 0 1-1 0C2.5 14.607 8.107 9 15 9s12.5 5.607 12.5 12.5a.5.5 0 0 1-.5.5z"/></svg>