<svg xmlns="http://www.w3.org/2000/svg" viewBox="0 0 30 30"><path d="M23.799 22.935c-.649 0-1.681-.336-1.681-1.238 0-.412 0-.619-.592-1.211-2.397-2.397-3.972-3.853-5.618-3.853-2.32 0-8.343-1.302-8.343-7.245 0-1.703 2.207-5.105 5.104-5.105 5.943 0 7.245 6.07 7.245 8.409 0 1.62 1.378 3.077 3.814 5.513.514.513.717.621.798.621.68 0 1.69.348 1.69 1.307 0 .841-.361 1.343-.797 1.546-.099.639-.489 1.256-1.62 1.256zM12.67 5.283c-2.162 0-4.104 2.788-4.104 4.105 0 6.075 7.27 6.245 7.343 6.245 2.033 0 3.746 1.566 6.325 4.146.757.757.885 1.204.885 1.918 0 .075.342.238.681.238.428 0 .651-.029.651-.651a.5.5 0 0 1 .5-.5c.129 0 .268-.249.268-.651 0-.215-.494-.307-.69-.307-.494 0-.926-.335-1.505-.914-2.623-2.623-4.107-4.206-4.107-6.22-.002-.075-.172-7.409-6.247-7.409z"/><path d="M18.427 17.533h-.03a.495.495 0 0 1-.47-.51c.019-.53.45-1.318 1.561-1.318.538 0 .538-.104.538-.247a.5.5 0 0 1 1 0c0 .569-.267 1.247-1.538 1.247-.438 0-.547.198-.562.365a.506.506 0 0 1-.499.463z"/><path d="M15 30.5c-8.271 0-15-6.729-15-15S6.729.5 15 .5s15 6.729 15 15-6.729 15-15 15zm0-29c-7.72 0-14 6.28-14 14s6.28 14 14 14 14-6.28 14-14-6.28-14-14-14z"/><path d="M23.798 19.45a.5.5 0 0 1-.466-.683 8.902 8.902 0 0 0 .624-3.267 8.944 8.944 0 0 0-7.34-8.803.5.5 0 0 1 .18-.984 9.943 9.943 0 0 1 8.16 9.787 9.916 9.916 0 0 1-.692 3.632.501.501 0 0 1-.466.318zM13.424 26.717c-.328 0-.646-.084-.945-.25a1.93 1.93 0 0 1-.946.25c-.76 0-1.498-.718-1.938-1.146l-.125-.122a2.078 2.078 0 0 1-1.903-2.069c0-.419.128-.816.366-1.156a1.688 1.688 0 0 1-.366-1.05c0-1.103 1.081-1.989 2.152-1.71a2.405 2.405 0 0 1 2.13-1.311c.878 0 1.675.497 2.086 1.269a2.39 2.39 0 0 1 2.045 1.565c.487.326.782.863.782 1.449 0 .821-.564 1.512-1.325 1.707.043.163.064.33.064.5a2.08 2.08 0 0 1-2.077 2.074zm-.945-1.347c.107 0 .216.035.306.104.786.606 1.716-.025 1.716-.833 0-.313-.151-.552-.279-.698a.502.502 0 0 1-.038-.608.503.503 0 0 1 .577-.194c.571.191 1.001-.216 1.001-.707a.752.752 0 0 0-.427-.669.502.502 0 0 1-.258-.318 1.39 1.39 0 0 0-1.337-1.035c.006.008-.042.018-.092.021a.49.49 0 0 1-.507-.336c-.198-.575-.706-.946-1.293-.946-.647 0-1.218.459-1.356 1.092a.504.504 0 0 1-.763.312.727.727 0 0 0-.402-.143.761.761 0 0 0-.761.761c0 .238.126.46.346.61a.5.5 0 0 1 .043.793c-.251.214-.389.5-.389.804 0 .593.482 1.076 1.076 1.076.24 0 .377.133.649.397.266.259.888.864 1.241.864.215 0 .431-.082.642-.244a.499.499 0 0 1 .305-.103z"/><path d="M13.424 26.717c-.328 0-.646-.084-.945-.25a1.93 1.93 0 0 1-.946.25c-.76 0-1.498-.718-1.938-1.146l-.125-.122a2.078 2.078 0 0 1-1.903-2.069c0-.419.128-.816.366-1.156a1.688 1.688 0 0 1-.366-1.05c0-1.103 1.081-1.989 2.152-1.71a2.405 2.405 0 0 1 2.13-1.311c.878 0 1.675.497 2.086 1.269a2.39 2.39 0 0 1 2.045 1.565c.487.326.782.863.782 1.449 0 .821-.564 1.512-1.325 1.707.043.163.064.33.064.5a2.08 2.08 0 0 1-2.077 2.074zm-.945-1.347c.107 0 .216.035.306.104.786.606 1.716-.025 1.716-.833 0-.313-.151-.552-.279-.698a.502.502 0 0 1-.038-.608.503.503 0 0 1 .577-.194c.571.191 1.001-.216 1.001-.707a.752.752 0 0 0-.427-.669.502.502 0 0 1-.258-.318 1.39 1.39 0 0 0-1.337-1.035c.006.008-.042.018-.092.021a.49.49 0 0 1-.507-.336c-.198-.575-.706-.946-1.293-.946-.647 0-1.218.459-1.356 1.092a.504.504 0 0 1-.763.312.727.727 0 0 0-.402-.143.761.761 0 0 0-.761.761c0 .238.126.46.346.61a.5.5 0 0 1 .043.793c-.251.214-.389.5-.389.804 0 .593.482 1.076 1.076 1.076.24 0 .377.133.649.397.266.259.888.864 1.241.864.215 0 .431-.082.642-.244a.499.499 0 0 1 .305-.103z"/><path d="M13.424 26.717c-.328 0-.646-.084-.945-.25a1.93 1.93 0 0 1-.946.25c-.76 0-1.498-.718-1.938-1.146l-.125-.122a2.078 2.078 0 0 1-1.903-2.069c0-.419.128-.816.366-1.156a1.688 1.688 0 0 1-.366-1.05c0-1.103 1.081-1.989 2.152-1.71a2.405 2.405 0 0 1 2.13-1.311c.878 0 1.675.497 2.086 1.269a2.39 2.39 0 0 1 2.045 1.565c.487.326.782.863.782 1.449 0 .821-.564 1.512-1.325 1.707.043.163.064.33.064.5a2.08 2.08 0 0 1-2.077 2.074zm-.945-1.347c.107 0 .216.035.306.104.786.606 1.716-.025 1.716-.833 0-.313-.151-.552-.279-.698a.502.502 0 0 1-.038-.608.503.503 0 0 1 .577-.194c.571.191 1.001-.216 1.001-.707a.752.752 0 0 0-.427-.669.502.502 0 0 1-.258-.318 1.39 1.39 0 0 0-1.337-1.035c.006.008-.042.018-.092.021a.49.49 0 0 1-.507-.336c-.198-.575-.706-.946-1.293-.946-.647 0-1.218.459-1.356 1.092a.504.504 0 0 1-.763.312.727.727 0 0 0-.402-.143.761.761 0 0 0-.761.761c0 .238.126.46.346.61a.5.5 0 0 1 .043.793c-.251.214-.389.5-.389.804 0 .593.482 1.076 1.076 1.076.24 0 .377.133.649.397.266.259.888.864 1.241.864.215 0 .431-.082.642-.244a.499.499 0 0 1 .305-.103z"/><path d="M15 25.457l-.063-.503.012-.5.055.003h.001c2.832 0 5.441-1.309 7.154-3.591a.5.5 0 0 1 .799.6c-1.903 2.536-4.804 3.991-7.958 3.991zM8.487 22.845a.5.5 0 0 1-.345-.138A9.864 9.864 0 0 1 5.043 15.5c0-2.523.954-4.934 2.687-6.789a.5.5 0 0 1 .731.683A8.92 8.92 0 0 0 6.044 15.5c0 2.47.99 4.772 2.788 6.482a.5.5 0 0 1-.345.863z"/></svg>