<svg xmlns="http://www.w3.org/2000/svg" viewBox="0 0 30 30"><path d="M15.5 19c-.2 0-.3-.1-.4-.2l-6-8.5C9 10.2 9 10 9 9.8l.8-2.3H8c-1.8 0-2 .1-2 .5 0 .2.1.3.2.4.1.1.2.1.2.1.3 0 .5.1.6.4 0 .3-.1.5-.4.6-.4.1-.8-.1-1.1-.3C5.2 8.9 5 8.4 5 8c0-1.5 1.4-1.5 3-1.5h2.5c.2 0 .3.1.4.2.1.1.1.3.1.5l-.9 2.8 5.3 7.6L20 6.8c.1-.3.4-.4.7-.3.3.2.4.4.3.7l-5 11.5c-.1.2-.3.3-.5.3z"/><path d="M21.5 7.5h-4c-.3 0-.5-.2-.5-.5s.2-.5.5-.5h4c.3 0 .5.2.5.5s-.2.5-.5.5zM15.5 19c-.3 0-.5-.2-.5-.5s.2-.5.5-.5l7.2-.4-3.9-6.1-8.9-.9-3.4 7.7c-.1.3-.4.4-.7.3-.3-.1-.4-.4-.3-.7l3.5-8c.1-.2.3-.3.5-.3l9.5 1c.2 0 .3.1.4.2l4.5 7c.1.1.1.3 0 .5s-.2.3-.4.3l-8 .4z"/><path d="M6 23.5c-3.3 0-6-2.7-6-6s2.7-6 6-6 6 2.7 6 6-2.7 6-6 6zm0-11c-2.8 0-5 2.2-5 5s2.2 5 5 5 5-2.2 5-5-2.2-5-5-5zM24 23.5c-3.3 0-6-2.7-6-6s2.7-6 6-6 6 2.7 6 6-2.7 6-6 6zm0-11c-2.8 0-5 2.2-5 5s2.2 5 5 5 5-2.2 5-5-2.2-5-5-5z"/></svg>