<svg xmlns="http://www.w3.org/2000/svg" viewBox="0 0 30 30"><path d="M29 27.5c-.3 0-.5-.2-.5-.5v-4.5h-27V27c0 .3-.2.5-.5.5s-.5-.2-.5-.5v-5c0-.3.2-.5.5-.5h28c.3 0 .5.2.5.5v5c0 .3-.2.5-.5.5z"/><path d="M28.8 26.5H1.3c-.3 0-.5-.2-.5-.5s.2-.5.5-.5h27.5c.3 0 .5.2.5.5s-.3.5-.5.5zM29 22.5c-.2 0-.4-.1-.5-.3l-5-11c-.1-.3 0-.5.2-.7.3-.1.5 0 .7.2l4 8.9V17c0-.3.2-.5.5-.5s.5.2.5.5v5c0 .2-.2.4-.4.5.1 0 0 0 0 0zM1 22.5H.9c-.2-.1-.4-.3-.4-.5v-5c0-.3.2-.5.5-.5s.5.2.5.5v2.7l4-8.9c.1-.2.3-.3.5-.3h2c.3 0 .5.2.5.5s-.2.5-.5.5H6.3L1.5 22.2c-.1.2-.3.3-.5.3z"/><path d="M24 11.5h-2.1c-.3 0-.5-.2-.5-.5s.2-.5.5-.5h1.6v-5c0-1.1-.9-2-2-2h-13c-1.1 0-2 .9-2 2V11c0 .3-.2.5-.5.5s-.5-.2-.5-.5V5.5c0-1.7 1.3-3 3-3h13c1.7 0 3 1.3 3 3V11c0 .3-.2.5-.5.5z"/><path d="M12.8 14.5H9.3c-.5 0-1-.2-1.3-.6s-.5-.9-.5-1.4L8 9c.1-.9.9-1.5 1.7-1.5h3c1 0 1.8.8 1.8 1.8v3.5c0 .9-.8 1.7-1.7 1.7zm-3.1-6c-.3 0-.7.3-.7.7l-.5 3.5c0 .2 0 .4.2.6s.3.3.6.3h3.5c.4 0 .8-.3.8-.8V9.3c0-.4-.3-.8-.8-.8H9.7zM20.8 14.5h-3.5c-1 0-1.8-.8-1.8-1.8V9.3c0-1 .8-1.8 1.8-1.8h3c.9 0 1.6.7 1.7 1.5l.5 3.5c.1.5-.1 1-.4 1.4-.4.4-.8.6-1.3.6zm-3.5-6c-.4 0-.8.3-.8.8v3.5c0 .4.3.8.8.8h3.5c.2 0 .4-.1.6-.3s.2-.4.2-.6L21 9.2c0-.4-.4-.7-.7-.7h-3z"/><g><path d="M16 11.5h-2c-.3 0-.5-.2-.5-.5s.2-.5.5-.5h2c.3 0 .5.2.5.5s-.2.5-.5.5z"/></g></svg>