<svg xmlns="http://www.w3.org/2000/svg" viewBox="0 0 30 30"><path d="M8 30H2c-.8 0-1.5-.7-1.5-1.5v-27C.5.7 1.2 0 2 0h6c.8 0 1.5.7 1.5 1.5v27c0 .8-.7 1.5-1.5 1.5zM2 1c-.3 0-.5.2-.5.5v27c0 .3.2.5.5.5h6c.3 0 .5-.2.5-.5v-27c0-.3-.2-.5-.5-.5H2z"/><path d="M6 8H4c-.3 0-.5-.2-.5-.5S3.7 7 4 7h2c.3 0 .5.2.5.5S6.3 8 6 8zM6 6H4c-.3 0-.5-.2-.5-.5S3.7 5 4 5h2c.3 0 .5.2.5.5S6.3 6 6 6zM6 4H4c-.3 0-.5-.2-.5-.5S3.7 3 4 3h2c.3 0 .5.2.5.5S6.3 4 6 4zM5 26c-.8 0-1.5-.7-1.5-1.5S4.2 23 5 23s1.5.7 1.5 1.5S5.8 26 5 26zm0-2c-.3 0-.5.2-.5.5s.2.5.5.5.5-.2.5-.5-.2-.5-.5-.5zM18 30h-6c-.8 0-1.5-.7-1.5-1.5v-27c0-.8.7-1.5 1.5-1.5h6c.8 0 1.5.7 1.5 1.5v27c0 .8-.7 1.5-1.5 1.5zM12 1c-.3 0-.5.2-.5.5v27c0 .3.2.5.5.5h6c.3 0 .5-.2.5-.5v-27c0-.3-.2-.5-.5-.5h-6z"/><path d="M16 8h-2c-.3 0-.5-.2-.5-.5s.2-.5.5-.5h2c.3 0 .5.2.5.5s-.2.5-.5.5zM16 6h-2c-.3 0-.5-.2-.5-.5s.2-.5.5-.5h2c.3 0 .5.2.5.5s-.2.5-.5.5zM16 4h-2c-.3 0-.5-.2-.5-.5s.2-.5.5-.5h2c.3 0 .5.2.5.5s-.2.5-.5.5zM15 26c-.8 0-1.5-.7-1.5-1.5S14.2 23 15 23s1.5.7 1.5 1.5S15.8 26 15 26zm0-2c-.3 0-.5.2-.5.5s.2.5.5.5.5-.2.5-.5-.2-.5-.5-.5zM28 30h-6c-.8 0-1.5-.7-1.5-1.5v-27c0-.8.7-1.5 1.5-1.5h6c.8 0 1.5.7 1.5 1.5v27c0 .8-.7 1.5-1.5 1.5zM22 1c-.3 0-.5.2-.5.5v27c0 .3.2.5.5.5h6c.3 0 .5-.2.5-.5v-27c0-.3-.2-.5-.5-.5h-6z"/><path d="M26 8h-2c-.3 0-.5-.2-.5-.5s.2-.5.5-.5h2c.3 0 .5.2.5.5s-.2.5-.5.5zM26 6h-2c-.3 0-.5-.2-.5-.5s.2-.5.5-.5h2c.3 0 .5.2.5.5s-.2.5-.5.5zM26 4h-2c-.3 0-.5-.2-.5-.5s.2-.5.5-.5h2c.3 0 .5.2.5.5s-.2.5-.5.5zM25 26c-.8 0-1.5-.7-1.5-1.5S24.2 23 25 23s1.5.7 1.5 1.5S25.8 26 25 26zm0-2c-.3 0-.5.2-.5.5s.2.5.5.5.5-.2.5-.5-.2-.5-.5-.5z"/></svg>