<svg xmlns="http://www.w3.org/2000/svg" viewBox="0 0 30 30"><path d="M27 30c-2 0-2.9-1.1-3.8-2.2-.3-.3-.6-.7-.9-1-1.1-1.2-3.8-1.8-7.3-1.8s-6.2.6-7.3 1.7c-.3.3-.6.7-.9 1C5.9 28.9 5 30 3 30c-3 0-3-3.8-3-6.1C0 16.4 4.3 9 7.5 9c1.4 0 2.2.4 3.1.9 1 .5 2 1.1 4.4 1.1s3.4-.6 4.4-1.1c.9-.5 1.7-.9 3.1-.9 3.2 0 7.5 7.4 7.5 14.9 0 2.3 0 6.1-3 6.1zm-12-6c2.2 0 6.2.3 8 2 .4.4.7.7 1 1.1.8 1 1.5 1.9 3.1 1.9 1.7 0 2-1.9 2-5.1 0-7.6-4.3-13.9-6.5-13.9-1.2 0-1.8.3-2.6.8-1.2.6-2.4 1.2-5 1.2s-3.8-.6-4.9-1.2c-.8-.5-1.4-.8-2.6-.8C5.3 10 1 16.3 1 23.9c0 3.2.3 5.1 2 5.1 1.6 0 2.2-.8 3.1-1.9.3-.4.6-.8 1-1.1 1.7-1.7 5.7-2 7.9-2z"/><path d="M10.5 22c-.3 0-.5-.2-.5-.5v-2c0-.3.2-.5.5-.5s.5.2.5.5v2c0 .3-.2.5-.5.5z"/><path d="M11.5 21h-2c-.3 0-.5-.2-.5-.5s.2-.5.5-.5h2c.3 0 .5.2.5.5s-.2.5-.5.5zM17 11.5c-.2 0-.3-.1-.4-.2l-.9-1.3h-1.5l-.9 1.3c-.2.2-.5.3-.7.1-.2-.2-.3-.5-.1-.7l1-1.5c.2-.1.3-.2.5-.2h2c.2 0 .3.1.4.2l1 1.5c.2.2.1.5-.1.7-.1.1-.2.1-.3.1z"/><path d="M15 10c-.3 0-.5-.2-.5-.5 0-6.3 2.4-9.5 7-9.5.3 0 .5.2.5.5s-.2.5-.5.5c-4 0-6 2.8-6 8.5 0 .3-.2.5-.5.5zM7.5 17C6.1 17 5 15.9 5 14.5S6.1 12 7.5 12s2.5 1.1 2.5 2.5S8.9 17 7.5 17zm0-4c-.8 0-1.5.7-1.5 1.5S6.7 16 7.5 16 9 15.3 9 14.5 8.3 13 7.5 13zM19.5 22c-.8 0-1.5-.7-1.5-1.5s.7-1.5 1.5-1.5 1.5.7 1.5 1.5-.7 1.5-1.5 1.5zm0-2c-.3 0-.5.2-.5.5s.2.5.5.5.5-.2.5-.5-.2-.5-.5-.5z"/><circle cx="22.5" cy="16.5" r=".5"/><circle cx="21.5" cy="12.5" r=".5"/><circle cx="23.5" cy="14.5" r=".5"/><circle cx="20.5" cy="14.5" r=".5"/></svg>