<svg xmlns="http://www.w3.org/2000/svg" viewBox="-236 286 30 30"><path d="M-206.1 301.7c.1 0 .1 0 0 0 0-.1 0-.1.1-.2v-.1l-1-7.2-5.9-4.3-3.6 1.8-.9-2.1c.3-.3.5-.7.5-1.1 0-.8-.7-1.5-1.5-1.5s-1.5.7-1.5 1.5.7 1.5 1.5 1.5h.1l.9 2.2-5.1 2.6-.9-2.1c.3-.3.5-.7.5-1.1 0-.8-.7-1.5-1.5-1.5s-1.5.7-1.5 1.5.7 1.5 1.5 1.5h.1l.9 2.2-5.1 2.6-.9-2.1c.3-.3.5-.7.5-1.1 0-.8-.7-1.5-1.5-1.5s-1.5.7-1.5 1.5.7 1.5 1.5 1.5h.1l.9 2.2-4.1 2 .5 2.9-2.6.9c-.3.1-.4.4-.3.6.1.2.3.3.5.3h.2l2.6-.9 3.1 6.2-6.1 3.8c-.2.1-.3.5-.2.7.1.2.3.2.4.2.1 0 .2 0 .3-.1l6.3-3.9 2.3.9h.2c.1 0 .2 0 .2-.1l2.9-1.5.8 1.9c-.3.3-.5.7-.5 1.1 0 .8.7 1.5 1.5 1.5s1.5-.7 1.5-1.5-.7-1.5-1.5-1.5h-.1l-.8-2 5.1-2.6.8 1.9c-.3.3-.5.7-.5 1.1 0 .8.7 1.5 1.5 1.5s1.5-.7 1.5-1.5-.7-1.5-1.5-1.5h-.1l-.8-2 5.1-2.6.8 1.9c-.3.3-.5.7-.5 1.1 0 .8.7 1.5 1.5 1.5s1.5-.7 1.5-1.5-.7-1.5-1.5-1.5h-.1l-.8-2 4.2-2.1s.1 0 .1-.1c-.2.4-.1.3-.1.2 0 .1 0 .1 0 0zm-12-13.4l-.1-.1c.1 0 .1 0 .1.1zm-.3-.3c-.1 0-.1 0 0 0-.1 0-.1 0 0 0-.1 0-.1 0 0 0zm.2.1c-.1 0-.1 0 0 0-.1 0-.1 0 0 0zm-.4-.1h-.1.1zm-.1.1c-.1 0-.1.1-.1.1 0-.1 0-.1.1-.1zm-.3.4zm.1-.3c0 .1 0 .1 0 0 0 .1 0 .1 0 0zm-.1.5zm-5.1 2.6c0-.1-.1-.1-.1-.1.1 0 .1 0 .1.1zm-.3-.3h-.1.1zm.2.1l-.1-.1c0 .1.1.1.1.1zm-.3-.1h-.2.2zm-.2.1c-.1 0-.1.1-.1.1 0-.1 0-.1.1-.1zm-.3.4zm.1-.3c0 .1 0 .1 0 0 0 .1 0 .1 0 0zm-.1.5zm-5.1 2.6l-.1-.1c.1 0 .1 0 .1.1zm-.4-.3zm.3.1c-.1 0-.1-.1 0 0-.1-.1-.1 0 0 0zm-.4-.1h-.1.1zm-.1.1c-.1 0-.1.1-.1.1 0-.1 0-.1.1-.1zm-.3.4zm.1-.3c0 .1 0 .1 0 0 0 .1 0 .1 0 0zm-.1.5zm9 19c0 .1.1.1.2.2l-.2-.2zm.3.2c.1 0 .2.1.2.1h.2-.2c-.1 0-.2 0-.2-.1zm.5 0zm.2-.4zm-.1.3c0-.1.1-.1 0 0 .1-.1 0-.1 0 0zm.1-.5zm5-2.6c0 .1.1.1.2.2l-.2-.2zm.3.2c.1 0 .2.1.2.1h.2-.2c-.1 0-.2 0-.2-.1zm.5 0zm.2-.4zm-.1.3c0-.1.1-.1 0 0 .1-.1 0-.1 0 0zm.1-.5zm5-2.6c0 .1.1.1.2.2l-.2-.2zm.3.2c.1 0 .2.1.2.1h.2-.2c-.1 0-.2 0-.2-.1zm.5 0zm.2-.4zm-.1.3c0-.1.1-.1 0 0 .1-.1 0-.1 0 0zm.1-.5zm-17.5 3.7l-2.1-.8-3.4-6.8-.4-2.6 19.4-9.7 5.1 3.7.9 6.4-19.5 9.8z"/><path d="M-221.8 298.1c-.1.1-.1.2-.1.4s0 .3.1.3c.1.1.2.2.4.2s.3-.1.4-.2c.1-.1.1-.2.1-.3s0-.3-.2-.4c-.2-.1-.6-.1-.7 0zM-227.9 301.1c-.1.1-.1.2-.1.4s0 .3.1.4c.1.1.2.1.4.1s.3-.1.4-.2c.1-.1.1-.2.1-.3s0-.3-.1-.4c-.2-.1-.5-.1-.8 0zM-215.9 295.1c-.1.1-.1.2-.1.4s0 .3.1.3c.1.1.2.2.4.2s.3-.1.4-.1c.1-.1.1-.2.1-.4s0-.3-.1-.4c-.2-.1-.6-.1-.8 0zM-218.9 303.1c-.1.1-.1.2-.1.4s0 .3.1.4c.1.1.2.1.4.1s.3-.1.4-.2c.1-.1.1-.2.1-.3s0-.3-.1-.4c-.2-.1-.5-.1-.8 0zM-224.8 306.1c-.1.1-.1.2-.1.4s0 .3.1.3c.1.1.2.2.4.2s.3-.1.4-.2c.1-.1.1-.2.1-.3s0-.3-.2-.4c-.2-.1-.6-.1-.7 0zM-212.8 300.1c-.1.1-.1.2-.1.4s0 .3.1.3c.1.1.2.2.4.2s.3-.1.4-.2c.1-.1.1-.2.1-.3s0-.3-.1-.4c-.3-.1-.7-.1-.8 0z"/></svg>