<svg xmlns="http://www.w3.org/2000/svg" viewBox="0 0 30 30"><path d="M27.5 17.5h-25C1.1 17.5 0 16.4 0 15V5c0-1.4 1.1-2.5 2.5-2.5h25C28.9 2.5 30 3.6 30 5v10c0 1.4-1.1 2.5-2.5 2.5zm-25-14C1.7 3.5 1 4.2 1 5v10c0 .8.7 1.5 1.5 1.5h25c.8 0 1.5-.7 1.5-1.5V5c0-.8-.7-1.5-1.5-1.5h-25z"/><path d="M29.5 11.5H.5c-.3 0-.5-.2-.5-.5s.2-.5.5-.5h29c.3 0 .5.2.5.5s-.2.5-.5.5zM9.5 27.5c-.1 0-.3 0-.4-.1-.2-.2-.2-.5 0-.7.8-.8.5-1.9-.1-3.5-.5-1.5-1.2-3.2.1-4.5.2-.2.5-.2.7 0s.2.5 0 .7c-.8.8-.5 1.8.1 3.4.6 1.5 1.2 3.3-.1 4.6 0 .1-.2.1-.3.1zM14.5 27.5c-.1 0-.3 0-.4-.1-.2-.2-.2-.5 0-.7.8-.8.5-1.9-.1-3.5-.5-1.5-1.2-3.2.1-4.5.2-.2.5-.2.7 0s.2.5 0 .7c-.8.8-.5 1.8.1 3.4.6 1.5 1.2 3.3-.1 4.6 0 .1-.2.1-.3.1zM19.5 27.5c-.1 0-.3 0-.4-.1-.2-.2-.2-.5 0-.7.8-.8.5-1.9-.1-3.5-.5-1.5-1.2-3.2.1-4.5.2-.2.5-.2.7 0s.2.5 0 .7c-.8.8-.5 1.8.1 3.4.6 1.5 1.2 3.3-.1 4.6 0 .1-.2.1-.3.1zM26.5 14.5h-23c-.3 0-.5-.2-.5-.5s.2-.5.5-.5h23c.3 0 .5.2.5.5s-.2.5-.5.5zM3.5 9.5c-.3 0-.5-.2-.5-.5V5c0-.3.2-.5.5-.5s.5.2.5.5v4c0 .3-.2.5-.5.5zM6.5 9.5c-.3 0-.5-.2-.5-.5V5c0-.3.2-.5.5-.5s.5.2.5.5v4c0 .3-.2.5-.5.5zM9.5 9.5c-.3 0-.5-.2-.5-.5V5c0-.3.2-.5.5-.5s.5.2.5.5v4c0 .3-.2.5-.5.5zM12.5 9.5c-.3 0-.5-.2-.5-.5V5c0-.3.2-.5.5-.5s.5.2.5.5v4c0 .3-.2.5-.5.5z"/><g><path d="M15.5 9.5c-.3 0-.5-.2-.5-.5V5c0-.3.2-.5.5-.5s.5.2.5.5v4c0 .3-.2.5-.5.5z"/></g><g><path d="M18.5 9.5c-.3 0-.5-.2-.5-.5V5c0-.3.2-.5.5-.5s.5.2.5.5v4c0 .3-.2.5-.5.5z"/></g><g><path d="M21.5 9.5c-.3 0-.5-.2-.5-.5V5c0-.3.2-.5.5-.5s.5.2.5.5v4c0 .3-.2.5-.5.5z"/></g><g><path d="M24.5 9.5c-.3 0-.5-.2-.5-.5V5c0-.3.2-.5.5-.5s.5.2.5.5v4c0 .3-.2.5-.5.5z"/></g><g><circle cx="26.5" cy="9" r=".5"/></g></svg>