<svg xmlns="http://www.w3.org/2000/svg" viewBox="0 0 30 30"><path d="M9.9 20C6.5 20 1 15.8.2 11.4-.3 9 .3 6.2 1.8 4.1 3.1 2.4 4.9 1.2 6.9 1c2.7-.3 5.8.7 7.8 2.8.2.2.2.5 0 .7-.2.2-.5.2-.7 0C12.2 2.7 9.4 1.7 7 2c-1.7.2-3.3 1.2-4.4 2.7C1.3 6.6.7 9 1.1 11.3c.8 4.1 6.4 8.2 9.2 7.7 1.3-.3 2.9-1.5 4-3.4.1-.2.5-.3.7-.2.2.1.3.5.2.7-1.3 2.1-3 3.5-4.6 3.8-.2.1-.5.1-.7.1z"/><path d="M2.6 11.5c-.2 0-.4-.2-.5-.4-.4-2 .1-4.2 1.3-5.8.7-.9 1.9-2.1 3.8-2.3.3 0 .5.2.6.4 0 .3-.2.5-.4.6-1.6.2-2.6 1.1-3.2 1.9-1 1.4-1.5 3.3-1.1 5 .1.3-.1.6-.5.6.1 0 0 0 0 0zM9.5 22.5c-.2 0-.3-.1-.4-.2-.1-.1-.2-.3-.1-.5l1-2.5c.1-.2.2-.3.4-.3s.3 0 .5.1l2 2c.1.1.2.3.1.5s-.2.3-.4.3l-3.1.6zm1.2-2.1l-.4 1 1.2-.2-.8-.8zM18.6 18.4c-.9 0-1.7-.2-2.4-.5-3.1-1.7-4.3-9.6-2.2-13.7C15 2.3 16.7 1 18.8.3c2.4-.6 4.9-.3 6.9.7 1.9 1 3.3 2.9 3.9 5.1.6 2.3.4 4.6-.7 6.6-1.1 1.9-3.3 3.7-6 4.8-1.5.6-3 .9-4.3.9zM21.5 1c-.8 0-1.6.1-2.4.3-1.9.6-3.4 1.8-4.3 3.4-1.9 3.5-.8 10.9 1.8 12.3 1.2.7 3.5.5 5.8-.5 2.5-1 4.6-2.6 5.5-4.3 1-1.8 1.2-3.9.6-5.9-.6-1.9-1.8-3.5-3.4-4.5-1-.5-2.2-.8-3.6-.8z"/><path d="M16.2 5.9c-.1 0-.2 0-.2-.1-.2-.1-.3-.4-.2-.7C17.1 2.8 19.6 2 21.5 2c1.2 0 2.3.3 3.2.8.3.1.4.4.3.7-.1.2-.4.3-.7.2-.8-.5-1.8-.7-2.8-.7-1.7 0-3.8.7-4.9 2.7 0 .1-.2.2-.4.2zM17 20.5h-.2L13.3 19c-.2-.1-.3-.3-.3-.5s.1-.4.3-.5l3-1h.4c.1.1.2.2.2.3l.5 2.5c0 .2 0 .4-.2.5 0 .1-.1.2-.2.2zm-2.1-2l1.4.6-.2-1-1.2.4z"/><path d="M13.5 30c-.2 0-.4-.1-.5-.3l-2.5-7.5c-.1-.3.1-.5.3-.6.3-.1.5.1.6.3l1.9 5.7 1.6-8.2c.1-.3.3-.4.6-.4.3.1.4.3.4.6l-2 10c0 .2-.2.4-.4.4z"/></svg>