<svg xmlns="http://www.w3.org/2000/svg" viewBox="0 0 30 30"><path d="M15 19c-3.7 0-8.5-6-8.5-10.5C6.5 3.7 10.2 0 15 0s8.5 3.7 8.5 8.5C23.5 13 18.7 19 15 19zm0-18c-4.2 0-7.5 3.3-7.5 7.5 0 4.3 4.6 9.5 7.5 9.5s7.5-5.2 7.5-9.5C22.5 4.3 19.2 1 15 1z"/><path d="M9 9c-.3 0-.5-.2-.5-.5C8.5 4.9 11.4 2 15 2c.3 0 .5.2.5.5s-.2.5-.5.5c-3.1 0-5.5 2.4-5.5 5.5 0 .3-.2.5-.5.5zM17 21h-4c-.2 0-.4-.1-.5-.3-.1-.2 0-.4.1-.5l2-2c.2-.2.5-.2.7 0l2 2c.1.1.2.4.1.5 0 .2-.2.3-.4.3zm-2.8-1h1.6l-.8-.8-.8.8z"/><path d="M15 30c-.3 0-.5-.2-.5-.5 0-.6.3-1.1.5-1.5.2-.4.5-.8.5-1.5 0-.5-.8-1.1-1.5-1.6-.8-.6-1.5-1.1-1.5-1.9 0-.8.7-1.4 1.3-1.9.2-.2.7-.5.7-.6 0-.3.2-.5.5-.5s.5.2.5.5c0 .6-.5 1-1.1 1.4-.4.3-.9.7-.9 1.1 0 .3.7.8 1.1 1.1.9.6 1.9 1.4 1.9 2.4 0 .9-.3 1.5-.6 2-.2.4-.4.7-.4 1 0 .3-.2.5-.5.5z"/></svg>