<svg xmlns="http://www.w3.org/2000/svg" viewBox="0 0 30 30"><path d="M6.5 30c-.2 0-.3-.1-.4-.2C4.6 27.3 3 24.2 3 21.5c0-1.2.7-2.7 1.3-4.3.8-1.8 1.7-3.9 1.7-5.7 0-.3.2-.5.5-.5s.5.2.5.5c0 2-.9 4.2-1.7 6.1-.7 1.5-1.3 2.9-1.3 3.9 0 2.3 1.5 5.3 2.7 7.4 1.3-.4 1.7-.3 2.6-.2.8.1 1.9.3 4.7.3 3.2 0 5.2-.3 7-.5 1.6-.2 3.2-.5 5.5-.5.3 0 .5.2.5.5s-.2.5-.5.5c-2.2 0-3.7.2-5.3.4-1.9.3-3.9.6-7.2.6-2.8 0-4.1-.2-4.8-.3-.8-.1-1-.2-2.6.3h-.1z"/><path d="M10.5 22c-.1 0-.3 0-.4-.1-.2-.2-.2-.5 0-.7l.1-.1c.6-.6.9-1.8.8-3.2-.1-1.3-.4-2.5-.9-3-.2-.2-.2-.5 0-.7s.5-.2.7 0c.9.9 1.4 3.6 1 5.7 1.6-.9 4-1.4 7.1.5 1.5-1.6 4.7-3.6 7.9-1.2.2.2.3.5.1.7-.2.2-.5.3-.7.1-3.5-2.5-6.7 1.3-6.8 1.4-.2.2-.5.2-.7.1-4.1-2.9-6.9-.5-7.8.3l-.1.1c0 .1-.2.1-.3.1zM12.5 7c-.3 0-.5-.2-.5-.5s.2-.5.5-.5.5.2.5.5-.2.5-.5.5z"/><path d="M12.5 9C11.1 9 10 7.9 10 6.5S11.1 4 12.5 4 15 5.1 15 6.5 13.9 9 12.5 9zm0-4c-.8 0-1.5.7-1.5 1.5S11.7 8 12.5 8 14 7.3 14 6.5 13.3 5 12.5 5z"/><path d="M12.5 13C8.9 13 6 10.1 6 6.5S8.9 0 12.5 0 19 2.9 19 6.5 16.1 13 12.5 13zm0-12C9.5 1 7 3.5 7 6.5S9.5 12 12.5 12 18 9.5 18 6.5 15.5 1 12.5 1z"/></svg>