<svg xmlns="http://www.w3.org/2000/svg" viewBox="0 0 30 30"><path d="M24.683 15.557a.5.5 0 0 1-.203-.957c2.237-.995 3.52-2.233 3.52-3.4C28 9.343 17.948 6 14.5 6S1 9.343 1 11.2c0 1.148 1.286 2.381 3.528 3.382a.502.502 0 0 1-.408.914C1.463 14.31 0 12.784 0 11.2 0 8.016 11.909 5 14.5 5S29 8.016 29 11.2c0 1.603-1.461 3.135-4.114 4.313a.492.492 0 0 1-.203.044z"/><path d="M15.812 18.669h-.553l-1.266-.002-.255.001c-5.969 0-9.312-.26-9.879-1.568a.506.506 0 0 1-.041-.199V15a.5.5 0 0 1 .434-.495c.048-.007 4.816-.639 10.248-.639 5.489 0 10.202.632 10.249.639a.5.5 0 0 1 .433.495v1.9a.51.51 0 0 1-.045.207c-.588 1.293-3.733 1.562-9.325 1.562zM14.5 17.667l.762.002c2.277-.001 8.202.023 8.92-.902v-1.325a86.579 86.579 0 0 0-9.682-.575c-4.421 0-8.396.424-9.682.576v1.328c.697.907 7.06.913 9.173.896h.509zm10.182-.767h.01-.01z"/><path d="M14.5 25c-5.399 0-8.67-.9-9.999-2.752-1.118-1.559-.515-3.343-.191-4.302.07-.206.131-.376.151-.498a.505.505 0 0 1 .578-.408.501.501 0 0 1 .408.578c-.028.159-.1.381-.189.648-.305.898-.764 2.257.056 3.398C6.41 23.192 9.586 24 14.5 24c4.986 0 8.077-.781 9.188-2.323.813-1.13.359-2.489.059-3.388a5.152 5.152 0 0 1-.193-.673.501.501 0 0 1 .986-.166c.021.13.084.307.156.521.32.959.917 2.744-.196 4.29C23.172 24.104 19.901 25 14.5 25zM14.5 12.333a.5.5 0 0 1-.5-.5v-3.8a.5.5 0 0 1 1 0v3.8a.5.5 0 0 1-.5.5z"/><path d="M14.5 12.333c-1.736 0-3.046-.76-3.046-1.767a.5.5 0 0 1 1 0c0 .271.776.767 2.046.767s2.046-.496 2.046-.767a.5.5 0 0 1 1 0c0 1.007-1.31 1.767-3.046 1.767zM15.137 9.167h-1.273a.5.5 0 0 1 0-1h1.273a.5.5 0 0 1 0 1z"/></svg>