<svg xmlns="http://www.w3.org/2000/svg" viewBox="0 0 30 30"><path d="M25.04 8H14.962c-.806 0-1.461.655-1.461 1.539 0 .806.655 1.461 1.461 1.461h2.971l-4.167 5H7.042C7.265 12.345 6.139 4.502 4.465.315a.5.5 0 1 0-.929.371c1.716 4.29 2.845 12.513 2.468 15.757v.005L4.505 29.442a.5.5 0 0 0 .439.554.492.492 0 0 0 .554-.439L6.254 23h12.241l1.012 6.576a.5.5 0 0 0 .988-.152l-2-13a.5.5 0 0 0-.494-.424h-2.932l4.167-5h5.804c.806 0 1.461-.655 1.461-1.539 0-.806-.655-1.461-1.461-1.461zm-7.468 9l.769 5H6.37l.577-5h10.625zm7.468-7H14.962c-.254 0-.461-.206-.461-.539 0-.254.207-.461.461-.461H25.04c.254 0 .461.207.461.539a.462.462 0 0 1-.461.461z"/></svg>