<svg xmlns="http://www.w3.org/2000/svg" viewBox="0 0 30 30"><path d="M29 29.5h-5c-.3 0-.5-.2-.5-.5v-.5h-17v.5c0 .3-.2.5-.5.5H1c-.3 0-.5-.2-.5-.5V1C.5.7.7.5 1 .5h28c.3 0 .5.2.5.5v28c0 .3-.2.5-.5.5zm-4.5-1h4v-27h-27v27h4V28c0-.3.2-.5.5-.5h18c.3 0 .5.2.5.5v.5z"/><path d="M24 28.5H6c-.3 0-.5-.2-.5-.5V7c0-.3.2-.5.5-.5h18c.3 0 .5.2.5.5v21c0 .3-.2.5-.5.5zm-17.5-1h17v-20h-17v20z"/><path d="M15 28.5c-.3 0-.5-.2-.5-.5V7c0-.3.2-.5.5-.5s.5.2.5.5v21c0 .3-.2.5-.5.5zM12 5.5c-.1 0-.3 0-.4-.1l-.6-.7-.6.6c-.2.2-.5.2-.7 0s-.2-.5 0-.7l1-1c.2-.2.5-.2.7 0l1 1c.2.2.2.5 0 .7-.1.2-.3.2-.4.2zM18 5.5c-.1 0-.3 0-.4-.1l-1-1c-.2-.2-.2-.5 0-.7s.5-.2.7 0l.7.6.6-.6c.2-.2.5-.2.7 0s.2.5 0 .7l-1 1c0 .1-.2.1-.3.1z"/><circle cx="26" cy="14" r=".5"/><circle cx="26" cy="16" r=".5"/></svg>