<svg xmlns="http://www.w3.org/2000/svg" viewBox="0 0 30 30"><path d="M27 10h-7V3c0-1.103-.897-2-2-2h-6c-1.103 0-2 .897-2 2v7H3c-1.103 0-2 .897-2 2v6c0 1.103.897 2 2 2h7v7c0 1.103.897 2 2 2h6c1.103 0 2-.897 2-2v-7h7c1.103 0 2-.897 2-2v-6c0-1.103-.897-2-2-2zm1 8c0 .551-.448 1-1 1h-7.5a.5.5 0 0 0-.5.5V27c0 .551-.448 1-1 1h-6c-.552 0-1-.449-1-1v-7.5a.5.5 0 0 0-.5-.5H3c-.552 0-1-.449-1-1v-6c0-.551.448-1 1-1h7.5a.5.5 0 0 0 .5-.5V3c0-.551.448-1 1-1h6c.552 0 1 .449 1 1v7.5a.5.5 0 0 0 .5.5H27c.552 0 1 .449 1 1v6z"/></svg>