<svg xmlns="http://www.w3.org/2000/svg" viewBox="0 0 30 30"><path d="M28.3 30h-2.5c-1.1 0-1.9-.6-2.4-1.7L20.1 22H9.8l-3.2 6.6c-.5.9-1.4 1.4-2.4 1.4H1.8c-1 0-1.7-.8-1.8-1.7 0-.9.1-1.8.4-2.6L.9 24c.5-1.6.3-4.3-.4-6-.4-1.1-.6-2.3-.4-3.5.4-2.6 2.5-4.7 5.3-5.3 2-.5 3.8-.2 5.3.8h8.7c1.4-1 3.2-1.3 5.3-.8 2.7.6 4.9 2.9 5.3 5.5.2 1.2.1 2.4-.4 3.5-.7 1.7-.8 4.1-.4 5.7l.5 1.7c.2.8.4 1.7.4 2.6-.1 1-.9 1.8-1.8 1.8zM9.5 21h10.9c.2 0 .4.1.4.3l3.4 6.6c.3.7.8 1.1 1.5 1.1h2.5c.4 0 .7-.3.8-.7 0-.8-.1-1.6-.3-2.3l-.5-1.7c-.5-1.8-.3-4.4.4-6.4.4-.9.5-2 .3-3-.3-2.3-2.2-4.2-4.5-4.7-1.8-.4-3.4-.1-4.6.8h-9.3c-.1 0-.2 0-.3-.1-1.2-.9-2.8-1.2-4.7-.8-2.4.5-4.1 2.3-4.5 4.5-.2 1 0 2.1.3 3 .8 1.9.9 4.8.4 6.6l-.5 1.7c-.1.8-.2 1.6-.2 2.4 0 .4.3.7.8.7h2.5c.6 0 1.2-.3 1.5-.9l3.4-6.9c-.1-.1.1-.2.3-.2z"/><path d="M7.5 20h-2c-.3 0-.5-.2-.5-.5V17H2.5c-.3 0-.5-.2-.5-.5v-2c0-.3.2-.5.5-.5H5v-2.5c0-.3.2-.5.5-.5h2c.3 0 .5.2.5.5V14h2.5c.3 0 .5.2.5.5v2c0 .3-.2.5-.5.5H8v2.5c0 .3-.2.5-.5.5zM6 19h1v-2.5c0-.3.2-.5.5-.5H10v-1H7.5c-.3 0-.5-.2-.5-.5V12H6v2.5c0 .3-.2.5-.5.5H3v1h2.5c.3 0 .5.2.5.5V19zM12.5 20h-1c-.3 0-.5-.2-.5-.5s.2-.5.5-.5h1c.3 0 .5.2.5.5s-.2.5-.5.5zM17.5 20h-1c-.3 0-.5-.2-.5-.5s.2-.5.5-.5h1c.3 0 .5.2.5.5s-.2.5-.5.5zM17.5 11c-.1 0-.3 0-.4-.1L15.3 9h-.6l-1.9 1.9c-.2.2-.5.2-.7 0s-.2-.5 0-.7l2-2c.1-.1.3-.2.4-.2h1c.1 0 .3.1.4.1l2 2c.2.2.2.5 0 .7-.1.2-.3.2-.4.2z"/><path d="M15 9c-.3 0-.5-.2-.5-.5 0-5.5 2.8-8.5 8-8.5.3 0 .5.2.5.5s-.2.5-.5.5c-4.6 0-7 2.5-7 7.5 0 .3-.2.5-.5.5zM23.5 15c-.8 0-1.5-.7-1.5-1.5s.7-1.5 1.5-1.5 1.5.7 1.5 1.5-.7 1.5-1.5 1.5zm0-2c-.3 0-.5.2-.5.5s.2.5.5.5.5-.2.5-.5-.2-.5-.5-.5zM23.5 19c-.8 0-1.5-.7-1.5-1.5s.7-1.5 1.5-1.5 1.5.7 1.5 1.5-.7 1.5-1.5 1.5zm0-2c-.3 0-.5.2-.5.5s.2.5.5.5.5-.2.5-.5-.2-.5-.5-.5z"/><path d="M21.5 17c-.8 0-1.5-.7-1.5-1.5s.7-1.5 1.5-1.5 1.5.7 1.5 1.5-.7 1.5-1.5 1.5zm0-2c-.3 0-.5.2-.5.5s.2.5.5.5.5-.2.5-.5-.2-.5-.5-.5zM25.5 17c-.8 0-1.5-.7-1.5-1.5s.7-1.5 1.5-1.5 1.5.7 1.5 1.5-.7 1.5-1.5 1.5zm0-2c-.3 0-.5.2-.5.5s.2.5.5.5.5-.2.5-.5-.2-.5-.5-.5z"/></svg>