<svg xmlns="http://www.w3.org/2000/svg" viewBox="-236 286 30 30"><path d="M-211.5 290c-.1 0-.2 0-.2.1l-5 2.7-.7-1.7c.3-.3.5-.7.5-1.1 0-.8-.7-1.5-1.5-1.5s-1.5.7-1.5 1.5.7 1.5 1.5 1.5h.1l.8 1.8-5 2.7-.8-1.9c.3-.3.5-.7.5-1.1 0-.8-.7-1.5-1.5-1.5s-1.5.7-1.5 1.5.7 1.5 1.5 1.5h.1l.9 2-5 2.7-.9-2.2c.3-.3.5-.7.5-1.1 0-.8-.7-1.5-1.5-1.5s-1.5.7-1.5 1.5.7 1.5 1.5 1.5h.1l.9 2.2-3.3 1.8-2 1c-.2.1-.3.4-.2.7.1.2.3.3.4.3.1 0 .2 0 .2-.1l1.6-.8 3.1 6.1-6.1 3.8c-.2.1-.3.5-.2.7.1.2.3.2.4.2.1 0 .2 0 .3-.1l6.4-3.9h7.4c.8 0 1.8-.1 2.4-1.3l3.9-6.7h3.7c2.9 0 5.5-2.8 5.5-6-.3-2.7-2.9-5.3-5.8-5.3zm-6.6-.2c0-.1-.1-.1-.1-.1.1 0 .1 0 .1.1zm-.3-.3h-.1.1zm.2.1l-.1-.1c0 .1.1.1.1.1zm-.3-.1h-.2.2zm-.2.1c-.1 0-.1.1-.1.1 0-.1 0-.1.1-.1zm-.3.4zm.1-.3c0 .1 0 .1 0 0 0 .1 0 .1 0 0zm-.1.5zm-5.1 2.6l-.1-.1c.1 0 .1 0 .1.1zm-.3-.3c-.1 0-.1 0 0 0-.1 0-.1 0 0 0-.1 0-.1 0 0 0zm.2.1c-.1 0-.1 0 0 0-.1 0-.1 0 0 0zm-.4-.1h-.1.1zm-.1.1c-.1 0-.1.1-.1.1 0-.1 0-.1.1-.1zm-.3.4zm.1-.3c0 .1 0 .1 0 0 0 .1 0 .1 0 0zm-.1.5zm-5.1 2.6l-.1-.1c.1 0 .1 0 .1.1zm-.3-.3c-.1 0-.1 0 0 0-.1 0-.1 0 0 0-.1 0-.1 0 0 0zm.2.1c-.1 0-.1 0 0 0-.1 0-.1 0 0 0zm-.4-.1h-.1.1zm-.1.1c-.1 0-.1.1-.1.1 0-.1 0-.1.1-.1zm-.3.4zm.1-.3c0 .1 0 .1 0 0 0 .1 0 .1 0 0zm-.1.5zm19.5 4.3h-4c-.2 0-.3.1-.4.2l-4 7c-.3.5-.7.7-1.6.7h-7.2l-3.1-6.3 20.4-11.2c2.1.1 4.4 2 4.4 4.5s-1.9 5.1-4.5 5.1z"/><path d="M-221.9 299.6c-.1.1-.1.2-.1.4s0 .3.1.4c.1.1.2.1.4.1s.3-.1.4-.2c.1-.1.1-.2.1-.3s0-.3-.1-.4c-.2-.1-.6-.1-.8 0zM-227.9 302.6c-.1.1-.1.2-.1.4s0 .3.1.4c.1.1.2.1.4.1s.3-.1.4-.2c.1-.1.1-.2.1-.3s0-.3-.1-.4c-.2-.1-.6-.1-.8 0zM-215.9 296.6c-.1.1-.1.2-.1.4s0 .3.1.3c.1.1.2.2.4.2.1 0 .3-.1.4-.2.1-.1.1-.2.1-.3s0-.3-.1-.4c-.2-.1-.6-.1-.8 0z"/></svg>