<svg xmlns="http://www.w3.org/2000/svg" viewBox="0 0 30 30"><path d="M24.843 27H4.157c-1.531 0-3.092-1.046-3.884-2.604l-.248-.741A.5.5 0 0 1 .5 23h28a.5.5 0 0 1 .475.656l-.219.67C27.935 25.954 26.375 27 24.843 27zM1.189 24l.004.015C1.685 24.967 2.812 26 4.157 26h20.687c1.32 0 2.43-.995 2.963-2H1.189z"/><path d="M18.5 24h-8A5.506 5.506 0 0 1 5 18.5V11c0-1.103.897-2 2-2h15c1.103 0 2 .897 2 2v2.06a.5.5 0 0 1-1 0V11c0-.551-.449-1-1-1H7c-.551 0-1 .449-1 1v7.5c0 2.481 2.019 4.5 4.5 4.5h8c2.481 0 4.5-2.019 4.5-4.5v-.56a.5.5 0 0 1 1 0v.56c0 3.033-2.467 5.5-5.5 5.5zM18.779 8.043a.494.494 0 0 1-.319-.116c-.521-.434-.807-1.018-.807-1.645s.287-1.211.807-1.645c.29-.241.449-.553.449-.878 0-.325-.159-.636-.447-.876a.5.5 0 1 1 .64-.768c.521.434.807 1.018.807 1.645s-.287 1.211-.807 1.645c-.29.241-.449.553-.449.877 0 .325.159.637.447.876a.5.5 0 0 1-.321.885zM14.991 8.043a.494.494 0 0 1-.319-.116c-.521-.434-.807-1.018-.807-1.645s.287-1.211.807-1.645c.29-.241.448-.553.448-.878 0-.325-.159-.636-.447-.876a.5.5 0 1 1 .64-.768c.521.434.807 1.018.807 1.645s-.287 1.211-.807 1.645c-.29.241-.448.553-.448.877 0 .325.159.637.447.876a.5.5 0 0 1-.321.885zM11.213 8.043a.494.494 0 0 1-.319-.116c-.521-.434-.807-1.018-.807-1.645s.287-1.211.807-1.645c.29-.241.449-.553.449-.878 0-.325-.159-.636-.447-.876a.5.5 0 1 1 .64-.768c.521.434.807 1.018.807 1.645s-.287 1.211-.807 1.645c-.29.241-.449.553-.449.877 0 .325.159.637.447.876a.5.5 0 0 1-.321.885zM26 17c-.827 0-1.5-.673-1.5-1.5S25.173 14 26 14s1.5.673 1.5 1.5S26.827 17 26 17zm0-2a.5.5 0 1 0 0 1 .5.5 0 0 0 0-1z"/><path d="M26 19.5a3.919 3.919 0 0 1-2.862-1.215.5.5 0 0 1 .724-.69A2.923 2.923 0 0 0 26 18.5c1.654 0 3-1.346 3-3s-1.346-3-3-3c-.822 0-1.581.321-2.138.905a.5.5 0 0 1-.724-.69A3.919 3.919 0 0 1 26 11.5c2.206 0 4 1.794 4 4s-1.794 4-4 4z"/></svg>