<svg xmlns="http://www.w3.org/2000/svg" viewBox="0 0 30 30"><path d="M21.265 30H5.735c-.85 0-1.772-.54-2.467-1.443l-1.185-1.78A.5.5 0 0 1 2.5 26h22a.502.502 0 0 1 .417.777l-1.165 1.752C23.037 29.46 22.114 30 21.265 30zM3.433 27l.648.975C4.453 28.456 5.098 29 5.735 29h15.529c.637 0 1.283-.544 1.674-1.053l.63-.947H3.433zM21.21 18.616a.5.5 0 0 1-.494-.575c.153-1.001.255-1.929.361-3.015a.5.5 0 0 1 .301-.411c.162-.07.308-.12.448-.168.087-.03.172-.06.258-.094.805-.321 1.375-.512 2.429-.485a.5.5 0 0 1 .486.5c0 1.957-1.937 3.357-3.561 4.193a.492.492 0 0 1-.228.055zm.832-3.186a61.426 61.426 0 0 1-.195 1.749c.885-.56 1.838-1.357 2.089-2.3-.548.042-.925.182-1.482.404h-.001c-.101.04-.2.074-.302.109l-.109.038zm.227-.613h.01-.01z"/><path d="M18.11 27H9.368a.498.498 0 0 1-.329-.124C5.827 24.072 5.165 14.804 5.055 9.528A1.494 1.494 0 0 1 6.556 8h14.363c.41 0 .793.162 1.078.455.284.292.434.677.422 1.083a78.728 78.728 0 0 1-.094 2.09c1.235-.318 2.948-.529 4.074.29.716.52 1.08 1.355 1.08 2.484 0 2.921-2.167 5.223-6.442 6.845-.695 2.865-1.545 4.708-2.596 5.628a.501.501 0 0 1-.331.125zm-8.547-1h8.35c.852-.85 1.596-2.612 2.212-5.242a.501.501 0 0 1 .315-.355c4.006-1.467 6.038-3.485 6.038-6 0-.801-.218-1.349-.667-1.675-1.068-.775-3.234-.154-3.872.055a.502.502 0 0 1-.654-.506 89.03 89.03 0 0 0 .134-2.768.489.489 0 0 0-.139-.358.503.503 0 0 0-.361-.151H6.556a.497.497 0 0 0-.501.508C6.139 13.561 6.65 23.184 9.563 26zM17.999 6a.498.498 0 0 1-.36-.153 2.32 2.32 0 0 1 0-3.193c.482-.5.482-1.309.002-1.807a.5.5 0 1 1 .72-.694 2.32 2.32 0 0 1 0 3.193 1.312 1.312 0 0 0-.002 1.807.5.5 0 0 1-.36.847zM13.999 6a.498.498 0 0 1-.36-.153 2.32 2.32 0 0 1 0-3.193c.482-.5.482-1.309.002-1.807a.5.5 0 1 1 .72-.694 2.32 2.32 0 0 1 0 3.193 1.312 1.312 0 0 0-.002 1.807.5.5 0 0 1-.36.847zM9.999 6a.498.498 0 0 1-.36-.153 2.32 2.32 0 0 1 0-3.193c.482-.5.482-1.309.002-1.807a.5.5 0 1 1 .72-.694 2.32 2.32 0 0 1 0 3.193 1.312 1.312 0 0 0-.002 1.807.5.5 0 0 1-.36.847z"/></svg>