<svg xmlns="http://www.w3.org/2000/svg" viewBox="0 0 30 30"><path d="M24 15H11a.5.5 0 0 1 0-1h13a.5.5 0 0 1 0 1zM17.5 12.5a.5.5 0 0 1-.5-.5V9.5a.5.5 0 0 1 1 0V12a.5.5 0 0 1-.5.5z"/><path d="M18.5 10h-2a.5.5 0 0 1 0-1h2a.5.5 0 0 1 0 1zM5.5 24a.492.492 0 0 1-.114-.013c-2.002-.465-2.609-3.598-3.052-5.885-.134-.691-.25-1.289-.377-1.689-.259-.813-.966-2.088-1.814-2.954a.502.502 0 0 1 .007-.707l1.289-1.261a.502.502 0 0 1 .604-.073c.054.031 5.365 3.17 7.191 4.141a.5.5 0 0 1-.469.883c-1.601-.851-5.697-3.259-6.9-3.968l-.67.655c.835.977 1.462 2.188 1.715 2.98.146.457.267 1.081.407 1.803.369 1.904.927 4.783 2.297 5.102A.5.5 0 0 1 5.5 24z"/><path d="M29 30H6a.499.499 0 0 1-.484-.377C5.204 28.398 5 27.485 5 26c0-4.014 1.456-7.869 4-10.612V9c0-4.962 4.038-9 9-9s9 4.038 9 9v7.595c1.936 2.628 3 5.961 3 9.405 0 1.485-.204 2.398-.516 3.623A.499.499 0 0 1 29 30zM6.39 29h22.22c.245-.995.39-1.778.39-3 0-3.287-1.03-6.461-2.899-8.938a.5.5 0 0 1-.101-.301V9c0-4.411-3.589-8-8-8s-8 3.589-8 8v6.586c0 .129-.05.252-.139.346C7.407 18.499 6 22.169 6 26c0 1.222.145 2.005.39 3z"/><path d="M29 30H6a.499.499 0 0 1-.484-.377C5.204 28.398 5 27.485 5 26c0-7.995 5.607-14.5 12.5-14.5S30 18.005 30 26c0 1.485-.204 2.398-.516 3.623A.499.499 0 0 1 29 30zM6.39 29h22.22c.245-.995.39-1.778.39-3 0-7.444-5.159-13.5-11.5-13.5S6 18.556 6 26c0 1.222.145 2.005.39 3z"/></svg>