<svg xmlns="http://www.w3.org/2000/svg" viewBox="0 0 30 30"><path d="M4.5 6h-4a.5.5 0 0 1 0-1h4a.5.5 0 0 1 0 1zM4.5 11h-4a.5.5 0 0 1 0-1h4a.5.5 0 0 1 0 1zM4.5 16h-4a.5.5 0 0 1 0-1h4a.5.5 0 0 1 0 1zM4.5 21h-4a.5.5 0 0 1 0-1h4a.5.5 0 0 1 0 1zM4.5 26h-4a.5.5 0 0 1 0-1h4a.5.5 0 0 1 0 1z"/><path d="M24.5 30h-20A2.503 2.503 0 0 1 2 27.5v-24C2 2.122 3.122 1 4.5 1h20C25.878 1 27 2.122 27 3.5v24c0 1.378-1.122 2.5-2.5 2.5zM4.5 2C3.673 2 3 2.673 3 3.5v24c0 .827.673 1.5 1.5 1.5h20c.827 0 1.5-.673 1.5-1.5v-24c0-.827-.673-1.5-1.5-1.5h-20z"/><path d="M9.5 16a.5.5 0 0 1-.5-.5v-3.333l-.583.884c-.185.281-.65.281-.835 0L7 12.167V15.5a.5.5 0 0 1-1 0v-5a.5.5 0 0 1 .917-.275L8 11.868l1.083-1.643A.5.5 0 0 1 10 10.5v5a.5.5 0 0 1-.5.5zM13.5 16h-2a.5.5 0 0 1-.5-.5v-5a.5.5 0 0 1 .5-.5h2a.5.5 0 0 1 0 1H12v4h1.5a.5.5 0 0 1 0 1z"/><path d="M13.5 13h-2a.5.5 0 0 1 0-1h2a.5.5 0 0 1 0 1zM18.5 16a.5.5 0 0 1-.429-.243L16 12.305V15.5a.5.5 0 0 1-1 0v-5a.5.5 0 0 1 .929-.257L18 13.695V10.5a.5.5 0 0 1 1 0v5a.5.5 0 0 1-.5.5zM22.182 16h-.205C21.044 16 20 15.242 20 14.227V10.5a.5.5 0 0 1 1 0v3.727c0 .376.502.773.977.773h.205c.436 0 .818-.361.818-.773V10.5a.5.5 0 0 1 1 0v3.727c0 .961-.833 1.773-1.818 1.773z"/></svg>