<svg xmlns="http://www.w3.org/2000/svg" viewBox="0 0 30 30"><path d="M26.5 10h-16a.5.5 0 0 1 0-1h16a.5.5 0 0 1 0 1zM26.5 13h-16a.5.5 0 0 1 0-1h16a.5.5 0 0 1 0 1zM26.5 17h-16a.5.5 0 0 1 0-1h16a.5.5 0 0 1 0 1zM26.5 20h-16a.5.5 0 0 1 0-1h16a.5.5 0 0 1 0 1zM26.5 27h-16a.5.5 0 0 1 0-1h16a.5.5 0 0 1 0 1zM26.5 24h-16a.5.5 0 0 1 0-1h16a.5.5 0 0 1 0 1z"/><path d="M10.5 30a.5.5 0 0 1-.5-.5V4.283C10 2.38 8.738 1 7 1S4 2.38 4 4.283V6a.5.5 0 0 1-1 0V4.283C3 1.841 4.72 0 7 0s4 1.841 4 4.283V29.5a.5.5 0 0 1-.5.5zM26.5 30a.5.5 0 0 1-.5-.5V4.283C26 2.38 24.738 1 23 1s-3 1.38-3 3.283V6a.5.5 0 0 1-1 0V4.283C19 1.841 20.72 0 23 0s4 1.841 4 4.283V29.5a.5.5 0 0 1-.5.5z"/></svg>