<svg xmlns="http://www.w3.org/2000/svg" viewBox="0 0 30 30"><path d="M10.5 10c-.3 0-.5-.2-.5-.5v-2c0-.3.2-.5.5-.5s.5.2.5.5v2c0 .3-.2.5-.5.5zM10.5 15.5c-.3 0-.5-.2-.5-.5v-3.5c0-.3.2-.5.5-.5s.5.2.5.5V15c0 .3-.2.5-.5.5z"/><path d="M16 15c-.2 0-.4-.2-.5-.4l-1-4.8c-.1-1-1-1.8-2-1.8H9c-1 0-1.9.8-2 1.8l-1 4.8c-.1.3-.3.4-.6.4-.3-.1-.4-.3-.4-.6l1-4.8C6.2 8.1 7.5 7 9 7h3.5c1.5 0 2.8 1.1 3 2.6l1 4.8c.1.3-.1.5-.4.6H16zM25 30H5c-.2 0-.5-.2-.5-.4l-2-11.5c0-.3.1-.5.4-.6.3 0 .5.1.6.4L5.4 29h19.2l1.9-11.1c0-.3.3-.5.6-.4.3 0 .5.3.4.6l-2 11.5c0 .2-.3.4-.5.4zM22 12c-.3 0-.5-.2-.5-.5v-1c0-.3.2-.5.5-.5s.5.2.5.5v1c0 .3-.2.5-.5.5z"/><path d="M27.8 18H2.3c-1 0-1.8-.8-1.8-1.8s.8-1.8 1.8-1.8h25.5c1 0 1.8.8 1.8 1.8s-.9 1.8-1.8 1.8zM2.3 15.5c-.4 0-.8.3-.8.8s.3.7.8.7h25.5c.4 0 .8-.3.8-.8s-.3-.8-.8-.8H2.3zM10.5 6c-1.7 0-3-1.3-3-3s1.3-3 3-3 3 1.3 3 3-1.3 3-3 3zm0-5c-1.1 0-2 .9-2 2s.9 2 2 2 2-.9 2-2-.9-2-2-2z"/><path d="M25 15c-.3 0-.5-.2-.5-.5 0-1.4-1.1-2.5-2.5-2.5s-2.5 1.1-2.5 2.5c0 .3-.2.5-.5.5s-.5-.2-.5-.5c0-1.9 1.6-3.5 3.5-3.5s3.5 1.6 3.5 3.5c0 .3-.2.5-.5.5z"/></svg>