<svg xmlns="http://www.w3.org/2000/svg" viewBox="0 0 30 30"><path d="M17.5 28.739a.5.5 0 0 1-.5-.5V.5a.5.5 0 0 1 1 0v27.739a.5.5 0 0 1-.5.5zM11.5 18h-6a.5.5 0 0 1-.5-.5v-7a.5.5 0 0 1 .5-.5h6a.5.5 0 0 1 .5.5v7a.5.5 0 0 1-.5.5zM6 17h5v-6H6v6zM14.5 21a.5.5 0 0 1-.5-.5v-12a.5.5 0 0 1 1 0v12a.5.5 0 0 1-.5.5zM20.5 21a.5.5 0 0 1-.5-.5v-12a.5.5 0 0 1 1 0v12a.5.5 0 0 1-.5.5z"/><path d="M8.5 13a.5.5 0 0 1-.5-.5v-2a.5.5 0 0 1 1 0v2a.5.5 0 0 1-.5.5zM3.5 30a.5.5 0 0 1-.5-.5v-1a.5.5 0 0 1 1 0v1a.5.5 0 0 1-.5.5zM26.5 30a.5.5 0 0 1-.5-.5v-1a.5.5 0 0 1 1 0v1a.5.5 0 0 1-.5.5z"/><path d="M26.5 29h-23c-.827 0-1.5-.673-1.5-1.5v-26C2 .673 2.673 0 3.5 0h23c.827 0 1.5.673 1.5 1.5v26c0 .827-.673 1.5-1.5 1.5zM3.5 1a.5.5 0 0 0-.5.5v26a.5.5 0 0 0 .5.5h23a.5.5 0 0 0 .5-.5v-26a.5.5 0 0 0-.5-.5h-23z"/></svg>