<svg xmlns="http://www.w3.org/2000/svg" viewBox="0 0 30 30"><path d="M3.261 12.153C4.083 14.712 6.648 16.5 9.5 16.5a.5.5 0 0 0 0-1c-2.384 0-4.607-1.536-5.288-3.653a.5.5 0 1 0-.951.306zM29 7.5H1c-.552 0-1 .449-1 1v1c0 .551.448 1 1 1h.028c.199 2.924 2.107 5.608 4.679 7H5.5a.5.5 0 0 0 0 1h1.793l-3.147 3.147a.5.5 0 0 0 .707.707L8.707 18.5h12.585l3.854 3.854a.502.502 0 0 0 .707 0 .5.5 0 0 0 0-.707L22.706 18.5H24.5a.5.5 0 0 0 0-1h-.207c2.571-1.392 4.48-4.076 4.679-7H29c.552 0 1-.449 1-1v-1c0-.551-.448-1-1-1zm-8.5 10h-11c-3.757 0-7.185-3.277-7.472-7h25.944c-.287 3.723-3.715 7-7.472 7zm8.5-8H1v-1h28v1z"/></svg>