<svg xmlns="http://www.w3.org/2000/svg" viewBox="0 0 30 30"><path d="M20 13a.5.5 0 0 0 1 0c0-.948-.244-1.651-.48-2.331C20.264 9.934 20 9.174 20 8c0-.955.166-1.292.377-1.719C20.669 5.69 21 5.019 21 3a.5.5 0 0 0-1 0c0 1.786-.265 2.321-.52 2.839-.236.478-.48.973-.48 2.161 0 1.343.305 2.222.574 2.997.229.657.426 1.224.426 2.003zm-5 0a.5.5 0 0 0 1 0c0-.948-.244-1.651-.48-2.331C15.264 9.934 15 9.174 15 8c0-.955.166-1.292.377-1.719C15.669 5.69 16 5.019 16 3a.5.5 0 0 0-1 0c0 1.786-.265 2.321-.52 2.839-.236.478-.48.973-.48 2.161 0 1.343.305 2.222.574 2.997.229.657.426 1.224.426 2.003zm10 0a.5.5 0 0 0 1 0c0-.948-.244-1.651-.48-2.331C25.264 9.934 25 9.174 25 8c0-.955.166-1.292.377-1.719C25.669 5.69 26 5.019 26 3a.5.5 0 0 0-1 0c0 1.786-.265 2.321-.52 2.839-.236.478-.48.973-.48 2.161 0 1.343.305 2.222.574 2.997.229.657.426 1.224.426 2.003zM5 13a.5.5 0 0 0 1 0c0-.948-.244-1.651-.48-2.331C5.264 9.934 5 9.174 5 8c0-.95.173-1.286.392-1.711.305-.593.652-1.265.652-3.289a.5.5 0 0 0-1 0c0 1.781-.275 2.315-.541 2.831C4.256 6.311 4 6.808 4 8c0 1.343.305 2.222.574 2.997C4.803 11.654 5 12.221 5 13zm5 0a.5.5 0 0 0 1 0c0-.948-.244-1.651-.48-2.331C10.264 9.934 10 9.174 10 8c0-.955.166-1.292.377-1.719C10.669 5.69 11 5.019 11 3a.5.5 0 0 0-1 0c0 1.786-.265 2.321-.52 2.839C9.244 6.317 9 6.812 9 8c0 1.343.305 2.222.574 2.997.229.657.426 1.224.426 2.003zm1.5 12.5a.5.5 0 0 0 0-1 8.487 8.487 0 0 1-8.447-7.555.5.5 0 0 0-.994.11A9.486 9.486 0 0 0 11.5 25.5zm18-11H.5a.5.5 0 0 0-.5.5v1c0 6.341 5.159 11.5 11.5 11.5h7C24.841 27.5 30 22.341 30 16v-1a.5.5 0 0 0-.5-.5zM29 16c0 5.79-4.71 10.5-10.5 10.5h-7C5.71 26.5 1 21.79 1 16v-.5h28v.5z"/></svg>