<svg xmlns="http://www.w3.org/2000/svg" viewBox="0 0 30 30"><path d="M21.479 0H8.521C3.823 0 0 3.822 0 8.521V29.5a.5.5 0 0 0 1 0V8.521c0-4.067 3.247-7.382 7.284-7.509A3.784 3.784 0 0 0 8 2.5c0 1.128.407 2.027 1 2.357v1.286c-.592.33-1 1.229-1 2.357 0 .634.133 1.191.35 1.623A5.508 5.508 0 0 0 4 15.5C4 18.533 6.467 21 9.5 21h12c3.033 0 5.5-2.467 5.5-5.5 0-2.964-2.357-5.38-5.295-5.49.185-.415.295-.93.295-1.51 0-1.128-.407-2.027-1-2.357V4.857c.593-.33 1-1.229 1-2.357 0-.571-.107-1.08-.286-1.492C25.379 1.091 29 3.104 29 7.5a.5.5 0 0 0 1 0C30 3.084 26.495 0 21.479 0zM10.711 1h8.58A3.74 3.74 0 0 0 19 2.5c0 1.128.407 2.027 1 2.357v1.286c-.593.33-1 1.229-1 2.357 0 .575.109 1.087.29 1.5h-8.58A3.74 3.74 0 0 0 11 8.5c0-1.128-.407-2.027-1-2.357V4.857c.593-.33 1-1.229 1-2.357 0-.575-.108-1.087-.289-1.5zM20.5 7c.125 0 .5.532.5 1.5s-.375 1.5-.5 1.5-.5-.532-.5-1.5.375-1.5.5-1.5zm-11-6c.125 0 .5.532.5 1.5S9.625 4 9.5 4 9 3.468 9 2.5 9.375 1 9.5 1zm0 6c.125 0 .5.532.5 1.5S9.625 10 9.5 10 9 9.468 9 8.5 9.375 7 9.5 7zm12 4c2.481 0 4.5 2.019 4.5 4.5S23.982 20 21.5 20h-12C7.019 20 5 17.981 5 15.5S7.019 11 9.5 11h12zm-1-7c-.125 0-.5-.532-.5-1.5s.375-1.5.5-1.5.5.532.5 1.5-.375 1.5-.5 1.5zm-1.158 14.974a.498.498 0 0 0 .632-.316L20.527 17h1.946l.553 1.658a.5.5 0 0 0 .948-.316l-2-6c-.135-.408-.812-.408-.948 0l-2 6a.501.501 0 0 0 .316.632zm2.158-4.893L22.14 16h-1.28l.64-1.919zM14.5 19a.5.5 0 0 0 .5-.5V16h1c1.103 0 2-.897 2-2s-.897-2-2-2h-1.5a.5.5 0 0 0-.5.5v6a.5.5 0 0 0 .5.5zm.5-6h1c.551 0 1 .449 1 1 0 .551-.449 1-1 1h-1v-2zm-7 1c0 1.103.897 2 2 2 .551 0 1 .449 1 1 0 .551-.449 1-1 1-.551 0-1-.449-1-1a.5.5 0 0 0-1 0c0 1.103.897 2 2 2s2-.897 2-2-.897-2-2-2c-.551 0-1-.449-1-1 0-.551.449-1 1-1 .551 0 1 .449 1 1a.5.5 0 0 0 1 0c0-1.103-.897-2-2-2-1.102 0-2 .897-2 2z"/></svg>