<svg xmlns="http://www.w3.org/2000/svg" viewBox="0 0 30 30"><path d="M8.5 21.5c-4.8 0-8.5-3.7-8.5-8.4L1 2.5c.1-.7.5-1.3 1.1-1.7.6-.3 1.4-.4 2 0 1.1.5 2.5.8 4.4.8 1.9 0 3.3-.2 4.4-.8.6-.3 1.4-.3 2 0 .6.3 1 1 1.1 1.7L17 13c0 4.8-3.7 8.5-8.5 8.5zm-5.4-20c-.2 0-.4 0-.6.1-.3.2-.5.6-.5.9L1 13.2c0 4.2 3.2 7.3 7.5 7.3 4.2 0 7.5-3.3 7.5-7.5L15 2.5c0-.4-.2-.7-.6-.9-.3-.2-.7-.2-1.1 0-1.2.6-2.8.9-4.9.9-2.1 0-3.7-.3-4.9-.9 0 0-.2-.1-.4-.1z"/><path d="M21.5 29.5H21c-4.5 0-8-4-8-9v-.6c0-.3.2-.5.5-.5s.5.2.5.5v.6c0 3.9 2.6 8 7 8h.5c4.1 0 7.5-3.7 7.5-8l-1-10c0-.4-.2-.7-.6-.9-.3-.2-.7-.2-1.1 0-1.2.6-2.8.9-4.9.9-1.9 0-3.9-.4-5.2-1.1-.2-.1-.3-.4-.1-.6.1-.2.4-.3.7-.2 1.2.6 3 .9 4.8.9 1.9 0 3.3-.2 4.4-.8.6-.3 1.4-.3 2 0 .6.3 1 1 1.1 1.7l1 10c-.1 5-4 9.1-8.6 9.1zM9.5 18.5h-2C5.6 18.5 4 16.9 4 15v-1c0-.3.2-.5.5-.5s.5.2.5.5v1c0 1.4 1.1 2.5 2.5 2.5h2c1.4 0 2.5-1.1 2.5-2.5v-1c0-.3.2-.5.5-.5s.5.2.5.5v1c0 1.9-1.6 3.5-3.5 3.5zM7 10.5c-.2 0-.3-.1-.4-.2-.8-1-2.4-1-3.2 0-.1.1-.2.2-.4.2s-.3-.1-.4-.2C2.2 9.8 2 9.1 2 8.5c0-1.7 1.3-3 3-3s3 1.3 3 3c0 .6-.2 1.3-.6 1.8-.1.1-.3.2-.4.2zm-2-2c.7 0 1.4.2 1.9.7.1-.2.1-.5.1-.7 0-1.1-.9-2-2-2s-2 .9-2 2c0 .2 0 .5.1.7.6-.5 1.2-.7 1.9-.7zM14 10.5c-.2 0-.3-.1-.4-.2-.8-1-2.4-1-3.2 0-.1.1-.2.2-.4.2s-.3-.1-.4-.2C9.2 9.8 9 9.1 9 8.5c0-1.7 1.3-3 3-3s3 1.3 3 3c0 .6-.2 1.3-.6 1.8-.1.1-.3.2-.4.2zm-2-2c.7 0 1.4.2 1.9.7.1-.2.1-.5.1-.7 0-1.1-.9-2-2-2s-2 .9-2 2c0 .2 0 .5.1.7.6-.5 1.2-.7 1.9-.7z"/><path d="M25.5 25.5c-.3 0-.5-.2-.5-.5v-1c0-1.4-1.1-2.5-2.5-2.5h-2c-1.4 0-2.5 1.1-2.5 2.5v1c0 .3-.2.5-.5.5s-.5-.2-.5-.5v-1c0-1.9 1.6-3.5 3.5-3.5h2c1.9 0 3.5 1.6 3.5 3.5v1c0 .3-.2.5-.5.5zM25 17.5c-1.7 0-3-1.3-3-3 0-.6.2-1.3.6-1.8.1-.1.2-.2.4-.2s.3.1.4.2c.8 1 2.4 1 3.2 0 .1-.1.2-.2.4-.2s.3.1.4.2c.4.5.6 1.2.6 1.8 0 1.7-1.3 3-3 3zm-1.9-3.7c-.1.2-.1.5-.1.7 0 1.1.9 2 2 2s2-.9 2-2c0-.2 0-.5-.1-.7-1.1.9-2.7.9-3.8 0zM18 17.5c-1 0-1.9-.5-2.5-1.3-.1-.1-.1-.3-.1-.5.3-.7.4-1.5.5-2.3 0-.2.1-.4.3-.4.2-.1.4-.1.5.1.9.7 2.2.5 2.8-.4.1-.1.2-.2.4-.2s.3.1.4.2c.4.5.6 1.2.6 1.8.1 1.7-1.2 3-2.9 3zm-1.5-1.7c.4.4.9.7 1.5.7 1.1 0 2-.9 2-2 0-.2 0-.5-.1-.7-.8.7-2 .9-3 .5-.1.5-.2 1-.4 1.5z"/></svg>