<svg xmlns="http://www.w3.org/2000/svg" viewBox="0 0 30 30"><path d="M21 30c-.1 0-.3-.1-.4-.1-.1-.1-.1-.2-.1-.4v-19c0-.3.2-.5.5-.5 2.3 0 5.5-.5 5.5-1.5 0-.1 0-.1-.1-.2-1-.9-5.9-.4-9.1-.1-1.6.2-2.9.3-3.8.3-.3 0-.5-.2-.5-.5s.2-.5.5-.5c.8 0 2.2-.1 3.7-.3 4.8-.5 8.6-.8 9.8.3.3.3.4.6.4.9v19c.1 2.5-5.3 2.6-6.4 2.6zm.5-19v18c2.2-.1 5-.6 5-1.5V10c-1.4.8-3.8 1-5 1z"/><path d="M13.5 26c-4.4 0-11-.9-11-3.5v-18c0-2.7 5.7-4.5 11-4.5s11 1.8 11 4.5V7c0 .3-.2.5-.5.5s-.5-.2-.5-.5V4.5c0-1.6-4.5-3.5-10-3.5s-10 1.9-10 3.5v18c0 1 3.9 2.5 10 2.5 2.8 0 5.5-.4 7.3-1 .3-.1.5 0 .6.3.1.3 0 .5-.3.6-1.9.7-4.7 1.1-7.6 1.1z"/><path d="M13.5 8.5C9.9 8.5 6.9 7.4 5.8 7c-.2-.1-.4-.4-.3-.7.1-.2.4-.4.7-.3 1.1.4 3.9 1.5 7.3 1.5s6.2-1 7.3-1.5c.3-.1.5 0 .7.3.1.3 0 .5-.3.7-1.1.4-4.1 1.5-7.7 1.5z"/><path d="M13.5 6c-1.4 0-3-.5-3-1.5s1.6-1.5 3-1.5 3 .5 3 1.5-1.6 1.5-3 1.5zm0-2c-1.2 0-1.9.4-2 .5.1.1.8.5 2 .5s1.9-.3 2-.5c-.1-.2-.8-.5-2-.5z"/></svg>