<svg xmlns="http://www.w3.org/2000/svg" viewBox="0 0 30 30"><path d="M6.814 27.454a.496.496 0 0 1-.282-.087A14.994 14.994 0 0 1 0 15C0 6.729 6.729 0 15 0s15 6.729 15 15c0 4.938-2.44 9.56-6.528 12.364a.5.5 0 1 1-.566-.824A13.998 13.998 0 0 0 29 15c0-7.72-6.28-14-14-14S1 7.28 1 15c0 4.61 2.279 8.925 6.097 11.542a.499.499 0 0 1-.283.912z"/><path d="M9.072 24.156a.496.496 0 0 1-.282-.087C5.79 22.013 4 18.623 4 15 4 8.935 8.935 4 15 4s11 4.935 11 11c0 3.622-1.79 7.012-4.788 9.068a.5.5 0 1 1-.566-.825A9.997 9.997 0 0 0 25 15c0-5.514-4.486-10-10-10S5 9.486 5 15a9.997 9.997 0 0 0 4.354 8.244.5.5 0 0 1-.282.912z"/><path d="M11.331 20.859a.496.496 0 0 1-.282-.087A7 7 0 0 1 8 15c0-3.86 3.141-7 7-7s7 3.14 7 7a6.998 6.998 0 0 1-3.046 5.77.5.5 0 1 1-.566-.824A6 6 0 0 0 21 15c0-3.309-2.691-6-6-6s-6 2.691-6 6c0 1.976.978 3.825 2.614 4.946a.5.5 0 0 1-.283.913z"/><path d="M15 17.5c-1.379 0-2.5-1.122-2.5-2.5s1.121-2.5 2.5-2.5 2.5 1.122 2.5 2.5-1.121 2.5-2.5 2.5zm0-4c-.827 0-1.5.673-1.5 1.5s.673 1.5 1.5 1.5 1.5-.673 1.5-1.5-.673-1.5-1.5-1.5z"/></svg>