<svg xmlns="http://www.w3.org/2000/svg" viewBox="0 0 30 30"><path d="M15 26c-1.103 0-2-.897-2-2s.897-2 2-2 2 .897 2 2-.897 2-2 2zm0-3a1 1 0 1 0 0 2 1 1 0 0 0 0-2zM19.848 19.736a.492.492 0 0 1-.317-.114C18.259 18.576 16.649 18 15 18s-3.259.576-4.53 1.622a.498.498 0 0 1-.703-.068.498.498 0 0 1 .068-.703C11.284 17.657 13.119 17 15 17s3.716.657 5.165 1.851a.498.498 0 0 1-.317.885zM24.458 15.699a.499.499 0 0 1-.338-.132C21.616 13.267 18.377 12 15 12s-6.616 1.267-9.12 3.567a.499.499 0 1 1-.676-.736C7.893 12.36 11.371 11 15 11s7.107 1.36 9.796 3.831a.499.499 0 0 1-.338.868zM29 10.621a.5.5 0 0 1-.345-.138C24.938 6.947 20.089 5 15 5 9.908 5 5.059 6.94 1.344 10.464a.498.498 0 1 1-.687-.725C4.557 6.038 9.651 4 15 4c5.347 0 10.44 2.045 14.345 5.759a.5.5 0 0 1-.345.862z"/></svg>