<svg xmlns="http://www.w3.org/2000/svg" viewBox="0 0 30 30"><path d="M27.5 30h-24a.5.5 0 0 1-.5-.5V.5a.5.5 0 0 1 .5-.5h24a.5.5 0 0 1 .5.5v29a.5.5 0 0 1-.5.5zM4 29h23V1H4v28z"/><path d="M15.5 8C13.503 8 12 5.877 12 4.5a.5.5 0 0 1 .5-.5h6a.5.5 0 0 1 .5.5C19 5.877 17.497 8 15.5 8zm-2.415-3c.288.918 1.277 2 2.415 2s2.127-1.082 2.415-2h-4.83z"/><path d="M15.5 10a.5.5 0 0 1-.5-.5v-2a.5.5 0 0 1 1 0v2a.5.5 0 0 1-.5.5z"/><path d="M17 10h-3a.5.5 0 0 1 0-1h3a.5.5 0 0 1 0 1zM16.5 15h-8a.5.5 0 0 1 0-1h8a.5.5 0 0 1 0 1zM22.5 15h-1a.5.5 0 0 1 0-1h1a.5.5 0 0 1 0 1zM16.5 19h-8a.5.5 0 0 1 0-1h8a.5.5 0 0 1 0 1zM22.5 19h-1a.5.5 0 0 1 0-1h1a.5.5 0 0 1 0 1zM16.5 22h-8a.5.5 0 0 1 0-1h8a.5.5 0 0 1 0 1zM22.5 22h-1a.5.5 0 0 1 0-1h1a.5.5 0 0 1 0 1zM16.5 26h-8a.5.5 0 0 1 0-1h8a.5.5 0 0 1 0 1zM22.5 26h-1a.5.5 0 0 1 0-1h1a.5.5 0 0 1 0 1z"/></svg>