<svg xmlns="http://www.w3.org/2000/svg" viewBox="0 0 30 30"><path d="M15.5 8.5a1 1 0 1 0 0-2 1 1 0 0 0 0 2zm0 13a1 1 0 1 0 0 2 1 1 0 0 0 0-2zM18.569.963A7.449 7.449 0 0 0 16 .5a.5.5 0 0 0-.197.041C15.536.526 15.271.5 15 .5 7.005.5.5 7.005.5 15S7.005 29.5 15 29.5c.085 0 .166-.011.251-.013.083.003.165.013.249.013a.487.487 0 0 0 .167-.034C23.352 29.114 29.5 22.77 29.5 15c0-6.761-4.659-12.44-10.931-14.037zM1.5 15C1.5 7.556 7.556 1.5 15 1.5c1.13 0 2.221.155 3.271.417C20.737 2.841 22.5 5.216 22.5 8c0 3.523-3.142 6.5-6.863 6.5-4.335 0-8.137 3.505-8.137 7.5 0 2.215 1.152 4.277 2.902 5.677C5.219 25.79 1.5 20.828 1.5 15zm13.75 13.487C11.626 28.354 8.5 25.384 8.5 22c0-3.402 3.402-6.5 7.137-6.5 4.262 0 7.863-3.435 7.863-7.5 0-1.714-.584-3.29-1.555-4.555C25.865 5.81 28.5 10.098 28.5 15c0 7.36-5.922 13.352-13.25 13.487z"/></svg>