<?xml version="1.0" encoding="UTF-8"?><!DOCTYPE svg PUBLIC "-//W3C//DTD SVG 1.1//EN" "http://www.w3.org/Graphics/SVG/1.1/DTD/svg11.dtd"><svg xmlns="http://www.w3.org/2000/svg" xmlns:xlink="http://www.w3.org/1999/xlink"><defs>
        <path id="a" d="M274.881 436.515c0 1.367-1.138 2.479-2.538 2.479-1.399 0-2.538-1.112-2.538-2.479 0-1.208.892-2.214 2.066-2.431v-13.98c0-.254.211-.461.472-.461.262 0 .472.207.472.46v13.98c1.175.218 2.066 1.224 2.066 2.432zm17.106-14.675c0 1.209-.891 2.215-2.065 2.432v13.98c0 .255-.211.46-.473.46a.467.467 0 0 1-.472-.46v-13.98c-1.173-.217-2.066-1.223-2.066-2.432 0-1.366 1.14-2.478 2.538-2.478 1.401 0 2.539 1.112 2.538 2.478zm-8.646 7.197c0 1.21-.892 2.215-2.066 2.432v6.502a.467.467 0 0 1-.472.461.467.467 0 0 1-.472-.461v-6.502c-1.174-.217-2.066-1.223-2.066-2.432 0-1.208.892-2.214 2.066-2.431v-6.503c0-.254.212-.46.472-.46.261 0 .472.206.472.46v6.503c1.175.217 2.066 1.223 2.066 2.431z"/>
    </defs><symbol id="icon-arrow" viewBox="0 0 512 512">
    <style>
        .st0{fill:#0962a8}
    </style>
    <path class="st0" d="M226.4 198c2.4-2.4 6.2-2.4 8.6 0 2.3 2.3 2.3 6.2 0 8.5l-43.4 43.4h143.3c3.3 0 6.1 2.7 6.1 6s-2.7 6.1-6.1 6.1H191.6l43.4 43.4c2.3 2.4 2.3 6.3 0 8.6-2.4 2.4-6.2 2.4-8.6 0l-53.7-53.7c-2.3-2.3-2.3-6.2 0-8.5l53.7-53.8z"/>
    <path class="st0" d="M255.9 510.8c-68 0-132-26.5-180.1-74.6C27.7 388.1 1.2 324.1 1.2 256.1S27.7 124.1 75.8 76C123.9 27.9 187.9 1.4 255.9 1.4S387.9 27.9 436 76c48.1 48.1 74.6 112.1 74.6 180.1s-26.5 132-74.6 180.1-112.1 74.6-180.1 74.6zm0-497.4c-64.8 0-125.8 25.2-171.6 71.1-45.8 45.8-71.1 106.8-71.1 171.6s25.2 125.8 71.1 171.6c45.8 45.8 106.8 71.1 171.6 71.1s125.8-25.2 171.6-71.1 71.1-106.8 71.1-171.6-25.2-125.8-71.1-171.6c-45.8-45.9-106.8-71.1-171.6-71.1z"/>
</symbol><symbol id="icon-arrow2" viewBox="0 0 170 125">
    <path d="M56.4 3C58.8.6 62.6.6 65 3c2.3 2.3 2.3 6.2 0 8.5L21.6 54.9h143.3c3.3 0 6.1 2.7 6.1 6s-2.7 6.1-6.1 6.1H21.6L65 110.4c2.3 2.4 2.3 6.3 0 8.6-2.4 2.4-6.2 2.4-8.6 0L2.7 65.3c-2.3-2.3-2.3-6.2 0-8.5L56.4 3z"/>
</symbol><symbol id="icon-close" viewBox="0 0 512 512">
    <path d="M505.943 6.058c-8.077-8.077-21.172-8.077-29.249 0L6.058 476.693c-8.077 8.077-8.077 21.172 0 29.249A20.612 20.612 0 0 0 20.683 512a20.614 20.614 0 0 0 14.625-6.059L505.943 35.306c8.076-8.076 8.076-21.171 0-29.248z"/>
    <path d="M505.942 476.694L35.306 6.059c-8.076-8.077-21.172-8.077-29.248 0-8.077 8.076-8.077 21.171 0 29.248l470.636 470.636a20.616 20.616 0 0 0 14.625 6.058 20.615 20.615 0 0 0 14.624-6.057c8.075-8.078 8.075-21.173-.001-29.25z"/>
</symbol><symbol id="icon-facebook" viewBox="0 0 512 512">
    <path d="M288 176v-64c0-17.664 14.336-32 32-32h32V0h-64c-53.024 0-96 42.976-96 96v80h-64v80h64v256h96V256h64l32-80h-96z"/>
</symbol><symbol id="icon-fb" viewBox="0 0 10 18">
    <path d="M9.242 6.7H6.191V5.224s-.17-1.404.818-1.404h2.01V.796H5.595S2.731.784 2.731 3.636c0 .613-.004 1.73-.007 3.064H.758v2.436h1.961l-.026 8.19h3.498v-8.19h2.308L9.242 6.7z"/>
</symbol><symbol id="icon-filter" viewBox="0 0 23 20">
    
    <use xlink:href="#a" transform="translate(-269 -419)"/>
</symbol><symbol id="icon-ig" viewBox="0 0 15 15">
    <path d="M7.593 1.455c1.996 0 2.232.008 3.02.043.729.033 1.124.154 1.387.256.325.118.619.308.86.554.248.24.439.53.559.852.102.261.224.654.257 1.376.036.782.043 1.016.043 2.995s-.007 2.213-.043 2.994c-.033.723-.155 1.115-.257 1.377A2.452 2.452 0 0 1 12 13.308c-.263.101-.659.222-1.387.255-.788.036-1.024.043-3.02.043-1.995 0-2.231-.007-3.02-.043-.728-.033-1.123-.154-1.387-.255a2.317 2.317 0 0 1-.859-.554c-.248-.24-.44-.53-.559-.852-.102-.262-.224-.654-.257-1.377-.036-.781-.044-1.015-.044-2.994 0-1.979.008-2.213.044-2.995.033-.722.155-1.115.257-1.376.12-.322.31-.613.56-.852a2.3 2.3 0 0 1 .858-.554c.264-.102.66-.223 1.388-.256.788-.035 1.024-.043 3.02-.043zm0-1.335c-2.029 0-2.284.009-3.08.045-.796.036-1.339.16-1.814.344a3.67 3.67 0 0 0-1.324.855 3.63 3.63 0 0 0-.862 1.312c-.185.472-.31 1.01-.347 1.8-.037.79-.045 1.042-.045 3.055 0 2.012.008 2.265.045 3.055.036.789.163 1.328.347 1.799.188.495.482.942.862 1.313a3.66 3.66 0 0 0 1.324.854c.475.184 1.018.309 1.814.345.797.036 1.051.044 3.08.044 2.03 0 2.284-.008 3.081-.044.796-.036 1.339-.162 1.814-.345a3.788 3.788 0 0 0 2.185-2.167c.185-.471.312-1.01.348-1.799.036-.79.045-1.043.045-3.055 0-2.013-.009-2.265-.045-3.056-.036-.789-.163-1.327-.347-1.799a3.631 3.631 0 0 0-.862-1.312 3.667 3.667 0 0 0-1.324-.855C12.013.326 11.47.2 10.674.165 9.877.129 9.623.12 7.594.12z"/>
    <path d="M7.593 3.725c-.758 0-1.5.223-2.131.642a3.812 3.812 0 0 0-1.414 1.707 3.776 3.776 0 0 0 .832 4.148 3.868 3.868 0 0 0 4.182.825 3.83 3.83 0 0 0 1.722-1.402 3.784 3.784 0 0 0-.477-4.805 3.854 3.854 0 0 0-2.714-1.115zm0 6.276c-.492 0-.974-.145-1.383-.416a2.475 2.475 0 0 1-.918-1.109 2.451 2.451 0 0 1 .54-2.692 2.51 2.51 0 0 1 2.714-.535c.456.186.845.503 1.119.91a2.456 2.456 0 0 1-.31 3.118 2.5 2.5 0 0 1-1.762.724z"/>
    <path d="M11.582 4.464a.893.893 0 0 0 .897-.89.893.893 0 0 0-.897-.888.893.893 0 0 0-.896.889c0 .491.401.89.896.89z"/>
</symbol><symbol id="icon-instagram" viewBox="0 0 169.063 169.063">
    <g>
        <path d="M122.406 0H46.654C20.929 0 0 20.93 0 46.655v75.752c0 25.726 20.929 46.655 46.654 46.655h75.752c25.727 0 46.656-20.93 46.656-46.655V46.655C169.063 20.93 148.133 0 122.406 0zm31.657 122.407c0 17.455-14.201 31.655-31.656 31.655H46.654C29.2 154.063 15 139.862 15 122.407V46.655C15 29.201 29.2 15 46.654 15h75.752c17.455 0 31.656 14.201 31.656 31.655v75.752z"/>
        <path d="M84.531 40.97c-24.021 0-43.563 19.542-43.563 43.563 0 24.02 19.542 43.561 43.563 43.561s43.563-19.541 43.563-43.561c0-24.021-19.542-43.563-43.563-43.563zm0 72.123c-15.749 0-28.563-12.812-28.563-28.561 0-15.75 12.813-28.563 28.563-28.563s28.563 12.813 28.563 28.563c0 15.749-12.814 28.561-28.563 28.561z"/>
        <path d="M129.921 28.251c-2.89 0-5.729 1.17-7.77 3.22a11.053 11.053 0 0 0-3.23 7.78c0 2.891 1.18 5.73 3.23 7.78 2.04 2.04 4.88 3.22 7.77 3.22 2.9 0 5.73-1.18 7.78-3.22 2.05-2.05 3.22-4.89 3.22-7.78 0-2.9-1.17-5.74-3.22-7.78-2.04-2.05-4.88-3.22-7.78-3.22z"/>
    </g>
</symbol><symbol id="icon-menu" viewBox="0 0 18 14">
    <style>
        .st0{fill:#fff}
    </style>
    <path class="st0" d="M0 2h13v1H0z"/>
    <path class="st0" d="M0 7h18v1H0z"/>
    <path class="st0" d="M0 12h18v1H0z"/>
</symbol><symbol id="icon-menu__" viewBox="0 0 512 512">
    <path class="st0" d="M512 392.3v28.5H0v-28.5z"/>
    <path class="st0" d="M512 236.8v28.5H0v-28.5z"/>
    <path class="st0" d="M379 80.2v28.5H0V80.2z"/>
</symbol><symbol id="icon-odnoklassniki" viewBox="0 0 95.481 95.481">
    <g>
        <path d="M43.041 67.254c-7.402-.772-14.076-2.595-19.79-7.064-.709-.556-1.441-1.092-2.088-1.713-2.501-2.402-2.753-5.153-.774-7.988 1.693-2.426 4.535-3.075 7.489-1.682.572.27 1.117.607 1.639.969 10.649 7.317 25.278 7.519 35.967.329 1.059-.812 2.191-1.474 3.503-1.812 2.551-.655 4.93.282 6.299 2.514 1.564 2.549 1.544 5.037-.383 7.016-2.956 3.034-6.511 5.229-10.461 6.761-3.735 1.448-7.826 2.177-11.875 2.661.611.665.899.992 1.281 1.376 5.498 5.524 11.02 11.025 16.5 16.566 1.867 1.888 2.257 4.229 1.229 6.425-1.124 2.4-3.64 3.979-6.107 3.81-1.563-.108-2.782-.886-3.865-1.977-4.149-4.175-8.376-8.273-12.441-12.527-1.183-1.237-1.752-1.003-2.796.071-4.174 4.297-8.416 8.528-12.683 12.735-1.916 1.889-4.196 2.229-6.418 1.15-2.362-1.145-3.865-3.556-3.749-5.979.08-1.639.886-2.891 2.011-4.014 5.441-5.433 10.867-10.88 16.295-16.322.359-.362.694-.746 1.217-1.305z"/>
        <path d="M47.55 48.329c-13.205-.045-24.033-10.992-23.956-24.218C23.67 10.739 34.505-.037 47.84 0c13.362.036 24.087 10.967 24.02 24.478-.068 13.199-10.971 23.897-24.31 23.851zm12.001-24.186c-.023-6.567-5.253-11.795-11.807-11.801-6.609-.007-11.886 5.316-11.835 11.943.049 6.542 5.324 11.733 11.896 11.709 6.552-.023 11.768-5.285 11.746-11.851z"/>
    </g>
</symbol><symbol id="icon-rss" viewBox="0 0 402.041 402.04">
    <g>
        <path d="M54.816 292.382c-15.229 0-28.169 5.331-38.831 15.988C5.33 319.026 0 331.969 0 347.197c0 15.232 5.325 28.172 15.985 38.828 10.662 10.657 23.606 15.988 38.831 15.988 15.227 0 28.168-5.331 38.828-15.988 10.656-10.656 15.986-23.596 15.986-38.828 0-15.229-5.33-28.171-15.986-38.827-10.657-10.657-23.598-15.988-38.828-15.988z"/>
        <path d="M181.01 221.002c-21.51-21.698-46.158-38.97-73.948-51.816-27.79-12.85-56.914-20.511-87.366-22.985h-1.425c-4.949 0-9.042 1.619-12.275 4.854C1.997 154.477 0 158.953 0 164.472v38.543c0 4.757 1.569 8.85 4.708 12.279 3.14 3.429 7.089 5.332 11.848 5.708 43.586 4.189 80.845 21.752 111.773 52.678 30.93 30.926 48.49 68.187 52.677 111.771.382 4.764 2.284 8.712 5.712 11.847 3.427 3.148 7.517 4.72 12.275 4.72h38.545c5.517 0 9.989-1.995 13.415-5.996 3.621-3.812 5.236-8.381 4.863-13.709-2.478-30.447-10.14-59.573-22.987-87.361-12.846-27.792-30.121-52.438-51.819-73.95z"/>
        <path d="M367.728 239.701c-20.365-45.585-48.345-86.078-83.936-121.482-35.405-35.594-75.896-63.572-121.485-83.939C116.723 13.917 68.996 2.494 19.126.02h-.855c-4.949 0-9.136 1.713-12.563 5.14C1.903 8.583 0 12.964 0 18.294v40.825c0 4.76 1.667 8.897 4.996 12.419 3.33 3.523 7.373 5.376 12.132 5.57 40.924 2.478 79.799 12.188 116.63 29.127 36.83 16.94 68.806 38.972 95.93 66.09 27.118 27.123 49.149 59.101 66.089 95.931 16.94 36.836 26.557 75.705 28.839 116.627.195 4.764 2.046 8.809 5.564 12.139 3.524 3.329 7.762 4.999 12.71 4.999h40.823c5.331 0 9.701-1.902 13.134-5.715 3.809-3.806 5.517-8.274 5.144-13.415-2.471-49.874-13.898-97.6-34.263-143.19z"/>
    </g>
</symbol><symbol id="icon-search" viewBox="0 0 512 512">
    <style>
        .st0{fill:#fff}
    </style>
    <path class="st0" d="M147.4 314.6c-7.8 1.6-15.2 5.4-21.2 11.4L12.4 439.8c-16.6 16.5-16.6 43.3 0 59.9 16.5 16.5 43.3 16.5 59.9 0L186 385.9c6-6 9.8-13.5 11.4-21.2 78.1 54.3 186.4 46.9 255.9-22.7 78.1-78.1 78.1-205.2 0-283.4-78.1-78.1-205.2-78.1-283.3 0-69.5 69.6-76.9 177.9-22.6 256zM206 94.5c58.3-58.3 153.2-58.3 211.5 0 58.3 58.3 58.3 153.2 0 211.5-58.3 58.3-153.2 58.3-211.5 0s-58.3-153.2 0-211.5z"/>
</symbol><symbol id="icon-telegram" viewBox="0 0 300 300">
    <path d="M5.299 144.645l69.126 25.8 26.756 86.047c1.712 5.511 8.451 7.548 12.924 3.891l38.532-31.412a11.496 11.496 0 0 1 14.013-.391l69.498 50.457c4.785 3.478 11.564.856 12.764-4.926L299.823 29.22c1.31-6.316-4.896-11.585-10.91-9.259L5.218 129.402c-7.001 2.7-6.94 12.612.081 15.243zm91.57 12.066l135.098-83.207c2.428-1.491 4.926 1.792 2.841 3.726L123.313 180.87a23.112 23.112 0 0 0-7.163 13.829l-3.798 28.146c-.503 3.758-5.782 4.131-6.819.494l-14.607-51.325c-1.673-5.854.765-12.107 5.943-15.303z"/>
</symbol><symbol id="icon-twitter" viewBox="0 0 449.956 449.956">
    <path d="M449.956 85.657c-17.702 7.614-35.408 12.369-53.102 14.279 19.985-11.991 33.503-28.931 40.546-50.819-18.281 10.847-37.787 18.268-58.532 22.267-18.274-19.414-40.73-29.125-67.383-29.125-25.502 0-47.246 8.992-65.24 26.98-17.984 17.987-26.977 39.731-26.977 65.235 0 6.851.76 13.896 2.284 21.128-37.688-1.903-73.042-11.372-106.068-28.407C82.46 110.158 54.433 87.46 31.403 59.101c-8.375 14.272-12.564 29.787-12.564 46.536 0 15.798 3.711 30.456 11.138 43.97 7.422 13.512 17.417 24.455 29.98 32.831-14.849-.572-28.743-4.475-41.684-11.708v1.142c0 22.271 6.995 41.824 20.983 58.674 13.99 16.848 31.645 27.453 52.961 31.833a95.543 95.543 0 0 1-24.269 3.138c-5.33 0-11.136-.475-17.416-1.42 5.9 18.459 16.75 33.633 32.546 45.535 15.799 11.896 33.691 18.028 53.677 18.418-33.498 26.262-71.66 39.393-114.486 39.393-8.186 0-15.607-.373-22.27-1.139 42.827 27.596 90.03 41.394 141.612 41.394 32.738 0 63.478-5.181 92.21-15.557 28.746-10.369 53.297-24.267 73.665-41.686 20.362-17.415 37.925-37.448 52.674-60.097 14.75-22.651 25.738-46.298 32.977-70.946 7.23-24.653 10.848-49.344 10.848-74.092 0-5.33-.096-9.325-.287-11.991 18.087-13.127 33.504-29.023 46.258-47.672z"/>
</symbol><symbol id="icon-user" viewBox="0 0 512 512">
    <path d="M438.2 331.8c-28.7-28.7-64.6-48.3-107.1-58.4 43.3-24.9 72.4-71.5 72.4-124.9 0-79.4-64.6-144-144-144s-144 64.6-144 144c0 52.8 28.6 99 71.1 124.1-28.3 6.3-53.7 16.8-76.2 31.2-32 20.6-57.8 49.3-76.6 85.3C2.3 449.6 1.5 509.4 1.5 511.9l27 .2c0-.6.7-55.7 29.3-110.5 16.6-31.8 39.2-57 67.2-75.1 34.2-22 76.8-33.5 126.8-34.3 2.5.1 5.1.2 7.7.2 2 0 4-.1 5.9-.1 48.3 1.2 89.5 12.5 122.6 33.6 27.8 17.8 50.3 42.6 66.6 73.9 28.4 54.3 28.8 109.8 28.8 110.4h27c.1-4.3-.6-106.7-72.2-178.4zM142.5 148.5c0-64.5 52.5-117 117-117s117 52.5 117 117c0 62.6-49.4 113.8-111.3 116.8-2.8-.1-5.5-.1-8.3-.1h-4.3c-61.3-3.5-110.1-54.5-110.1-116.7z"/>
</symbol><symbol id="icon-vk" viewBox="0 0 548.358 548.358">
    <path d="M545.451 400.298c-.664-1.431-1.283-2.618-1.858-3.569-9.514-17.135-27.695-38.167-54.532-63.102l-.567-.571-.284-.28-.287-.287h-.288c-12.18-11.611-19.893-19.418-23.123-23.415-5.91-7.614-7.234-15.321-4.004-23.13 2.282-5.9 10.854-18.36 25.696-37.397 7.807-10.089 13.99-18.175 18.556-24.267 32.931-43.78 47.208-71.756 42.828-83.939l-1.701-2.847c-1.143-1.714-4.093-3.282-8.846-4.712-4.764-1.427-10.853-1.663-18.278-.712l-82.224.568c-1.332-.472-3.234-.428-5.712.144l-3.713.859-1.431.715-1.136.859c-.952.568-1.999 1.567-3.142 2.995-1.137 1.423-2.088 3.093-2.848 4.996-8.952 23.031-19.13 44.444-30.553 64.238-7.043 11.803-13.511 22.032-19.418 30.693-5.899 8.658-10.848 15.037-14.842 19.126-4 4.093-7.61 7.372-10.852 9.849-3.237 2.478-5.708 3.525-7.419 3.142-1.715-.383-3.33-.763-4.859-1.143-2.663-1.714-4.805-4.045-6.42-6.995-1.622-2.95-2.714-6.663-3.285-11.136-.568-4.476-.904-8.326-1-11.563-.089-3.233-.048-7.806.145-13.706.198-5.903.287-9.897.287-11.991 0-7.234.141-15.085.424-23.555.288-8.47.521-15.181.716-20.125.194-4.949.284-10.185.284-15.705s-.336-9.849-1-12.991a44.442 44.442 0 0 0-2.99-9.137c-1.335-2.95-3.289-5.232-5.853-6.852-2.569-1.618-5.763-2.902-9.564-3.856-10.089-2.283-22.936-3.518-38.547-3.71-35.401-.38-58.148 1.906-68.236 6.855-3.997 2.091-7.614 4.948-10.848 8.562-3.427 4.189-3.905 6.475-1.431 6.851 11.422 1.711 19.508 5.804 24.267 12.275l1.715 3.429c1.334 2.474 2.666 6.854 3.999 13.134 1.331 6.28 2.19 13.227 2.568 20.837.95 13.897.95 25.793 0 35.689-.953 9.9-1.853 17.607-2.712 23.127-.859 5.52-2.143 9.993-3.855 13.418-1.715 3.426-2.856 5.52-3.428 6.28-.571.76-1.047 1.239-1.425 1.427a21.387 21.387 0 0 1-7.71 1.431c-2.667 0-5.901-1.334-9.707-4-3.805-2.666-7.754-6.328-11.847-10.992-4.093-4.665-8.709-11.184-13.85-19.558-5.137-8.374-10.467-18.271-15.987-29.691l-4.567-8.282c-2.855-5.328-6.755-13.086-11.704-23.267-4.952-10.185-9.329-20.037-13.134-29.554-1.521-3.997-3.806-7.04-6.851-9.134l-1.429-.859c-.95-.76-2.475-1.567-4.567-2.427a30.301 30.301 0 0 0-6.567-1.854l-78.229.568c-7.994 0-13.418 1.811-16.274 5.428l-1.143 1.711c-.571.953-.859 2.475-.859 4.57 0 2.094.571 4.664 1.714 7.707 11.42 26.84 23.839 52.725 37.257 77.659 13.418 24.934 25.078 45.019 34.973 60.237 9.897 15.229 19.985 29.602 30.264 43.112 10.279 13.515 17.083 22.176 20.412 25.981 3.333 3.812 5.951 6.662 7.854 8.565l7.139 6.851c4.568 4.569 11.276 10.041 20.127 16.416 8.853 6.379 18.654 12.659 29.408 18.85 10.756 6.181 23.269 11.225 37.546 15.126 14.275 3.905 28.169 5.472 41.684 4.716h32.834c6.659-.575 11.704-2.669 15.133-6.283l1.136-1.431c.764-1.136 1.479-2.901 2.139-5.276.668-2.379 1-5 1-7.851-.195-8.183.428-15.558 1.852-22.124 1.423-6.564 3.045-11.513 4.859-14.846 1.813-3.33 3.859-6.14 6.136-8.418 2.282-2.283 3.908-3.666 4.862-4.142.948-.479 1.705-.804 2.276-.999 4.568-1.522 9.944-.048 16.136 4.429 6.187 4.473 11.99 9.996 17.418 16.56 5.425 6.57 11.943 13.941 19.555 22.124 7.617 8.186 14.277 14.271 19.985 18.274l5.708 3.426c3.812 2.286 8.761 4.38 14.853 6.283 6.081 1.902 11.409 2.378 15.984 1.427l73.087-1.14c7.229 0 12.854-1.197 16.844-3.572 3.998-2.379 6.373-5 7.139-7.851.764-2.854.805-6.092.145-9.712-.677-3.611-1.344-6.136-2.008-7.563z"/>
</symbol></svg>