<svg id="Слой_1" data-name="Слой 1" xmlns="http://www.w3.org/2000/svg" viewBox="0 0 208.17 31.57">
    <defs>
        <style>
            .cls-1,.cls-3{fill:#fff}.cls-2{fill:#f6a713}.cls-2,.cls-3{fill-rule:evenodd}
        </style>
    </defs>
    <title>
        Wow_deltaplan_logo
    </title>
    <path class="cls-1" d="M70.32 16a46.28 46.28 0 0 1-.32 5.33 13.25 13.25 0 0 1-1.64 5 9.89 9.89 0 0 1-3.93 3.75 15 15 0 0 1-7.26 1.46 14.27 14.27 0 0 1-7-1.46 9.9 9.9 0 0 1-3.84-3.75 13.17 13.17 0 0 1-1.57-5 48.54 48.54 0 0 1-.3-5.29 31 31 0 0 1 .39-4.64 13.21 13.21 0 0 1 1.7-4.79 10.69 10.69 0 0 1 3.83-3.75 13.21 13.21 0 0 1 6.81-1.52 15.55 15.55 0 0 1 6.94 1.31 9.94 9.94 0 0 1 4 3.42 12.57 12.57 0 0 1 1.82 4.73 32 32 0 0 1 .37 5.2m28-2l2.73 9.16.06-.06a.17.17 0 0 1 .12.06l2.8-9.88L107 3a1.54 1.54 0 0 1 .36-.87 1.22 1.22 0 0 1 .77-.2h4.76q.66 0 .69.33a2 2 0 0 1-.09.74l-8.75 26.83c-.2.68-.46 1.05-.8 1.13a4 4 0 0 1-.92.12h-3.36a1.53 1.53 0 0 1-1.61-1.19L96 23.65l-2.5-7.55h-.12l-2.5 7.61-2 6a1.8 1.8 0 0 1-1.91 1.37h-3.14a1.84 1.84 0 0 1-1.4-.39 4 4 0 0 1-.62-1.22l-8.93-26.4a1.26 1.26 0 0 1 0-.77q.12-.36.66-.36h4.76a1.28 1.28 0 0 1 .86.24 1.77 1.77 0 0 1 .45.83l3 10.06 3 10.29h.17l2.86-9 1.85-5.46-1.84-5.83a1.12 1.12 0 0 1 0-.77.6.6 0 0 1 .62-.36h4.4a1.28 1.28 0 0 1 .9.24 2 2 0 0 1 .41.89zM62 8.81l-5.38 17h.53a8.23 8.23 0 0 0 3.31-.57 4.36 4.36 0 0 0 2-1.73 7.54 7.54 0 0 0 1-2.94 31.71 31.71 0 0 0 .24-4.17 31 31 0 0 0-.24-4.13 7.5 7.5 0 0 0-1-2.91 3.76 3.76 0 0 0-.46-.55zm-9.29 15.38l5.41-17.1h-.89a6.86 6.86 0 0 0-3.09.59 4.39 4.39 0 0 0-1.87 1.78 8.46 8.46 0 0 0-1 3 28.6 28.6 0 0 0-.26 4.07 29.14 29.14 0 0 0 .26 4.14 8.81 8.81 0 0 0 .92 2.92 4.86 4.86 0 0 0 .52.6zM25.52 14l2.74 9.16.06-.06a.17.17 0 0 1 .12.06l2.79-9.88L34.21 3a1.54 1.54 0 0 1 .36-.87 1.19 1.19 0 0 1 .77-.2h4.76c.44 0 .66.11.68.33a2 2 0 0 1-.09.74L32 29.84c-.2.68-.47 1.05-.81 1.13a3.94 3.94 0 0 1-.92.12h-3.44a1.54 1.54 0 0 1-1.61-1.19l-2.08-6.25-2.5-7.55h-.11L18 23.71l-2 6a1.79 1.79 0 0 1-1.9 1.37H11a1.81 1.81 0 0 1-1.4-.39 4 4 0 0 1-.6-1.21L.06 3.07a1.26 1.26 0 0 1 0-.77c.08-.24.3-.36.65-.36h4.76a1.29 1.29 0 0 1 .87.24 1.87 1.87 0 0 1 .44.82l3 10.06 3 10.29H13l2.85-9 1.82-5.45-1.85-5.83a1.18 1.18 0 0 1 0-.77.61.61 0 0 1 .63-.36h4.4a1.23 1.23 0 0 1 .89.24 2 2 0 0 1 .42.89z" id="Layer_3" data-name="Layer 3"/>
    <path class="cls-2" d="M196 2.51h6.14L207.58 8a2 2 0 0 1 0 2.87l-5.48 5.43H196l5.44-5.44a2 2 0 0 0 0-2.87zm0 0"/>
    <path class="cls-3" d="M172.22 9.47a2.81 2.81 0 0 0 .45 1.62 1.57 1.57 0 0 0 1.38.65 1.37 1.37 0 0 0 1-.38 2.1 2.1 0 0 0 .55-.92 3.79 3.79 0 0 0 .16-1.09 3.3 3.3 0 0 0-.42-1.74 1.46 1.46 0 0 0-1.34-.69q-1.77 0-1.77 2.55zm0-4.14v1.14a3.44 3.44 0 0 1 .91-1 2.45 2.45 0 0 1 1.45-.37 3 3 0 0 1 1.26.26 2.78 2.78 0 0 1 1 .76 3.53 3.53 0 0 1 .72 1.28 5.42 5.42 0 0 1 .26 1.78 6.21 6.21 0 0 1-.35 2.1 3.38 3.38 0 0 1-1.11 1.56 2.91 2.91 0 0 1-1.87.59 2.38 2.38 0 0 1-2.23-1.22v4.1h-2.08v-11zm8.41-2.77v10.68h-2.08V2.56zm7.52 4.85v4.29a2.34 2.34 0 0 0 .12.9.55.55 0 0 0 .34.33v.31h-2.25a4.65 4.65 0 0 1-.19-.93 5 5 0 0 1-1.06.83 3.1 3.1 0 0 1-1.5.31 2.78 2.78 0 0 1-1.18-.25 2 2 0 0 1-.89-.76 2.3 2.3 0 0 1-.34-1.29 2.62 2.62 0 0 1 .3-1.29 2.09 2.09 0 0 1 .8-.84 3.14 3.14 0 0 1 1.21-.4l1.87-.29c.49-.06.73-.27.73-.62a.74.74 0 0 0-.39-.75 2.36 2.36 0 0 0-1-.17 1.18 1.18 0 0 0-1 .31 1.45 1.45 0 0 0-.33.79h-2a3.14 3.14 0 0 1 .63-1.75 2.45 2.45 0 0 1 1.23-.81 6.07 6.07 0 0 1 1.75-.21 5.26 5.26 0 0 1 1.41.19 2.6 2.6 0 0 1 1.23.69 1.89 1.89 0 0 1 .52 1.41zm-2 3v-1a3.26 3.26 0 0 1-1.41.43 4.51 4.51 0 0 0-.74.16 1.12 1.12 0 0 0-.49.36 1 1 0 0 0-.18.64.84.84 0 0 0 .3.72 1.07 1.07 0 0 0 .67.23 2.17 2.17 0 0 0 .9-.19 1.78 1.78 0 0 0 .69-.55 1.3 1.3 0 0 0 .27-.82zm10.17-2.63v5.47h-2.12V8.44a3.32 3.32 0 0 0-.07-.74 1.08 1.08 0 0 0-.38-.58 1.43 1.43 0 0 0-.91-.25 1.63 1.63 0 0 0-.83.21 1.44 1.44 0 0 0-.59.63 2.19 2.19 0 0 0-.21 1v4.54h-2.08V5.33h2v1.15a2.62 2.62 0 0 1 2.39-1.36 3 3 0 0 1 1.41.31 2.19 2.19 0 0 1 1 .9 2.7 2.7 0 0 1 .36 1.44zm0 0"/>
    <path class="cls-3" d="M148.32 2.27v11h-.93v-1.38a3.45 3.45 0 0 1-1.13 1.11 3 3 0 0 1-1.55.4h-.05a3 3 0 0 1-2.6-1.27 4.88 4.88 0 0 1-.92-2.76v-.25a4.91 4.91 0 0 1 .93-2.74 3 3 0 0 1 2.61-1.26 3 3 0 0 1 1.55.41 2.93 2.93 0 0 1 1.11 1.15V2.27zm-.84 7.43v-.25-.39-.38a4.47 4.47 0 0 0-.61-1.68 2 2 0 0 0-1.44-1 1.37 1.37 0 0 0-.31 0h-.39a2.22 2.22 0 0 0-2 1 4 4 0 0 0-.67 2.31 4.73 4.73 0 0 0 .64 2.38 2.22 2.22 0 0 0 2.06 1 2.29 2.29 0 0 0 2-.87 3.6 3.6 0 0 0 .74-2.06zm6.67-4.24a2.72 2.72 0 0 1 1.35 1.39 5.58 5.58 0 0 1 .5 1.89 2.35 2.35 0 0 0 0 .26 2.17 2.17 0 0 1 0 .26v.18h-5.9a3.35 3.35 0 0 0 .75 2.37 2.48 2.48 0 0 0 1.66.87h.21a2.34 2.34 0 0 0 1.41-.52 2.27 2.27 0 0 0 .84-1.39h.91a2.8 2.8 0 0 1-1.06 1.92 4 4 0 0 1-2.29.71 2.86 2.86 0 0 1-2.61-1.3 5.42 5.42 0 0 1-.79-2.92V9.1a.38.38 0 0 1 0-.1v-.19a1.94 1.94 0 0 1 0-.24V8.3a4.7 4.7 0 0 1 .56-1.64A2.72 2.72 0 0 1 151 5.48a2.55 2.55 0 0 1 .76-.27 3.59 3.59 0 0 1 .81-.09h.55l.54.12a2.26 2.26 0 0 1 .5.19zm-4.07 3.27h5a4.51 4.51 0 0 0-.59-1.95 2 2 0 0 0-1.81-.86h-.1a2.11 2.11 0 0 0-1.82.85 3.31 3.31 0 0 0-.64 1.86zm6.86 4.51v-11h.9v11zm3.62-10.19v2.26H162v.75h-1.47v5.76a1.27 1.27 0 0 0 .14.69.45.45 0 0 0 .41.2 1.64 1.64 0 0 0 .34-.05l.43-.1h.15v.72h-.3l-.33.07h-.48a1.53 1.53 0 0 1-.3 0l-.28-.06a.79.79 0 0 1-.59-.5 2.92 2.92 0 0 1-.11-.8V6.06h-1.08v-.75h1.08V3.05zm7.39 9a4.4 4.4 0 0 1-1 .74 4.89 4.89 0 0 1-1.29.47 3.58 3.58 0 0 1-.43.08 2.83 2.83 0 0 1-.41 0 2.86 2.86 0 0 1-1.21-.28 2.12 2.12 0 0 1-.93-.9 2.55 2.55 0 0 1-.14-.35 3.37 3.37 0 0 1-.1-.34 1 1 0 0 1 0-.17 1 1 0 0 1 0-.17 2.23 2.23 0 0 1 .35-1.19 2.13 2.13 0 0 1 1-.83 4.16 4.16 0 0 1 1-.34c.37-.07.74-.12 1.12-.17h.27l.6-.07c.19 0 .39-.05.58-.09a.64.64 0 0 0 .48-.33 1.26 1.26 0 0 0 .14-.57v-.33a1.93 1.93 0 0 0-.18-.56 1.07 1.07 0 0 0-.31-.4 1.86 1.86 0 0 0-.55-.26 3.25 3.25 0 0 0-.62-.13H166.02a2.56 2.56 0 0 0-1.47.46 1.71 1.71 0 0 0-.74 1.34h-.92a2.25 2.25 0 0 1 1-1.84 3.75 3.75 0 0 1 2-.73h.11a3.43 3.43 0 0 1 2 .6 2 2 0 0 1 .89 1.81v4.23a1.11 1.11 0 0 0 .13.65.53.53 0 0 0 .47.18h.31v.7h-.67a1.45 1.45 0 0 1-.83-.22 1 1 0 0 1-.33-.88zm-1.45.26a2 2 0 0 0 1.18-1.11 4.75 4.75 0 0 0 .22-1.51v-.6a5.62 5.62 0 0 1-.79.18l-.82.11h-.18l-.77.11a4.7 4.7 0 0 0-.74.18 1.86 1.86 0 0 0-.89.58 1.42 1.42 0 0 0-.39.94.55.55 0 0 0 0 .18.73.73 0 0 0 0 .2 2 2 0 0 0 .13.25 2.11 2.11 0 0 0 .19.23 1.9 1.9 0 0 0 .57.38 2.14 2.14 0 0 0 .7.15h.49a3.27 3.27 0 0 0 .56-.11l.47-.14zm0 0"/>
    <path class="cls-1" d="M121.26 2.2h1v4.58A2.85 2.85 0 0 1 125 5c2.43 0 3.59 2 3.59 4.22s-1.16 4.22-3.59 4.22a3 3 0 0 1-2.84-1.74v1.51h-.9zM125 5.85c-2 0-2.8 1.75-2.8 3.4s.75 3.4 2.8 3.4c1.86 0 2.61-1.74 2.61-3.4s-.72-3.4-2.61-3.4z"/>
    <path class="cls-1" d="M129.23 5.27h1l2.63 6.8 2.45-6.8h1l-3.47 9.19c-.57 1.35-.88 1.73-2.1 1.73a2.55 2.55 0 0 1-.74-.07v-.82a3.71 3.71 0 0 0 .67.07c.86 0 1.06-.51 1.39-1.25l.34-.91z"/>
</svg>
