<svg id="svg-dp" width="999" height="746" data-ship-id="72" xmlns="http://www.w3.org/2000/svg" xmlns:xlink="http://www.w3.org/1999/xlink" baseProfile="full" version="1.1"><defs><text id="ct-desc-159">Двухместная каюта увеличенной площади, расположенная на средней палубе. В каюте: двуспальная кровать(или две односпальных по желанию клиента), раздвижной диван с возможностью раскладки, холодильник, телевизор, санблок, кондиционер,фен.</text><text id="ct-desc-160">Четырехместная двухъярусная каюта, расположенная на нижней палубе. В каюте: санблок, кондиционер, телевизор.</text><text id="ct-desc-161">Двухместная одноярусная каюта, расположенная на главной палубе. В каюте: санблок, кондиционер, телевизор.</text><text id="ct-desc-162">Двухместная одноярусная, трех и четырехместная двухъярусная каюта, расположенная на средней палубе. В каюте: санблок, кондиционер, телевизор.</text><text id="ct-desc-163">Двухместная одноярусная каюта, расположенная на шлюпочной палубе. В каюте: санблок, кондиционер, телевизор.</text><text id="ct-desc-164">Двухместная двухкомнатная каюта, расположенная на шлюпочной палубе. В каюте: двуспальная кровать, угловой диван, журнальный столик, небольшая кухня, холодильник, телевизор, санблок, кондиционер,фен.</text><text id="ct-desc-165">Одноместная каюта, расположенная на шлюпочной палубе. В каюте: санблок, кондиционер, телевизор.</text></defs><style>a{cursor:pointer}a:hover{text-decoration:none}a:visited{fill:inherit}a:hover .cabin{fill-opacity:.8;stroke-opacity:.8}text{font-family:sans-serif;font-size:6.5pt;text-anchor:middle;pointer-events:none}a,g.area{pointer-events:all}.cabin,.public{fill:transparent;fill-opacity:.6}.cabin{stroke:#222;stroke-opacity:.6;stroke-width:.5pt}.cabin-free{fill:#87ff87!important}.cabin-partially{fill:#fffa45!important}.cabin-reserved{fill:#ff9b65!important}.cabin-paid,.cabin-unavailable{fill:#ff6565!important}.cb-title{font-weight:700;margin-bottom:5px}.cb-note,.cb-status{margin-top:5px}.cb-note{font-style:italic}.cat-jlx-4{fill:#fdcf4e}.cat-btm-1{fill:#73c495}.cat-std-4{fill:#7ec6f6}.cat-std-2{fill:#b4ddf9}.cat-std-1{fill:#e1f3ff}.cat-lx-1{fill:#f49fa2}.cat-sng-1{fill:#ccf4fa}</style><g id="deckplan"><image width="999" height="746" xlink:href="https://static.mosturflot.ru/photo/b5/21/52/b521522afe58706b0661c1658a1df873.png" preserveAspectRatio="none" image-rendering="optimizeQuality" pointer-events="none"/><a class="link" data-cabin-id="15447500"><path id="15447500" class="area cabin cat-jlx-4" d="M771 323h34v39h-34z" data-title="Каюта 1 категории «Л1»" data-desc-id="ct-desc-159" data-desc="Мест в каюте: основных 2, дополнительных 2."/><text x="788" y="339">1<tspan x="788" y="355">4</tspan></text></a><a class="link" data-cabin-id="15447501"><path id="15447501" class="area cabin cat-jlx-4" d="M805 323h34v39h-34z" data-title="Каюта 3 категории «Л1»" data-desc-id="ct-desc-159" data-desc="Мест в каюте: основных 2, дополнительных 2." data-note="трап(вниз), не загораживает обзор из окна"/><text x="822" y="339">3<tspan x="822" y="355">4</tspan></text></a><a class="link" data-cabin-id="15447502"><path id="15447502" class="area cabin cat-jlx-4" d="M839 323h17l17 2v37h-34z" data-title="Каюта 5 категории «Л1»" data-desc-id="ct-desc-159" data-desc="Мест в каюте: основных 2, дополнительных 2."/><text x="856" y="339">5<tspan x="856" y="355">4</tspan></text></a><a class="link" data-cabin-id="15447503"><path id="15447503" class="area cabin cat-btm-1" d="M636 621h17v40h-17z" data-title="Каюта 101 категории «2Б»" data-desc-id="ct-desc-160" data-desc="Мест в каюте: основных 2, верхних 2."/><text x="645" y="637">101<tspan x="645" y="653">4</tspan></text></a><a class="link" data-cabin-id="15447504"><path id="15447504" class="area cabin cat-btm-1" d="M636 702h17v40h-17z" data-title="Каюта 102 категории «2Б»" data-desc-id="ct-desc-160" data-desc="Мест в каюте: основных 2, верхних 2."/><text x="645" y="718">102<tspan x="645" y="734">4</tspan></text></a><a class="link" data-cabin-id="15447505"><path id="15447505" class="area cabin cat-btm-1" d="M653 621h17v40h-17z" data-title="Каюта 103 категории «2Б»" data-desc-id="ct-desc-160" data-desc="Мест в каюте: основных 2, верхних 2."/><text x="662" y="637">103<tspan x="662" y="653">4</tspan></text></a><a class="link" data-cabin-id="15447506"><path id="15447506" class="area cabin cat-btm-1" d="M653 702h17v40h-17z" data-title="Каюта 104 категории «2Б»" data-desc-id="ct-desc-160" data-desc="Мест в каюте: основных 2, верхних 2."/><text x="662" y="718">104<tspan x="662" y="734">4</tspan></text></a><a class="link" data-cabin-id="15447507"><path id="15447507" class="area cabin cat-btm-1" d="M670 621h17v40h-17z" data-title="Каюта 105 категории «2Б»" data-desc-id="ct-desc-160" data-desc="Мест в каюте: основных 2, верхних 2."/><text x="679" y="637">105<tspan x="679" y="653">4</tspan></text></a><a class="link" data-cabin-id="15447508"><path id="15447508" class="area cabin cat-btm-1" d="M670 702h17v40h-17z" data-title="Каюта 106 категории «2Б»" data-desc-id="ct-desc-160" data-desc="Мест в каюте: основных 2, верхних 2."/><text x="679" y="718">106<tspan x="679" y="734">4</tspan></text></a><a class="link" data-cabin-id="15447509"><path id="15447509" class="area cabin cat-btm-1" d="M687 621h17v40h-17z" data-title="Каюта 107 категории «2Б»" data-desc-id="ct-desc-160" data-desc="Мест в каюте: основных 2, верхних 2."/><text x="696" y="637">107<tspan x="696" y="653">4</tspan></text></a><a class="link" data-cabin-id="15447510"><path id="15447510" class="area cabin cat-btm-1" d="M687 702h17v40h-17z" data-title="Каюта 108 категории «2Б»" data-desc-id="ct-desc-160" data-desc="Мест в каюте: основных 2, верхних 2."/><text x="696" y="718">108<tspan x="696" y="734">4</tspan></text></a><a class="link" data-cabin-id="15447511"><path id="15447511" class="area cabin cat-btm-1" d="M704 621h17v40h-17z" data-title="Каюта 109 категории «2Б»" data-desc-id="ct-desc-160" data-desc="Мест в каюте: основных 2, верхних 2."/><text x="713" y="637">109<tspan x="713" y="653">4</tspan></text></a><a class="link" data-cabin-id="15447512"><path id="15447512" class="area cabin cat-btm-1" d="M704 702h17v40h-17z" data-title="Каюта 110 категории «2Б»" data-desc-id="ct-desc-160" data-desc="Мест в каюте: основных 2, верхних 2."/><text x="713" y="718">110<tspan x="713" y="734">4</tspan></text></a><a class="link" data-cabin-id="15447513"><path id="15447513" class="area cabin cat-btm-1" d="M721 621h17v40h-17z" data-title="Каюта 111 категории «2Б»" data-desc-id="ct-desc-160" data-desc="Мест в каюте: основных 2, верхних 2."/><text x="730" y="637">111<tspan x="730" y="653">4</tspan></text></a><a class="link" data-cabin-id="15447514"><path id="15447514" class="area cabin cat-btm-1" d="M721 702h17v40h-17z" data-title="Каюта 112 категории «2Б»" data-desc-id="ct-desc-160" data-desc="Мест в каюте: основных 2, верхних 2."/><text x="730" y="718">112<tspan x="730" y="734">4</tspan></text></a><a class="link" data-cabin-id="15447515"><path id="15447515" class="area cabin cat-btm-1" d="M738 621h17v40h-17z" data-title="Каюта 113 категории «2Б»" data-desc-id="ct-desc-160" data-desc="Мест в каюте: основных 2, верхних 2."/><text x="747" y="637">113<tspan x="747" y="653">4</tspan></text></a><a class="link" data-cabin-id="15447516"><path id="15447516" class="area cabin cat-btm-1" d="M738 702h17v40h-17z" data-title="Каюта 114 категории «2Б»" data-desc-id="ct-desc-160" data-desc="Мест в каюте: основных 2, верхних 2."/><text x="747" y="718">114<tspan x="747" y="734">4</tspan></text></a><a class="link" data-cabin-id="15447517"><path id="15447517" class="area cabin cat-std-4" d="M417 471h17v34h-17z" data-title="Каюта 201 категории «1С»" data-desc-id="ct-desc-161" data-desc="Мест в каюте: основных 2."/><text x="426" y="485">201<tspan x="426" y="499">2</tspan></text></a><a class="link" data-cabin-id="15447518"><path id="15447518" class="area cabin cat-std-4" d="M417 542h17v34h-17z" data-title="Каюта 202 категории «1С»" data-desc-id="ct-desc-161" data-desc="Мест в каюте: основных 2."/><text x="426" y="556">202<tspan x="426" y="570">2</tspan></text></a><a class="link" data-cabin-id="15447519"><path id="15447519" class="area cabin cat-std-4" d="M434 471h17v34h-17z" data-title="Каюта 203 категории «1С»" data-desc-id="ct-desc-161" data-desc="Мест в каюте: основных 2."/><text x="443" y="485">203<tspan x="443" y="499">2</tspan></text></a><a class="link" data-cabin-id="15447520"><path id="15447520" class="area cabin cat-std-4" d="M434 542h17v34h-17z" data-title="Каюта 204 категории «1С»" data-desc-id="ct-desc-161" data-desc="Мест в каюте: основных 2."/><text x="443" y="556">204<tspan x="443" y="570">2</tspan></text></a><a class="link" data-cabin-id="15447521"><path id="15447521" class="area cabin cat-std-4" d="M451 471h17v34h-17z" data-title="Каюта 205 категории «1С»" data-desc-id="ct-desc-161" data-desc="Мест в каюте: основных 2."/><text x="460" y="485">205<tspan x="460" y="499">2</tspan></text></a><a class="link" data-cabin-id="15447522"><path id="15447522" class="area cabin cat-std-4" d="M451 542h17v34h-17z" data-title="Каюта 206 категории «1С»" data-desc-id="ct-desc-161" data-desc="Мест в каюте: основных 2."/><text x="460" y="556">206<tspan x="460" y="570">2</tspan></text></a><a class="link" data-cabin-id="15447523"><path id="15447523" class="area cabin cat-std-4" d="M468 471h17v34h-17z" data-title="Каюта 207 категории «1С»" data-desc-id="ct-desc-161" data-desc="Мест в каюте: основных 2."/><text x="477" y="485">207<tspan x="477" y="499">2</tspan></text></a><a class="link" data-cabin-id="15447524"><path id="15447524" class="area cabin cat-std-4" d="M468 542h17v34h-17z" data-title="Каюта 208 категории «1С»" data-desc-id="ct-desc-161" data-desc="Мест в каюте: основных 2."/><text x="477" y="556">208<tspan x="477" y="570">2</tspan></text></a><a class="link" data-cabin-id="15447525"><path id="15447525" class="area cabin cat-std-4" d="M485 471h17v34h-17z" data-title="Каюта 209 категории «1С»" data-desc-id="ct-desc-161" data-desc="Мест в каюте: основных 2."/><text x="494" y="485">209<tspan x="494" y="499">2</tspan></text></a><a class="link" data-cabin-id="15447526"><path id="15447526" class="area cabin cat-std-4" d="M485 542h17v34h-17z" data-title="Каюта 210 категории «1С»" data-desc-id="ct-desc-161" data-desc="Мест в каюте: основных 2."/><text x="494" y="556">210<tspan x="494" y="570">2</tspan></text></a><a class="link" data-cabin-id="15447527"><path id="15447527" class="area cabin cat-std-4" d="M502 471h17v34h-17z" data-title="Каюта 211 категории «1С»" data-desc-id="ct-desc-161" data-desc="Мест в каюте: основных 2."/><text x="511" y="485">211<tspan x="511" y="499">2</tspan></text></a><a class="link" data-cabin-id="15447528"><path id="15447528" class="area cabin cat-std-4" d="M502 542h17v34h-17z" data-title="Каюта 212 категории «1С»" data-desc-id="ct-desc-161" data-desc="Мест в каюте: основных 2."/><text x="511" y="556">212<tspan x="511" y="570">2</tspan></text></a><a class="link" data-cabin-id="15447529"><path id="15447529" class="area cabin cat-std-4" d="M519 471h17v34h-17z" data-title="Каюта 213 категории «1С»" data-desc-id="ct-desc-161" data-desc="Мест в каюте: основных 2."/><text x="528" y="485">213<tspan x="528" y="499">2</tspan></text></a><a class="link" data-cabin-id="15447530"><path id="15447530" class="area cabin cat-std-4" d="M519 542h17v34h-17z" data-title="Каюта 214 категории «1С»" data-desc-id="ct-desc-161" data-desc="Мест в каюте: основных 2."/><text x="528" y="556">214<tspan x="528" y="570">2</tspan></text></a><a class="link" data-cabin-id="15447531"><path id="15447531" class="area cabin cat-std-4" d="M536 471h17v34h-17z" data-title="Каюта 215 категории «1С»" data-desc-id="ct-desc-161" data-desc="Мест в каюте: основных 2."/><text x="545" y="485">215<tspan x="545" y="499">2</tspan></text></a><a class="link" data-cabin-id="15447532"><path id="15447532" class="area cabin cat-std-4" d="M536 542h17v34h-17z" data-title="Каюта 216 категории «1С»" data-desc-id="ct-desc-161" data-desc="Мест в каюте: основных 2."/><text x="545" y="556">216<tspan x="545" y="570">2</tspan></text></a><a class="link" data-cabin-id="15447533"><path id="15447533" class="area cabin cat-std-4" d="M553 471h17v34h-17z" data-title="Каюта 217 категории «1С»" data-desc-id="ct-desc-161" data-desc="Мест в каюте: основных 2."/><text x="562" y="485">217<tspan x="562" y="499">2</tspan></text></a><a class="link" data-cabin-id="15447534"><path id="15447534" class="area cabin cat-std-4" d="M553 542h17v34h-17z" data-title="Каюта 218 категории «1С»" data-desc-id="ct-desc-161" data-desc="Мест в каюте: основных 2."/><text x="562" y="556">218<tspan x="562" y="570">2</tspan></text></a><a class="link" data-cabin-id="15447535"><path id="15447535" class="area cabin cat-std-4" d="M570 471h17v34h-17z" data-title="Каюта 219 категории «1С»" data-desc-id="ct-desc-161" data-desc="Мест в каюте: основных 2."/><text x="579" y="485">219<tspan x="579" y="499">2</tspan></text></a><a class="link" data-cabin-id="15447536"><path id="15447536" class="area cabin cat-std-4" d="M570 542h17v34h-17z" data-title="Каюта 220 категории «1С»" data-desc-id="ct-desc-161" data-desc="Мест в каюте: основных 2."/><text x="579" y="556">220<tspan x="579" y="570">2</tspan></text></a><a class="link" data-cabin-id="15447537"><path id="15447537" class="area cabin cat-std-4" d="M587 471h17v34h-17z" data-title="Каюта 221 категории «1С»" data-desc-id="ct-desc-161" data-desc="Мест в каюте: основных 2."/><text x="596" y="485">221<tspan x="596" y="499">2</tspan></text></a><a class="link" data-cabin-id="15447538"><path id="15447538" class="area cabin cat-std-4" d="M587 542h17v34h-17z" data-title="Каюта 222 категории «1С»" data-desc-id="ct-desc-161" data-desc="Мест в каюте: основных 2."/><text x="596" y="556">222<tspan x="596" y="570">2</tspan></text></a><a class="link" data-cabin-id="15447539"><path id="15447539" class="area cabin cat-std-4" d="M604 471h17v34h-17z" data-title="Каюта 223 категории «1С»" data-desc-id="ct-desc-161" data-desc="Мест в каюте: основных 2."/><text x="613" y="485">223<tspan x="613" y="499">2</tspan></text></a><a class="link" data-cabin-id="15447540"><path id="15447540" class="area cabin cat-std-4" d="M604 542h17v34h-17z" data-title="Каюта 224 категории «1С»" data-desc-id="ct-desc-161" data-desc="Мест в каюте: основных 2."/><text x="613" y="556">224<tspan x="613" y="570">2</tspan></text></a><a class="link" data-cabin-id="15447541"><path id="15447541" class="area cabin cat-std-4" d="M621 471h17v34h-17z" data-title="Каюта 225 категории «1С»" data-desc-id="ct-desc-161" data-desc="Мест в каюте: основных 2."/><text x="630" y="485">225<tspan x="630" y="499">2</tspan></text></a><a class="link" data-cabin-id="15447542"><path id="15447542" class="area cabin cat-std-4" d="M621 542h17v34h-17z" data-title="Каюта 226 категории «1С»" data-desc-id="ct-desc-161" data-desc="Мест в каюте: основных 2."/><text x="630" y="556">226<tspan x="630" y="570">2</tspan></text></a><a class="link" data-cabin-id="15447543"><path id="15447543" class="area cabin cat-std-4" d="M638 471h17v34h-17z" data-title="Каюта 227 категории «1С»" data-desc-id="ct-desc-161" data-desc="Мест в каюте: основных 2."/><text x="647" y="485">227<tspan x="647" y="499">2</tspan></text></a><a class="link" data-cabin-id="15447544"><path id="15447544" class="area cabin cat-std-4" d="M638 542h17v34h-17z" data-title="Каюта 228 категории «1С»" data-desc-id="ct-desc-161" data-desc="Мест в каюте: основных 2."/><text x="647" y="556">228<tspan x="647" y="570">2</tspan></text></a><a class="link" data-cabin-id="15447545"><path id="15447545" class="area cabin cat-std-4" d="M655 471h17v34h-17z" data-title="Каюта 229 категории «1С»" data-desc-id="ct-desc-161" data-desc="Мест в каюте: основных 2."/><text x="664" y="485">229<tspan x="664" y="499">2</tspan></text></a><a class="link" data-cabin-id="15447546"><path id="15447546" class="area cabin cat-std-4" d="M655 542h17v34h-17z" data-title="Каюта 230 категории «1С»" data-desc-id="ct-desc-161" data-desc="Мест в каюте: основных 2."/><text x="664" y="556">230<tspan x="664" y="570">2</tspan></text></a><a class="link" data-cabin-id="15447547"><path id="15447547" class="area cabin cat-std-4" d="M672 471h17v34h-17z" data-title="Каюта 231 категории «1С»" data-desc-id="ct-desc-161" data-desc="Мест в каюте: основных 2."/><text x="681" y="485">231<tspan x="681" y="499">2</tspan></text></a><a class="link" data-cabin-id="15447548"><path id="15447548" class="area cabin cat-std-4" d="M672 542h17v34h-17z" data-title="Каюта 232 категории «1С»" data-desc-id="ct-desc-161" data-desc="Мест в каюте: основных 2."/><text x="681" y="556">232<tspan x="681" y="570">2</tspan></text></a><a class="link" data-cabin-id="15447549"><path id="15447549" class="area cabin cat-std-4" d="M689 471h17v34h-17z" data-title="Каюта 233 категории «1С»" data-desc-id="ct-desc-161" data-desc="Мест в каюте: основных 2."/><text x="698" y="485">233<tspan x="698" y="499">2</tspan></text></a><a class="link" data-cabin-id="15447550"><path id="15447550" class="area cabin cat-std-4" d="M689 542h17v34h-17z" data-title="Каюта 234 категории «1С»" data-desc-id="ct-desc-161" data-desc="Мест в каюте: основных 2."/><text x="698" y="556">234<tspan x="698" y="570">2</tspan></text></a><a class="link" data-cabin-id="15447551"><path id="15447551" class="area cabin cat-std-2" d="M282 315h17v31h-17z" data-title="Каюта 301 категории «1Б»" data-desc-id="ct-desc-162" data-desc="Мест в каюте: основных 2."/><text x="291" y="327">301<tspan x="291" y="339">2</tspan></text></a><a class="link" data-cabin-id="15447552"><path id="15447552" class="area cabin cat-std-2" d="M282 388h17v31h-17z" data-title="Каюта 302 категории «1Б»" data-desc-id="ct-desc-162" data-desc="Мест в каюте: основных 2."/><text x="291" y="400">302<tspan x="291" y="412">2</tspan></text></a><a class="link" data-cabin-id="15447553"><path id="15447553" class="area cabin cat-std-2" d="M299 315h17v31h-17z" data-title="Каюта 303 категории «1Б»" data-desc-id="ct-desc-162" data-desc="Мест в каюте: основных 2."/><text x="308" y="327">303<tspan x="308" y="339">2</tspan></text></a><a class="link" data-cabin-id="15447554"><path id="15447554" class="area cabin cat-std-2" d="M299 388h17v31h-17z" data-title="Каюта 304 категории «1Б»" data-desc-id="ct-desc-162" data-desc="Мест в каюте: основных 2."/><text x="308" y="400">304<tspan x="308" y="412">2</tspan></text></a><a class="link" data-cabin-id="15447555"><path id="15447555" class="area cabin cat-std-2" d="M316 315h17v31h-17z" data-title="Каюта 305 категории «1Б»" data-desc-id="ct-desc-162" data-desc="Мест в каюте: основных 2."/><text x="325" y="327">305<tspan x="325" y="339">2</tspan></text></a><a class="link" data-cabin-id="15447556"><path id="15447556" class="area cabin cat-std-2" d="M316 388h17v31h-17z" data-title="Каюта 306 категории «1Б»" data-desc-id="ct-desc-162" data-desc="Мест в каюте: основных 2."/><text x="325" y="400">306<tspan x="325" y="412">2</tspan></text></a><a class="link" data-cabin-id="15447557"><path id="15447557" class="area cabin cat-std-2" d="M333 315h17v31h-17z" data-title="Каюта 307 категории «1Б»" data-desc-id="ct-desc-162" data-desc="Мест в каюте: основных 2."/><text x="342" y="327">307<tspan x="342" y="339">2</tspan></text></a><a class="link" data-cabin-id="15447558"><path id="15447558" class="area cabin cat-std-2" d="M333 388h17v31h-17z" data-title="Каюта 308 категории «1Б»" data-desc-id="ct-desc-162" data-desc="Мест в каюте: основных 2."/><text x="342" y="400">308<tspan x="342" y="412">2</tspan></text></a><a class="link" data-cabin-id="15447559"><path id="15447559" class="area cabin cat-std-2" d="M350 315h17v31h-17z" data-title="Каюта 309 категории «1Б»" data-desc-id="ct-desc-162" data-desc="Мест в каюте: основных 2."/><text x="359" y="327">309<tspan x="359" y="339">2</tspan></text></a><a class="link" data-cabin-id="15447560"><path id="15447560" class="area cabin cat-std-2" d="M350 388h17v31h-17z" data-title="Каюта 310 категории «1Б»" data-desc-id="ct-desc-162" data-desc="Мест в каюте: основных 2."/><text x="359" y="400">310<tspan x="359" y="412">2</tspan></text></a><a class="link" data-cabin-id="15447561"><path id="15447561" class="area cabin cat-std-2" d="M367 315h17v31h-17z" data-title="Каюта 311 категории «1Б»" data-desc-id="ct-desc-162" data-desc="Мест в каюте: основных 2."/><text x="376" y="327">311<tspan x="376" y="339">2</tspan></text></a><a class="link" data-cabin-id="15447562"><path id="15447562" class="area cabin cat-std-2" d="M367 388h17v31h-17z" data-title="Каюта 312 категории «1Б»" data-desc-id="ct-desc-162" data-desc="Мест в каюте: основных 2."/><text x="376" y="400">312<tspan x="376" y="412">2</tspan></text></a><a class="link" data-cabin-id="15447563"><path id="15447563" class="area cabin cat-std-4" d="M417 323h17v40h-17z" data-title="Каюта 313 категории «1С»" data-desc="Двухместная одноярусная каюта, расположенная на средней палубе. В каюте: санблок, кондиционер, телевизор. Мест в каюте: основных 2." data-note="трап, ограниченный вид из окна"/><text x="426" y="339">313<tspan x="426" y="355">2</tspan></text></a><a class="link" data-cabin-id="15447564"><path id="15447564" class="area cabin cat-std-4" d="M417 371h17v40h-17z" data-title="Каюта 314 категории «1С»" data-desc="Двухместная одноярусная каюта, расположенная на средней палубе. В каюте: санблок, кондиционер, телевизор. Мест в каюте: основных 2." data-note="трап, ограниченный вид из окна"/><text x="426" y="387">314<tspan x="426" y="403">2</tspan></text></a><a class="link" data-cabin-id="15447565"><path id="15447565" class="area cabin cat-std-4" d="M434 323h17v40h-17z" data-title="Каюта 315 категории «1С»" data-desc="Двухместная одноярусная каюта, расположенная на средней палубе. В каюте: санблок, кондиционер, телевизор. Мест в каюте: основных 2." data-note="трап, ограниченный вид из окна"/><text x="443" y="339">315<tspan x="443" y="355">2</tspan></text></a><a class="link" data-cabin-id="15447566"><path id="15447566" class="area cabin cat-std-4" d="M434 371h17v40h-17z" data-title="Каюта 316 категории «1С»" data-desc="Двухместная одноярусная каюта, расположенная на средней палубе. В каюте: санблок, кондиционер, телевизор. Мест в каюте: основных 2." data-note="трап, ограниченный вид из окна"/><text x="443" y="387">316<tspan x="443" y="403">2</tspan></text></a><a class="link" data-cabin-id="15447567"><path id="15447567" class="area cabin cat-std-2" d="M451 323h17v40h-17z" data-title="Каюта 317 категории «1Б»" data-desc-id="ct-desc-162" data-desc="Мест в каюте: основных 2."/><text x="460" y="339">317<tspan x="460" y="355">2</tspan></text></a><a class="link" data-cabin-id="15447568"><path id="15447568" class="area cabin cat-std-2" d="M451 371h17v40h-17z" data-title="Каюта 318 категории «1Б»" data-desc-id="ct-desc-162" data-desc="Мест в каюте: основных 2."/><text x="460" y="387">318<tspan x="460" y="403">2</tspan></text></a><a class="link" data-cabin-id="15447569"><path id="15447569" class="area cabin cat-std-2" d="M468 323h17v40h-17z" data-title="Каюта 319 категории «1Б»" data-desc-id="ct-desc-162" data-desc="Мест в каюте: основных 2."/><text x="477" y="339">319<tspan x="477" y="355">2</tspan></text></a><a class="link" data-cabin-id="15447570"><path id="15447570" class="area cabin cat-std-2" d="M468 371h17v40h-17z" data-title="Каюта 320 категории «1Б»" data-desc-id="ct-desc-162" data-desc="Мест в каюте: основных 2."/><text x="477" y="387">320<tspan x="477" y="403">2</tspan></text></a><a class="link" data-cabin-id="15447571"><path id="15447571" class="area cabin cat-std-2" d="M485 323h17v40h-17z" data-title="Каюта 321 категории «1Б»" data-desc-id="ct-desc-162" data-desc="Мест в каюте: основных 2."/><text x="494" y="339">321<tspan x="494" y="355">2</tspan></text></a><a class="link" data-cabin-id="15447572"><path id="15447572" class="area cabin cat-std-2" d="M485 371h17v40h-17z" data-title="Каюта 322 категории «1Б»" data-desc-id="ct-desc-162" data-desc="Мест в каюте: основных 2."/><text x="494" y="387">322<tspan x="494" y="403">2</tspan></text></a><a class="link" data-cabin-id="15447573"><path id="15447573" class="area cabin cat-std-2" d="M502 323h17v40h-17z" data-title="Каюта 323 категории «1Б»" data-desc-id="ct-desc-162" data-desc="Мест в каюте: основных 2."/><text x="511" y="339">323<tspan x="511" y="355">2</tspan></text></a><a class="link" data-cabin-id="15447574"><path id="15447574" class="area cabin cat-std-2" d="M502 371h17v40h-17z" data-title="Каюта 324 категории «1Б»" data-desc-id="ct-desc-162" data-desc="Мест в каюте: основных 2."/><text x="511" y="387">324<tspan x="511" y="403">2</tspan></text></a><a class="link" data-cabin-id="15447575"><path id="15447575" class="area cabin cat-std-2" d="M519 323h17v40h-17z" data-title="Каюта 325 категории «1Б»" data-desc-id="ct-desc-162" data-desc="Мест в каюте: основных 2."/><text x="528" y="339">325<tspan x="528" y="355">2</tspan></text></a><a class="link" data-cabin-id="15447576"><path id="15447576" class="area cabin cat-std-2" d="M519 371h17v40h-17z" data-title="Каюта 326 категории «1Б»" data-desc-id="ct-desc-162" data-desc="Мест в каюте: основных 2."/><text x="528" y="387">326<tspan x="528" y="403">2</tspan></text></a><a class="link" data-cabin-id="15447577"><path id="15447577" class="area cabin cat-std-2" d="M536 323h17v40h-17z" data-title="Каюта 327 категории «1Б»" data-desc-id="ct-desc-162" data-desc="Мест в каюте: основных 2."/><text x="545" y="339">327<tspan x="545" y="355">2</tspan></text></a><a class="link" data-cabin-id="15447578"><path id="15447578" class="area cabin cat-std-2" d="M536 371h17v40h-17z" data-title="Каюта 328 категории «1Б»" data-desc-id="ct-desc-162" data-desc="Мест в каюте: основных 2."/><text x="545" y="387">328<tspan x="545" y="403">2</tspan></text></a><a class="link" data-cabin-id="15447579"><path id="15447579" class="area cabin cat-std-2" d="M553 323h17v40h-17z" data-title="Каюта 329 категории «1Б»" data-desc-id="ct-desc-162" data-desc="Мест в каюте: основных 2."/><text x="562" y="339">329<tspan x="562" y="355">2</tspan></text></a><a class="link" data-cabin-id="15447580"><path id="15447580" class="area cabin cat-std-2" d="M553 371h17v40h-17z" data-title="Каюта 330 категории «1Б»" data-desc-id="ct-desc-162" data-desc="Мест в каюте: основных 2."/><text x="562" y="387">330<tspan x="562" y="403">2</tspan></text></a><a class="link" data-cabin-id="15447581"><path id="15447581" class="area cabin cat-std-2" d="M570 323h17v40h-17z" data-title="Каюта 331 категории «1Б»" data-desc-id="ct-desc-162" data-desc="Мест в каюте: основных 2."/><text x="579" y="339">331<tspan x="579" y="355">2</tspan></text></a><a class="link" data-cabin-id="15447582"><path id="15447582" class="area cabin cat-std-2" d="M570 371h17v40h-17z" data-title="Каюта 332 категории «1Б»" data-desc-id="ct-desc-162" data-desc="Мест в каюте: основных 2."/><text x="579" y="387">332<tspan x="579" y="403">2</tspan></text></a><a class="link" data-cabin-id="15447583"><path id="15447583" class="area cabin cat-std-4" d="M587 323h17v40h-17z" data-title="Каюта 333 категории «1С»" data-desc="Двухместная одноярусная каюта, расположенная на средней палубе. В каюте: санблок, кондиционер, телевизор. Мест в каюте: основных 2." data-note="трап, ограниченный вид из окна"/><text x="596" y="339">333<tspan x="596" y="355">2</tspan></text></a><a class="link" data-cabin-id="15447584"><path id="15447584" class="area cabin cat-std-4" d="M587 371h17v40h-17z" data-title="Каюта 334 категории «1С»" data-desc="Двухместная одноярусная каюта, расположенная на средней палубе. В каюте: санблок, кондиционер, телевизор. Мест в каюте: основных 2." data-note="трап, ограниченный вид из окна"/><text x="596" y="387">334<tspan x="596" y="403">2</tspan></text></a><a class="link" data-cabin-id="15447585"><path id="15447585" class="area cabin cat-std-4" d="M604 323h17v40h-17z" data-title="Каюта 335 категории «1С»" data-desc="Двухместная одноярусная каюта, расположенная на средней палубе. В каюте: санблок, кондиционер, телевизор. Мест в каюте: основных 2." data-note="трап, ограниченный вид из окна"/><text x="613" y="339">335<tspan x="613" y="355">2</tspan></text></a><a class="link" data-cabin-id="15447586"><path id="15447586" class="area cabin cat-std-4" d="M604 371h17v40h-17z" data-title="Каюта 336 категории «1С»" data-desc="Двухместная одноярусная каюта, расположенная на средней палубе. В каюте: санблок, кондиционер, телевизор. Мест в каюте: основных 2." data-note="трап, ограниченный вид из окна"/><text x="613" y="387">336<tspan x="613" y="403">2</tspan></text></a><a class="link" data-cabin-id="15447587"><path id="15447587" class="area cabin cat-std-2" d="M621 323h17v40h-17z" data-title="Каюта 337 категории «1Б»" data-desc-id="ct-desc-162" data-desc="Мест в каюте: основных 2."/><text x="630" y="339">337<tspan x="630" y="355">2</tspan></text></a><a class="link" data-cabin-id="15447588"><path id="15447588" class="area cabin cat-std-2" d="M621 371h17v40h-17z" data-title="Каюта 338 категории «1Б»" data-desc-id="ct-desc-162" data-desc="Мест в каюте: основных 2."/><text x="630" y="387">338<tspan x="630" y="403">2</tspan></text></a><a class="link" data-cabin-id="15447589"><path id="15447589" class="area cabin cat-std-2" d="M638 323h17v40h-17z" data-title="Каюта 339 категории «1Б»" data-desc-id="ct-desc-162" data-desc="Мест в каюте: основных 2."/><text x="647" y="339">339<tspan x="647" y="355">2</tspan></text></a><a class="link" data-cabin-id="15447590"><path id="15447590" class="area cabin cat-std-2" d="M638 371h17v40h-17z" data-title="Каюта 340 категории «1Б»" data-desc-id="ct-desc-162" data-desc="Мест в каюте: основных 2."/><text x="647" y="387">340<tspan x="647" y="403">2</tspan></text></a><a class="link" data-cabin-id="15447591"><path id="15447591" class="area cabin cat-std-2" d="M655 323h17v40h-17z" data-title="Каюта 341 категории «1Б»" data-desc-id="ct-desc-162" data-desc="Мест в каюте: основных 2."/><text x="664" y="339">341<tspan x="664" y="355">2</tspan></text></a><a class="link" data-cabin-id="15447592"><path id="15447592" class="area cabin cat-std-2" d="M655 371h17v40h-17z" data-title="Каюта 342 категории «1Б»" data-desc-id="ct-desc-162" data-desc="Мест в каюте: основных 2."/><text x="664" y="387">342<tspan x="664" y="403">2</tspan></text></a><a class="link" data-cabin-id="15447593"><path id="15447593" class="area cabin cat-std-2" d="M672 323h17v40h-17z" data-title="Каюта 343 категории «1Б»" data-desc-id="ct-desc-162" data-desc="Мест в каюте: основных 2."/><text x="681" y="339">343<tspan x="681" y="355">2</tspan></text></a><a class="link" data-cabin-id="15447594"><path id="15447594" class="area cabin cat-std-2" d="M672 371h17v40h-17z" data-title="Каюта 344 категории «1Б»" data-desc-id="ct-desc-162" data-desc="Мест в каюте: основных 2."/><text x="681" y="387">344<tspan x="681" y="403">2</tspan></text></a><a class="link" data-cabin-id="15447595"><path id="15447595" class="area cabin cat-std-2" d="M689 323h17v40h-17z" data-title="Каюта 345 категории «1Б»" data-desc-id="ct-desc-162" data-desc="Мест в каюте: основных 2."/><text x="698" y="339">345<tspan x="698" y="355">2</tspan></text></a><a class="link" data-cabin-id="15447596"><path id="15447596" class="area cabin cat-std-2" d="M689 371h17v40h-17z" data-title="Каюта 346 категории «1Б»" data-desc-id="ct-desc-162" data-desc="Мест в каюте: основных 2."/><text x="698" y="387">346<tspan x="698" y="403">2</tspan></text></a><a class="link" data-cabin-id="15447597"><path id="15447597" class="area cabin cat-std-2" d="M706 323h17v40h-17z" data-title="Каюта 347 категории «1Б»" data-desc-id="ct-desc-162" data-desc="Мест в каюте: основных 2."/><text x="715" y="339">347<tspan x="715" y="355">2</tspan></text></a><a class="link" data-cabin-id="15447598"><path id="15447598" class="area cabin cat-std-2" d="M706 371h17v40h-17z" data-title="Каюта 348 категории «1Б»" data-desc-id="ct-desc-162" data-desc="Мест в каюте: основных 2."/><text x="715" y="387">348<tspan x="715" y="403">2</tspan></text></a><a class="link" data-cabin-id="15447599"><path id="15447599" class="area cabin cat-std-2" d="M754 323h17v39h-17z" data-title="Каюта 349 категории «1Б»" data-desc-id="ct-desc-162" data-desc="Мест в каюте: основных 2."/><text x="763" y="339">349<tspan x="763" y="355">2</tspan></text></a><a class="link" data-cabin-id="15447600"><path id="15447600" class="area cabin cat-std-2" d="M754 372h17v39h-17z" data-title="Каюта 350 категории «1Б»" data-desc-id="ct-desc-162" data-desc="Мест в каюте: основных 2, верхних 1."/><text x="763" y="388">350<tspan x="763" y="404">3</tspan></text></a><a class="link" data-cabin-id="15447601"><path id="15447601" class="area cabin cat-std-2" d="M771 372h17v39h-17z" data-title="Каюта 352 категории «1Б»" data-desc-id="ct-desc-162" data-desc="Мест в каюте: основных 2, верхних 2."/><text x="780" y="388">352<tspan x="780" y="404">4</tspan></text></a><a class="link" data-cabin-id="15447602"><path id="15447602" class="area cabin cat-std-2" d="M788 372h17v39h-17z" data-title="Каюта 354 категории «1Б»" data-desc-id="ct-desc-162" data-desc="Мест в каюте: основных 2, верхних 2."/><text x="797" y="388">354<tspan x="797" y="404">4</tspan></text></a><a class="link" data-cabin-id="15447603"><path id="15447603" class="area cabin cat-std-2" d="M805 372h17v39h-17z" data-title="Каюта 356 категории «1Б»" data-desc-id="ct-desc-162" data-desc="Мест в каюте: основных 2, верхних 1." data-note="трап(вниз), не загораживает обзор из окна"/><text x="814" y="388">356<tspan x="814" y="404">3</tspan></text></a><a class="link" data-cabin-id="15447604"><path id="15447604" class="area cabin cat-std-2" d="M822 372h17v39h-17z" data-title="Каюта 358 категории «1Б»" data-desc-id="ct-desc-162" data-desc="Мест в каюте: основных 2, верхних 1." data-note="трап(вниз), не загораживает обзор из окна"/><text x="831" y="388">358<tspan x="831" y="404">3</tspan></text></a><a class="link" data-cabin-id="15447605"><path id="15447605" class="area cabin cat-std-2" d="M839 372h17v39h-17z" data-title="Каюта 360 категории «1Б»" data-desc-id="ct-desc-162" data-desc="Мест в каюте: основных 2."/><text x="848" y="388">360<tspan x="848" y="404">2</tspan></text></a><a class="link" data-cabin-id="15447606"><path id="15447606" class="area cabin cat-std-2" d="M856 372h17v37l-17 2z" data-title="Каюта 362 категории «1Б»" data-desc-id="ct-desc-162" data-desc="Мест в каюте: основных 2."/><text x="865" y="388">362<tspan x="865" y="404">2</tspan></text></a><a class="link" data-cabin-id="15447607"><path id="15447607" class="area cabin cat-std-1" d="M418 175h18v36h-18z" data-title="Каюта 401 категории «1А»" data-desc-id="ct-desc-163" data-desc="Мест в каюте: основных 2." data-note="трап(вниз), не загораживает обзор из окна"/><text x="427" y="189">401<tspan x="427" y="203">2</tspan></text></a><a class="link" data-cabin-id="15447608"><path id="15447608" class="area cabin cat-std-1" d="M418 221h18v36h-18z" data-title="Каюта 402 категории «1А»" data-desc-id="ct-desc-163" data-desc="Мест в каюте: основных 2." data-note="трап(вниз), не загораживает обзор из окна"/><text x="427" y="235">402<tspan x="427" y="249">2</tspan></text></a><a class="link" data-cabin-id="15447609"><path id="15447609" class="area cabin cat-std-1" d="M436 175h18v36h-18z" data-title="Каюта 403 категории «1А»" data-desc-id="ct-desc-163" data-desc="Мест в каюте: основных 2." data-note="трап(вниз), не загораживает обзор из окна"/><text x="445" y="189">403<tspan x="445" y="203">2</tspan></text></a><a class="link" data-cabin-id="15447610"><path id="15447610" class="area cabin cat-std-1" d="M436 221h18v36h-18z" data-title="Каюта 404 категории «1А»" data-desc-id="ct-desc-163" data-desc="Мест в каюте: основных 2." data-note="трап(вниз), не загораживает обзор из окна"/><text x="445" y="235">404<tspan x="445" y="249">2</tspan></text></a><a class="link" data-cabin-id="15447611"><path id="15447611" class="area cabin cat-std-2" d="M454 175h18v36h-18z" data-title="Каюта 405 категории «1Б»" data-desc="Двухместная одноярусная каюта, расположенная на шлюпочной палубе. В каюте: санблок, кондиционер, телевизор. Мест в каюте: основных 2." data-note="трап, ограниченный вид из окна"/><text x="463" y="189">405<tspan x="463" y="203">2</tspan></text></a><a class="link" data-cabin-id="15447612"><path id="15447612" class="area cabin cat-std-2" d="M454 221h18v36h-18z" data-title="Каюта 406 категории «1Б»" data-desc="Двухместная одноярусная каюта, расположенная на шлюпочной палубе. В каюте: санблок, кондиционер, телевизор. Мест в каюте: основных 2." data-note="трап, ограниченный вид из окна"/><text x="463" y="235">406<tspan x="463" y="249">2</tspan></text></a><a class="link" data-cabin-id="15447613"><path id="15447613" class="area cabin cat-std-2" d="M472 175h18v36h-18z" data-title="Каюта 407 категории «1Б»" data-desc="Двухместная одноярусная каюта, расположенная на шлюпочной палубе. В каюте: санблок, кондиционер, телевизор. Мест в каюте: основных 2." data-note="трап, ограниченный вид из окна"/><text x="481" y="189">407<tspan x="481" y="203">2</tspan></text></a><a class="link" data-cabin-id="15447614"><path id="15447614" class="area cabin cat-std-2" d="M472 221h18v36h-18z" data-title="Каюта 408 категории «1Б»" data-desc="Двухместная одноярусная каюта, расположенная на шлюпочной палубе. В каюте: санблок, кондиционер, телевизор. Мест в каюте: основных 2." data-note="трап, ограниченный вид из окна"/><text x="481" y="235">408<tspan x="481" y="249">2</tspan></text></a><a class="link" data-cabin-id="15447615"><path id="15447615" class="area cabin cat-std-1" d="M490 175h18v36h-18z" data-title="Каюта 409 категории «1А»" data-desc-id="ct-desc-163" data-desc="Мест в каюте: основных 2."/><text x="499" y="189">409<tspan x="499" y="203">2</tspan></text></a><a class="link" data-cabin-id="15447616"><path id="15447616" class="area cabin cat-std-1" d="M490 221h18v36h-18z" data-title="Каюта 410 категории «1А»" data-desc-id="ct-desc-163" data-desc="Мест в каюте: основных 2."/><text x="499" y="235">410<tspan x="499" y="249">2</tspan></text></a><a class="link" data-cabin-id="15447617"><path id="15447617" class="area cabin cat-std-1" d="M508 175h18v36h-18z" data-title="Каюта 411 категории «1А»" data-desc-id="ct-desc-163" data-desc="Мест в каюте: основных 2."/><text x="517" y="189">411<tspan x="517" y="203">2</tspan></text></a><a class="link" data-cabin-id="15447618"><path id="15447618" class="area cabin cat-std-1" d="M508 221h18v36h-18z" data-title="Каюта 412 категории «1А»" data-desc-id="ct-desc-163" data-desc="Мест в каюте: основных 2."/><text x="517" y="235">412<tspan x="517" y="249">2</tspan></text></a><a class="link" data-cabin-id="15447619"><path id="15447619" class="area cabin cat-std-1" d="M526 175h18v36h-18z" data-title="Каюта 413 категории «1А»" data-desc-id="ct-desc-163" data-desc="Мест в каюте: основных 2."/><text x="535" y="189">413<tspan x="535" y="203">2</tspan></text></a><a class="link" data-cabin-id="15447620"><path id="15447620" class="area cabin cat-std-1" d="M526 221h18v36h-18z" data-title="Каюта 414 категории «1А»" data-desc-id="ct-desc-163" data-desc="Мест в каюте: основных 2."/><text x="535" y="235">414<tspan x="535" y="249">2</tspan></text></a><a class="link" data-cabin-id="15447621"><path id="15447621" class="area cabin cat-std-1" d="M544 175h18v36h-18z" data-title="Каюта 415 категории «1А»" data-desc-id="ct-desc-163" data-desc="Мест в каюте: основных 2." data-note="шумная каюта, в потолке находится нагнетатель воздуха!!! предупреждать туристов!"/><text x="553" y="189">415<tspan x="553" y="203">2</tspan></text></a><a class="link" data-cabin-id="15447622"><path id="15447622" class="area cabin cat-std-1" d="M544 221h18v36h-18z" data-title="Каюта 416 категории «1А»" data-desc-id="ct-desc-163" data-desc="Мест в каюте: основных 2."/><text x="553" y="235">416<tspan x="553" y="249">2</tspan></text></a><a class="link" data-cabin-id="15447623"><path id="15447623" class="area cabin cat-std-1" d="M562 175h18v36h-18z" data-title="Каюта 417 категории «1А»" data-desc-id="ct-desc-163" data-desc="Мест в каюте: основных 2."/><text x="571" y="189">417<tspan x="571" y="203">2</tspan></text></a><a class="link" data-cabin-id="15447624"><path id="15447624" class="area cabin cat-std-1" d="M562 221h18v36h-18z" data-title="Каюта 418 категории «1А»" data-desc-id="ct-desc-163" data-desc="Мест в каюте: основных 2."/><text x="571" y="235">418<tspan x="571" y="249">2</tspan></text></a><a class="link" data-cabin-id="15447625"><path id="15447625" class="area cabin cat-std-1" d="M580 175h18v36h-18z" data-title="Каюта 419 категории «1А»" data-desc-id="ct-desc-163" data-desc="Мест в каюте: основных 2."/><text x="589" y="189">419<tspan x="589" y="203">2</tspan></text></a><a class="link" data-cabin-id="15447626"><path id="15447626" class="area cabin cat-std-1" d="M580 221h18v36h-18z" data-title="Каюта 420 категории «1А»" data-desc-id="ct-desc-163" data-desc="Мест в каюте: основных 2."/><text x="589" y="235">420<tspan x="589" y="249">2</tspan></text></a><a class="link" data-cabin-id="15447627"><path id="15447627" class="area cabin cat-std-1" d="M598 175h18v36h-18z" data-title="Каюта 421 категории «1А»" data-desc-id="ct-desc-163" data-desc="Мест в каюте: основных 2." data-note="трап(вниз), не загораживает обзор из окна"/><text x="607" y="189">421<tspan x="607" y="203">2</tspan></text></a><a class="link" data-cabin-id="15447628"><path id="15447628" class="area cabin cat-std-1" d="M598 221h18v36h-18z" data-title="Каюта 422 категории «1А»" data-desc-id="ct-desc-163" data-desc="Мест в каюте: основных 2." data-note="трап(вниз), не загораживает обзор из окна"/><text x="607" y="235">422<tspan x="607" y="249">2</tspan></text></a><a class="link" data-cabin-id="15447629"><path id="15447629" class="area cabin cat-std-1" d="M616 175h18v36h-18z" data-title="Каюта 423 категории «1А»" data-desc-id="ct-desc-163" data-desc="Мест в каюте: основных 2." data-note="трап(вниз), не загораживает обзор из окна"/><text x="625" y="189">423<tspan x="625" y="203">2</tspan></text></a><a class="link" data-cabin-id="15447630"><path id="15447630" class="area cabin cat-std-1" d="M616 221h18v36h-18z" data-title="Каюта 424 категории «1А»" data-desc-id="ct-desc-163" data-desc="Мест в каюте: основных 2." data-note="трап(вниз), не загораживает обзор из окна"/><text x="625" y="235">424<tspan x="625" y="249">2</tspan></text></a><a class="link" data-cabin-id="15447631"><path id="15447631" class="area cabin cat-std-2" d="M634 175h18v36h-18z" data-title="Каюта 425 категории «1Б»" data-desc="Двухместная одноярусная каюта, расположенная на шлюпочной палубе. В каюте: санблок, кондиционер, телевизор. Мест в каюте: основных 2." data-note="трап, ограниченный вид из окна"/><text x="643" y="189">425<tspan x="643" y="203">2</tspan></text></a><a class="link" data-cabin-id="15447632"><path id="15447632" class="area cabin cat-std-2" d="M634 221h18v36h-18z" data-title="Каюта 426 категории «1Б»" data-desc="Двухместная одноярусная каюта, расположенная на шлюпочной палубе. В каюте: санблок, кондиционер, телевизор. Мест в каюте: основных 2." data-note="трап, ограниченный вид из окна"/><text x="643" y="235">426<tspan x="643" y="249">2</tspan></text></a><a class="link" data-cabin-id="15447633"><path id="15447633" class="area cabin cat-std-2" d="M652 175h18v36h-18z" data-title="Каюта 427 категории «1Б»" data-desc="Двухместная одноярусная каюта, расположенная на шлюпочной палубе. В каюте: санблок, кондиционер, телевизор. Мест в каюте: основных 2." data-note="трап, ограниченный вид из окна"/><text x="661" y="189">427<tspan x="661" y="203">2</tspan></text></a><a class="link" data-cabin-id="15447634"><path id="15447634" class="area cabin cat-std-2" d="M652 221h18v36h-18z" data-title="Каюта 428 категории «1Б»" data-desc="Двухместная одноярусная каюта, расположенная на шлюпочной палубе. В каюте: санблок, кондиционер, телевизор. Мест в каюте: основных 2." data-note="трап, ограниченный вид из окна"/><text x="661" y="235">428<tspan x="661" y="249">2</tspan></text></a><a class="link" data-cabin-id="15447635"><path id="15447635" class="area cabin cat-std-1" d="M704 175h18v36h-18z" data-title="Каюта 429 категории «1А»" data-desc-id="ct-desc-163" data-desc="Мест в каюте: основных 2."/><text x="713" y="189">429<tspan x="713" y="203">2</tspan></text></a><a class="link" data-cabin-id="15447636"><path id="15447636" class="area cabin cat-std-1" d="M704 221h18v36h-18z" data-title="Каюта 430 категории «1А»" data-desc-id="ct-desc-163" data-desc="Мест в каюте: основных 2."/><text x="713" y="235">430<tspan x="713" y="249">2</tspan></text></a><a class="link" data-cabin-id="15447637"><path id="15447637" class="area cabin cat-lx-1" d="M670 175h34v36h-34z" data-title="Каюта 431 категории «Л»" data-desc-id="ct-desc-164" data-desc="Мест в каюте: основных 2, дополнительных 1."/><text x="687" y="189">431<tspan x="687" y="203">3</tspan></text></a><a class="link" data-cabin-id="15447638"><path id="15447638" class="area cabin cat-lx-1" d="M670 221h34v36h-34z" data-title="Каюта 432 категории «Л»" data-desc-id="ct-desc-164" data-desc="Мест в каюте: основных 2, дополнительных 1."/><text x="687" y="235">432<tspan x="687" y="249">3</tspan></text></a><a class="link" data-cabin-id="15447639"><path id="15447639" class="area cabin cat-sng-1" d="M730 175h15v30h-15z" data-title="Каюта 437 категории «1»" data-desc-id="ct-desc-165" data-desc="Мест в каюте: основных 1."/><text x="738" y="187">437<tspan x="738" y="199">1</tspan></text></a><a class="link" data-cabin-id="15447640"><path id="15447640" class="area cabin cat-sng-1" d="M730 227h15v30h-15z" data-title="Каюта 438 категории «1»" data-desc-id="ct-desc-165" data-desc="Мест в каюте: основных 1."/><text x="738" y="239">438<tspan x="738" y="251">1</tspan></text></a><a class="link" data-cabin-id="15447641"><path id="15447641" class="area cabin cat-sng-1" d="M745 175h15v30h-15z" data-title="Каюта 439 категории «1»" data-desc-id="ct-desc-165" data-desc="Мест в каюте: основных 1."/><text x="753" y="187">439<tspan x="753" y="199">1</tspan></text></a><a class="link" data-cabin-id="15447642"><path id="15447642" class="area cabin cat-sng-1" d="M745 227h15v30h-15z" data-title="Каюта 440 категории «1»" data-desc-id="ct-desc-165" data-desc="Мест в каюте: основных 1."/><text x="753" y="239">440<tspan x="753" y="251">1</tspan></text></a><a class="link" data-cabin-id="15447643"><path id="15447643" class="area cabin cat-sng-1" d="M760 175h15v36h-15z" data-title="Каюта 441 категории «1»" data-desc-id="ct-desc-165" data-desc="Мест в каюте: основных 1."/><text x="768" y="189">441<tspan x="768" y="203">1</tspan></text></a><a class="link" data-cabin-id="15447644"><path id="15447644" class="area cabin cat-sng-1" d="M760 221h15v36h-15z" data-title="Каюта 442 категории «1»" data-desc-id="ct-desc-165" data-desc="Мест в каюте: основных 1."/><text x="768" y="235">442<tspan x="768" y="249">1</tspan></text></a><a class="link" data-cabin-id="15447645"><path id="15447645" class="area cabin cat-sng-1" d="M775 175h15v36h-15z" data-title="Каюта 443 категории «1»" data-desc-id="ct-desc-165" data-desc="Мест в каюте: основных 1."/><text x="783" y="189">443<tspan x="783" y="203">1</tspan></text></a><a class="link" data-cabin-id="15447646"><path id="15447646" class="area cabin cat-sng-1" d="M775 221h15v36h-15z" data-title="Каюта 444 категории «1»" data-desc-id="ct-desc-165" data-desc="Мест в каюте: основных 1."/><text x="783" y="235">444<tspan x="783" y="249">1</tspan></text></a><a class="link" data-cabin-id="15447647"><path id="15447647" class="area cabin cat-sng-1" d="M790 175h15v36h-15z" data-title="Каюта 445 категории «1»" data-desc-id="ct-desc-165" data-desc="Мест в каюте: основных 1."/><text x="798" y="189">445<tspan x="798" y="203">1</tspan></text></a><a class="link" data-cabin-id="15451776"><path id="15451776" class="area public" d="M875 325h32v84h-32z" data-title="Читальный салон" data-desc="Читальный салон"/></a><a class="link" data-cabin-id="15451778"><path id="15451778" class="area public" d="M807 175h60v82h-60z" data-title="Панорама бар" data-desc="Панорама бар на шлюпочной палубе"/></a><a class="link" data-cabin-id="15451779"><path id="15451779" class="area public" d="M278 175h105v82H278z" data-title="Ресторан-бар" data-desc="Ресторан-бар"/></a><a class="link" data-cabin-id="15451780"><path id="15451780" class="area public" d="M417 38h120v68H417z" data-title="конференц-зал" data-desc="конференц-зал на солнечной палубе"/></a><a class="link" data-cabin-id="15455509"><path id="15455509" class="area public" d="M63 315h218v104H63z" data-title="Ресторан" data-desc="Ресторан"/></a></g><script type="text/ecmascript" xlink:href="https://static.mosturflot.ru/js/deckplan-svg.js"/></svg>